%TF.GenerationSoftware,KiCad,Pcbnew,(7.0.0-0)*%
%TF.CreationDate,2023-03-04T16:40:43-08:00*%
%TF.ProjectId,mt-choc,6d742d63-686f-4632-9e6b-696361645f70,v1.0*%
%TF.SameCoordinates,Original*%
%TF.FileFunction,Paste,Bot*%
%TF.FilePolarity,Positive*%
%FSLAX46Y46*%
G04 Gerber Fmt 4.6, Leading zero omitted, Abs format (unit mm)*
G04 Created by KiCad (PCBNEW (7.0.0-0)) date 2023-03-04 16:40:43*
%MOMM*%
%LPD*%
G01*
G04 APERTURE LIST*
G04 Aperture macros list*
%AMRoundRect*
0 Rectangle with rounded corners*
0 $1 Rounding radius*
0 $2 $3 $4 $5 $6 $7 $8 $9 X,Y pos of 4 corners*
0 Add a 4 corners polygon primitive as box body*
4,1,4,$2,$3,$4,$5,$6,$7,$8,$9,$2,$3,0*
0 Add four circle primitives for the rounded corners*
1,1,$1+$1,$2,$3*
1,1,$1+$1,$4,$5*
1,1,$1+$1,$6,$7*
1,1,$1+$1,$8,$9*
0 Add four rect primitives between the rounded corners*
20,1,$1+$1,$2,$3,$4,$5,0*
20,1,$1+$1,$4,$5,$6,$7,0*
20,1,$1+$1,$6,$7,$8,$9,0*
20,1,$1+$1,$8,$9,$2,$3,0*%
G04 Aperture macros list end*
%ADD10RoundRect,0.350000X-0.450000X-0.350000X0.450000X-0.350000X0.450000X0.350000X-0.450000X0.350000X0*%
%ADD11RoundRect,0.350000X0.450000X0.350000X-0.450000X0.350000X-0.450000X-0.350000X0.450000X-0.350000X0*%
%ADD12RoundRect,0.250000X-1.025000X-1.000000X1.025000X-1.000000X1.025000X1.000000X-1.025000X1.000000X0*%
G04 APERTURE END LIST*
D10*
%TO.C,D25*%
X158900000Y-85041665D03*
D11*
X155100000Y-85041665D03*
%TD*%
D10*
%TO.C,D12*%
X113900000Y-102041657D03*
D11*
X110100000Y-102041657D03*
%TD*%
D10*
%TO.C,D38*%
X217400000Y-136041641D03*
D11*
X213600000Y-136041641D03*
%TD*%
D12*
%TO.C,SW10*%
X83250000Y-161700000D03*
X95250000Y-163900000D03*
%TD*%
D10*
%TO.C,D1*%
X68900000Y-85041665D03*
D11*
X65100000Y-85041665D03*
%TD*%
D12*
%TO.C,SW39*%
X216000000Y-127700000D03*
X228000000Y-129900000D03*
%TD*%
%TO.C,SW33*%
X184500000Y-93700000D03*
X196500000Y-95900000D03*
%TD*%
%TO.C,SW40*%
X225000000Y-144700000D03*
X237000000Y-146900000D03*
%TD*%
D10*
%TO.C,D50*%
X257900000Y-102041657D03*
D11*
X254100000Y-102041657D03*
%TD*%
D10*
%TO.C,D11*%
X104900000Y-85041665D03*
D11*
X101100000Y-85041665D03*
%TD*%
D12*
%TO.C,SW56*%
X306000000Y-161700000D03*
X318000000Y-163900000D03*
%TD*%
%TO.C,SW18*%
X126000000Y-127700000D03*
X138000000Y-129900000D03*
%TD*%
%TO.C,SW44*%
X234000000Y-127700000D03*
X246000000Y-129900000D03*
%TD*%
D10*
%TO.C,D18*%
X136400000Y-119041649D03*
D11*
X132600000Y-119041649D03*
%TD*%
D10*
%TO.C,D9*%
X109400000Y-136041641D03*
D11*
X105600000Y-136041641D03*
%TD*%
D10*
%TO.C,D55*%
X275900000Y-102041657D03*
D11*
X272100000Y-102041657D03*
%TD*%
D10*
%TO.C,D61*%
X305150000Y-119041649D03*
D11*
X301350000Y-119041649D03*
%TD*%
D10*
%TO.C,D63*%
X334400000Y-153041633D03*
D11*
X330600000Y-153041633D03*
%TD*%
D12*
%TO.C,SW36*%
X207000000Y-144700000D03*
X219000000Y-146900000D03*
%TD*%
D10*
%TO.C,D40*%
X221900000Y-102041657D03*
D11*
X218100000Y-102041657D03*
%TD*%
D12*
%TO.C,SW63*%
X301500000Y-110700000D03*
X313500000Y-112900000D03*
%TD*%
%TO.C,SW25*%
X148500000Y-93700000D03*
X160500000Y-95900000D03*
%TD*%
%TO.C,SW16*%
X112500000Y-93700000D03*
X124500000Y-95900000D03*
%TD*%
D10*
%TO.C,D3*%
X75650000Y-119041649D03*
D11*
X71850000Y-119041649D03*
%TD*%
D10*
%TO.C,D14*%
X127400000Y-136041641D03*
D11*
X123600000Y-136041641D03*
%TD*%
D10*
%TO.C,D28*%
X181400000Y-136041641D03*
D11*
X177600000Y-136041641D03*
%TD*%
D10*
%TO.C,D7*%
X95900000Y-102041657D03*
D11*
X92100000Y-102041657D03*
%TD*%
D12*
%TO.C,SW41*%
X240750000Y-161700000D03*
X252750000Y-163900000D03*
%TD*%
D10*
%TO.C,D47*%
X253400000Y-136041641D03*
D11*
X249600000Y-136041641D03*
%TD*%
D10*
%TO.C,D57*%
X300650000Y-136041641D03*
D11*
X296850000Y-136041641D03*
%TD*%
D12*
%TO.C,SW38*%
X211500000Y-110700000D03*
X223500000Y-112900000D03*
%TD*%
%TO.C,SW62*%
X297000000Y-93700000D03*
X309000000Y-95900000D03*
%TD*%
%TO.C,SW26*%
X157500000Y-110700000D03*
X169500000Y-112900000D03*
%TD*%
%TO.C,SW48*%
X247500000Y-110700000D03*
X259500000Y-112900000D03*
%TD*%
D10*
%TO.C,D62*%
X334400000Y-136041641D03*
D11*
X330600000Y-136041641D03*
%TD*%
D10*
%TO.C,D16*%
X122900000Y-85041665D03*
D11*
X119100000Y-85041665D03*
%TD*%
D12*
%TO.C,SW11*%
X94500000Y-93700000D03*
X106500000Y-95900000D03*
%TD*%
D10*
%TO.C,D19*%
X145400000Y-136041641D03*
D11*
X141600000Y-136041641D03*
%TD*%
D10*
%TO.C,D42*%
X235400000Y-136041641D03*
D11*
X231600000Y-136041641D03*
%TD*%
D10*
%TO.C,D24*%
X145400000Y-153041633D03*
D11*
X141600000Y-153041633D03*
%TD*%
D10*
%TO.C,D44*%
X230900000Y-85041665D03*
D11*
X227100000Y-85041665D03*
%TD*%
D12*
%TO.C,SW21*%
X139500000Y-110700000D03*
X151500000Y-112900000D03*
%TD*%
%TO.C,SW54*%
X270000000Y-127700000D03*
X282000000Y-129900000D03*
%TD*%
D10*
%TO.C,D45*%
X239900000Y-102041657D03*
D11*
X236100000Y-102041657D03*
%TD*%
D12*
%TO.C,SW57*%
X274500000Y-93700000D03*
X286500000Y-95900000D03*
%TD*%
D10*
%TO.C,D29*%
X183650000Y-153041633D03*
D11*
X179850000Y-153041633D03*
%TD*%
D10*
%TO.C,D51*%
X262400000Y-119041649D03*
D11*
X258600000Y-119041649D03*
%TD*%
D12*
%TO.C,SW24*%
X135250000Y-161700000D03*
X147250000Y-163900000D03*
X173250000Y-161700000D03*
X185250000Y-163900000D03*
X211250000Y-161700000D03*
X223250000Y-163900000D03*
%TD*%
D10*
%TO.C,D21*%
X149900000Y-102041657D03*
D11*
X146100000Y-102041657D03*
%TD*%
D10*
%TO.C,D58*%
X316400000Y-153041633D03*
D11*
X312600000Y-153041633D03*
%TD*%
D10*
%TO.C,D60*%
X293900000Y-102041657D03*
D11*
X290100000Y-102041657D03*
%TD*%
D12*
%TO.C,SW8*%
X90000000Y-127700000D03*
X102000000Y-129900000D03*
%TD*%
%TO.C,SW3*%
X65250000Y-127700000D03*
X77250000Y-129900000D03*
%TD*%
D10*
%TO.C,D41*%
X226400000Y-119041649D03*
D11*
X222600000Y-119041649D03*
%TD*%
D10*
%TO.C,D31*%
X176900000Y-85041665D03*
D11*
X173100000Y-85041665D03*
%TD*%
D12*
%TO.C,SW35*%
X198000000Y-127700000D03*
X210000000Y-129900000D03*
%TD*%
D10*
%TO.C,D39*%
X212900000Y-85041665D03*
D11*
X209100000Y-85041665D03*
%TD*%
D12*
%TO.C,SW9*%
X99000000Y-144700000D03*
X111000000Y-146900000D03*
%TD*%
D10*
%TO.C,D52*%
X271400000Y-136041641D03*
D11*
X267600000Y-136041641D03*
%TD*%
D12*
%TO.C,SW15*%
X105750000Y-161700000D03*
X117750000Y-163900000D03*
%TD*%
%TO.C,SW4*%
X69750000Y-144700000D03*
X81750000Y-146900000D03*
%TD*%
D10*
%TO.C,D26*%
X167900000Y-102041657D03*
D11*
X164100000Y-102041657D03*
%TD*%
D10*
%TO.C,D10*%
X93650000Y-153041633D03*
D11*
X89850000Y-153041633D03*
%TD*%
D12*
%TO.C,SW49*%
X252000000Y-127700000D03*
X264000000Y-129900000D03*
%TD*%
D10*
%TO.C,D49*%
X248900000Y-85041665D03*
D11*
X245100000Y-85041665D03*
%TD*%
D12*
%TO.C,SW42*%
X220500000Y-93700000D03*
X232500000Y-95900000D03*
%TD*%
D10*
%TO.C,D33*%
X190400000Y-119041649D03*
D11*
X186600000Y-119041649D03*
%TD*%
D12*
%TO.C,SW53*%
X265500000Y-110700000D03*
X277500000Y-112900000D03*
%TD*%
D10*
%TO.C,D30*%
X221900000Y-153041633D03*
D11*
X218100000Y-153041633D03*
%TD*%
D10*
%TO.C,D37*%
X208400000Y-119041649D03*
D11*
X204600000Y-119041649D03*
%TD*%
D12*
%TO.C,SW1*%
X58500000Y-93700000D03*
X70500000Y-95900000D03*
%TD*%
%TO.C,SW43*%
X229500000Y-110700000D03*
X241500000Y-112900000D03*
%TD*%
D10*
%TO.C,D20*%
X140900000Y-85041665D03*
D11*
X137100000Y-85041665D03*
%TD*%
D12*
%TO.C,SW58*%
X283500000Y-110700000D03*
X295500000Y-112900000D03*
%TD*%
D10*
%TO.C,D48*%
X273650000Y-153041633D03*
D11*
X269850000Y-153041633D03*
%TD*%
D10*
%TO.C,D36*%
X203900000Y-102041657D03*
D11*
X200100000Y-102041657D03*
%TD*%
D12*
%TO.C,SW59*%
X294750000Y-127700000D03*
X306750000Y-129900000D03*
%TD*%
%TO.C,SW29*%
X166500000Y-93700000D03*
X178500000Y-95900000D03*
%TD*%
D10*
%TO.C,D6*%
X86900000Y-85041665D03*
D11*
X83100000Y-85041665D03*
%TD*%
D12*
%TO.C,SW7*%
X85500000Y-110700000D03*
X97500000Y-112900000D03*
%TD*%
%TO.C,SW34*%
X193500000Y-110700000D03*
X205500000Y-112900000D03*
%TD*%
%TO.C,SW22*%
X144000000Y-127700000D03*
X156000000Y-129900000D03*
%TD*%
D10*
%TO.C,D43*%
X251150000Y-153041633D03*
D11*
X247350000Y-153041633D03*
%TD*%
D12*
%TO.C,SW6*%
X76500000Y-93700000D03*
X88500000Y-95900000D03*
%TD*%
%TO.C,SW30*%
X175500000Y-110700000D03*
X187500000Y-112900000D03*
%TD*%
%TO.C,SW37*%
X202500000Y-93700000D03*
X214500000Y-95900000D03*
%TD*%
%TO.C,SW61*%
X324000000Y-161700000D03*
X336000000Y-163900000D03*
%TD*%
%TO.C,SW23*%
X153000000Y-144700000D03*
X165000000Y-146900000D03*
%TD*%
%TO.C,SW31*%
X180000000Y-127700000D03*
X192000000Y-129900000D03*
%TD*%
%TO.C,SW46*%
X263250000Y-161700000D03*
X275250000Y-163900000D03*
%TD*%
D10*
%TO.C,D64*%
X307400000Y-85041665D03*
D11*
X303600000Y-85041665D03*
%TD*%
D10*
%TO.C,D66*%
X352400000Y-153041633D03*
D11*
X348600000Y-153041633D03*
%TD*%
D12*
%TO.C,SW14*%
X117000000Y-144700000D03*
X129000000Y-146900000D03*
%TD*%
D10*
%TO.C,D54*%
X266900000Y-85041665D03*
D11*
X263100000Y-85041665D03*
%TD*%
D10*
%TO.C,D46*%
X244400000Y-119041649D03*
D11*
X240600000Y-119041649D03*
%TD*%
D12*
%TO.C,SW50*%
X261000000Y-144700000D03*
X273000000Y-146900000D03*
%TD*%
D10*
%TO.C,D5*%
X71150000Y-153041633D03*
D11*
X67350000Y-153041633D03*
%TD*%
D12*
%TO.C,SW27*%
X162000000Y-127700000D03*
X174000000Y-129900000D03*
%TD*%
%TO.C,SW13*%
X108000000Y-127700000D03*
X120000000Y-129900000D03*
%TD*%
%TO.C,SW17*%
X121500000Y-110700000D03*
X133500000Y-112900000D03*
%TD*%
%TO.C,SW45*%
X243000000Y-144700000D03*
X255000000Y-146900000D03*
%TD*%
D10*
%TO.C,D22*%
X154400000Y-119041649D03*
D11*
X150600000Y-119041649D03*
%TD*%
D10*
%TO.C,D65*%
X311900000Y-102041657D03*
D11*
X308100000Y-102041657D03*
%TD*%
D10*
%TO.C,D4*%
X80150000Y-136041641D03*
D11*
X76350000Y-136041641D03*
%TD*%
D10*
%TO.C,D15*%
X116150000Y-153041633D03*
D11*
X112350000Y-153041633D03*
%TD*%
D12*
%TO.C,SW2*%
X63000000Y-110700000D03*
X75000000Y-112900000D03*
%TD*%
D10*
%TO.C,D2*%
X73400000Y-102041657D03*
D11*
X69600000Y-102041657D03*
%TD*%
D10*
%TO.C,D17*%
X131900000Y-102041657D03*
D11*
X128100000Y-102041657D03*
%TD*%
D12*
%TO.C,SW5*%
X60750000Y-161700000D03*
X72750000Y-163900000D03*
%TD*%
%TO.C,SW64*%
X342000000Y-161700000D03*
X354000000Y-163900000D03*
%TD*%
D10*
%TO.C,D32*%
X185900000Y-102041657D03*
D11*
X182100000Y-102041657D03*
%TD*%
D10*
%TO.C,D53*%
X293900000Y-153041633D03*
D11*
X290100000Y-153041633D03*
%TD*%
D12*
%TO.C,SW12*%
X103500000Y-110700000D03*
X115500000Y-112900000D03*
%TD*%
D10*
%TO.C,D8*%
X100400000Y-119041649D03*
D11*
X96600000Y-119041649D03*
%TD*%
D10*
%TO.C,D35*%
X194900000Y-85041665D03*
D11*
X191100000Y-85041665D03*
%TD*%
D10*
%TO.C,D13*%
X118400000Y-119041649D03*
D11*
X114600000Y-119041649D03*
%TD*%
D12*
%TO.C,SW60*%
X324000000Y-144700000D03*
X336000000Y-146900000D03*
%TD*%
%TO.C,SW32*%
X189000000Y-144700000D03*
X201000000Y-146900000D03*
%TD*%
D10*
%TO.C,D56*%
X280400000Y-119041649D03*
D11*
X276600000Y-119041649D03*
%TD*%
D10*
%TO.C,D23*%
X163400000Y-136041641D03*
D11*
X159600000Y-136041641D03*
%TD*%
D12*
%TO.C,SW55*%
X290250000Y-144700000D03*
X302250000Y-146900000D03*
%TD*%
%TO.C,SW47*%
X238500000Y-93700000D03*
X250500000Y-95900000D03*
%TD*%
D10*
%TO.C,D27*%
X172400000Y-119041649D03*
D11*
X168600000Y-119041649D03*
%TD*%
D12*
%TO.C,SW28*%
X171000000Y-144700000D03*
X183000000Y-146900000D03*
%TD*%
%TO.C,SW20*%
X130500000Y-93700000D03*
X142500000Y-95900000D03*
%TD*%
%TO.C,SW52*%
X256500000Y-93700000D03*
X268500000Y-95900000D03*
%TD*%
D10*
%TO.C,D59*%
X284900000Y-85041665D03*
D11*
X281100000Y-85041665D03*
%TD*%
D12*
%TO.C,SW51*%
X283500000Y-161700000D03*
X295500000Y-163900000D03*
%TD*%
%TO.C,SW19*%
X135000000Y-144700000D03*
X147000000Y-146900000D03*
%TD*%
D10*
%TO.C,D34*%
X199400000Y-136041641D03*
D11*
X195600000Y-136041641D03*
%TD*%
M02*
