M48
; DRILL file {KiCad (7.0.0-0)} date Monday, February 20, 2023 at 06:35:34 PM
; FORMAT={-:-/ absolute / inch / decimal}
; #@! TF.CreationDate,2023-02-20T18:35:34-08:00
; #@! TF.GenerationSoftware,Kicad,Pcbnew,(7.0.0-0)
; #@! TF.FileFunction,Plated,1,2,PTH
FMAT,2
INCH
; #@! TA.AperFunction,Plated,PTH,ViaDrill
T1C0.0118
; #@! TA.AperFunction,Plated,PTH,ComponentDrill
T2C0.0236
; #@! TA.AperFunction,Plated,PTH,ComponentDrill
T3C0.1260
%
G90
G05
T1
X2.77Y-3.78
X2.87Y-6.45
X2.95Y-4.45
X3.04Y-5.11
X3.22Y-5.78
X3.48Y-3.78
X3.75Y-6.45
X3.84Y-4.45
X4.02Y-5.11
X4.19Y-3.78
X4.37Y-5.78
X4.55Y-4.45
X4.64Y-6.45
X4.73Y-5.11
X4.9Y-3.78
X5.08Y-5.78
X5.26Y-4.45
X5.44Y-5.11
X5.61Y-3.78
X5.79Y-5.78
X5.8Y-6.45
X5.97Y-4.45
X6.14Y-5.11
X6.32Y-3.78
X6.5Y-5.78
X6.68Y-4.45
X6.85Y-5.11
X7.03Y-3.78
X7.21Y-5.78
X7.3Y-6.45
X7.38Y-4.45
X7.56Y-5.11
X7.74Y-3.78
X7.91Y-5.78
X8.09Y-4.45
X8.27Y-5.11
X8.445Y-3.78
X8.62Y-5.78
X8.79Y-6.45
X8.8Y-4.45
X8.98Y-5.11
X9.15Y-3.78
X9.33Y-5.79
X9.51Y-4.45
X9.69Y-5.11
X9.86Y-3.78
X9.95Y-6.45
X10.04Y-5.79
X10.22Y-4.45
X10.4Y-5.11
X10.57Y-3.78
X10.75Y-5.79
X10.84Y-6.45
X10.93Y-4.45
X11.1Y-5.11
X11.28Y-3.78
X11.635Y-6.455
X11.64Y-4.45
X11.9Y-5.78
X12.08Y-5.115
X12.165Y-3.775
X12.345Y-4.45
X12.52Y-6.455
X13.23Y-5.785
X13.23Y-6.46
X13.94Y-6.46
T2
X12.8884Y-3.7041
X12.8884Y-3.7541
X12.8884Y-3.8041
X12.8884Y-3.8541
X12.8884Y-3.9041
X12.8884Y-3.9541
X12.8884Y-4.0041
X12.8884Y-4.0541
X12.8884Y-4.1041
X12.8884Y-4.1541
X12.9384Y-3.7041
X12.9384Y-3.7541
X12.9384Y-3.8041
X12.9384Y-3.8541
X12.9384Y-3.9041
X12.9384Y-3.9541
X12.9384Y-4.0041
X12.9384Y-4.0541
X12.9384Y-4.1041
X12.9384Y-4.1541
X13.9514Y-3.7041
X13.9514Y-3.7541
X13.9514Y-3.8041
X13.9514Y-3.8541
X13.9514Y-3.9041
X13.9514Y-3.9541
X13.9514Y-4.0041
X13.9514Y-4.0541
X13.9514Y-4.1041
X13.9514Y-4.1541
X14.0014Y-3.7041
X14.0014Y-3.7541
X14.0014Y-3.8041
X14.0014Y-3.8541
X14.0014Y-3.9041
X14.0014Y-3.9541
X14.0014Y-4.0041
X14.0014Y-4.0541
X14.0014Y-4.1041
X14.0014Y-4.1541
T3
X3.2579Y-4.0354
X3.5531Y-5.8071
X7.9035Y-6.4469
X12.2343Y-5.8071
X13.1693Y-3.5925
T0
M30
