M48
; DRILL file {KiCad (7.0.0-0)} date Saturday, March 04, 2023 at 04:40:43 PM
; FORMAT={-:-/ absolute / inch / decimal}
; #@! TF.CreationDate,2023-03-04T16:40:43-08:00
; #@! TF.GenerationSoftware,Kicad,Pcbnew,(7.0.0-0)
; #@! TF.FileFunction,NonPlated,1,2,NPTH
FMAT,2
INCH
; #@! TA.AperFunction,NonPlated,NPTH,ComponentDrill
T1C0.0669
; #@! TA.AperFunction,NonPlated,NPTH,ComponentDrill
T2C0.1181
; #@! TA.AperFunction,NonPlated,NPTH,ComponentDrill
T3C0.1339
%
G90
G05
T1
X2.4213Y-3.5433
X2.5098Y-6.2205
X2.5984Y-4.2126
X2.687Y-4.8819
X2.8543Y-3.5433
X2.8642Y-5.5512
X2.9429Y-6.2205
X3.0315Y-4.2126
X3.1201Y-4.8819
X3.1299Y-3.5433
X3.2972Y-5.5512
X3.3957Y-6.2205
X3.4843Y-4.2126
X3.563Y-3.5433
X3.6614Y-4.8819
X3.8287Y-6.2205
X3.8386Y-3.5433
X3.9173Y-4.2126
X4.0157Y-5.5512
X4.0945Y-4.8819
X4.1929Y-4.2126
X4.2717Y-3.5433
X4.2815Y-6.2205
X4.3701Y-4.8819
X4.4488Y-5.5512
X4.5472Y-3.5433
X4.626Y-4.2126
X4.7146Y-6.2205
X4.7244Y-5.5512
X4.8031Y-4.8819
X4.9016Y-4.2126
X4.9803Y-3.5433
X5.0787Y-4.8819
X5.1575Y-5.5512
X5.2559Y-3.5433
X5.3346Y-4.2126
X5.4331Y-5.5512
X5.4429Y-6.2205
X5.5118Y-4.8819
X5.6102Y-4.2126
X5.689Y-3.5433
X5.7874Y-4.8819
X5.8661Y-5.5512
X5.876Y-6.2205
X5.9646Y-3.5433
X6.0433Y-4.2126
X6.1417Y-5.5512
X6.2205Y-4.8819
X6.3189Y-4.2126
X6.3976Y-3.5433
X6.4961Y-4.8819
X6.5748Y-5.5512
X6.6732Y-3.5433
X6.752Y-4.2126
X6.8504Y-5.5512
X6.9291Y-4.8819
X6.939Y-6.2205
X7.0276Y-4.2126
X7.1063Y-3.5433
X7.2047Y-4.8819
X7.2835Y-5.5512
X7.372Y-6.2205
X7.3819Y-3.5433
X7.4606Y-4.2126
X7.5591Y-5.5512
X7.6378Y-4.8819
X7.7362Y-4.2126
X7.815Y-3.5433
X7.9134Y-4.8819
X7.9921Y-5.5512
X8.0906Y-3.5433
X8.1693Y-4.2126
X8.2677Y-5.5512
X8.3465Y-4.8819
X8.435Y-6.2205
X8.4449Y-4.2126
X8.5236Y-3.5433
X8.622Y-4.8819
X8.7008Y-5.5512
X8.7992Y-3.5433
X8.8681Y-6.2205
X8.878Y-4.2126
X8.9764Y-5.5512
X9.0551Y-4.8819
X9.1535Y-4.2126
X9.2323Y-3.5433
X9.3307Y-4.8819
X9.4094Y-5.5512
X9.5079Y-3.5433
X9.5866Y-4.2126
X9.5965Y-6.2205
X9.685Y-5.5512
X9.7638Y-4.8819
X9.8622Y-4.2126
X9.9409Y-3.5433
X10.0295Y-6.2205
X10.0394Y-4.8819
X10.1181Y-5.5512
X10.2165Y-3.5433
X10.2953Y-4.2126
X10.3937Y-5.5512
X10.4724Y-4.8819
X10.4823Y-6.2205
X10.5709Y-4.2126
X10.6496Y-3.5433
X10.748Y-4.8819
X10.8268Y-5.5512
X10.9154Y-6.2205
X10.9252Y-3.5433
X11.0039Y-4.2126
X11.1811Y-4.8819
X11.2795Y-4.2126
X11.2795Y-6.2205
X11.3583Y-3.5433
X11.5453Y-5.5512
X11.7126Y-4.2126
X11.7126Y-6.2205
X11.7224Y-4.8819
X11.811Y-3.5433
X11.9783Y-5.5512
X11.9882Y-4.2126
X12.1555Y-4.8819
X12.1654Y-6.2205
X12.2441Y-3.5433
X12.4213Y-4.2126
X12.5984Y-6.2205
X12.874Y-5.5512
X12.874Y-6.2205
X13.3071Y-5.5512
X13.3071Y-6.2205
X13.5827Y-6.2205
X14.0157Y-6.2205
T2
X2.4409Y-3.6929
X2.5295Y-6.3701
X2.6181Y-4.3622
X2.6378Y-3.7756
X2.7067Y-5.0315
X2.7264Y-6.4528
X2.815Y-4.4449
X2.8839Y-5.7008
X2.9035Y-5.1142
X3.0807Y-5.7835
X3.1496Y-3.6929
X3.3465Y-3.7756
X3.4154Y-6.3701
X3.5039Y-4.3622
X3.6122Y-6.4528
X3.6811Y-5.0315
X3.7008Y-4.4449
X3.8583Y-3.6929
X3.878Y-5.1142
X4.0354Y-5.7008
X4.0551Y-3.7756
X4.2126Y-4.3622
X4.2323Y-5.7835
X4.3012Y-6.3701
X4.3898Y-5.0315
X4.4094Y-4.4449
X4.498Y-6.4528
X4.5669Y-3.6929
X4.5866Y-5.1142
X4.7441Y-5.7008
X4.7638Y-3.7756
X4.9213Y-4.3622
X4.9409Y-5.7835
X5.0984Y-5.0315
X5.1181Y-4.4449
X5.2756Y-3.6929
X5.2953Y-5.1142
X5.4528Y-5.7008
X5.4626Y-6.3701
X5.4724Y-3.7756
X5.6299Y-4.3622
X5.6496Y-5.7835
X5.6594Y-6.4528
X5.8071Y-5.0315
X5.8268Y-4.4449
X5.9843Y-3.6929
X6.0039Y-5.1142
X6.1614Y-5.7008
X6.1811Y-3.7756
X6.3386Y-4.3622
X6.3583Y-5.7835
X6.5157Y-5.0315
X6.5354Y-4.4449
X6.6929Y-3.6929
X6.7126Y-5.1142
X6.8701Y-5.7008
X6.8898Y-3.7756
X6.9587Y-6.3701
X7.0472Y-4.3622
X7.0669Y-5.7835
X7.1555Y-6.4528
X7.2244Y-5.0315
X7.2441Y-4.4449
X7.4016Y-3.6929
X7.4213Y-5.1142
X7.5787Y-5.7008
X7.5984Y-3.7756
X7.7559Y-4.3622
X7.7756Y-5.7835
X7.9331Y-5.0315
X7.9528Y-4.4449
X8.1102Y-3.6929
X8.1299Y-5.1142
X8.2874Y-5.7008
X8.3071Y-3.7756
X8.4547Y-6.3701
X8.4646Y-4.3622
X8.4843Y-5.7835
X8.6417Y-5.0315
X8.6516Y-6.4528
X8.6614Y-4.4449
X8.8189Y-3.6929
X8.8386Y-5.1142
X8.9961Y-5.7008
X9.0157Y-3.7756
X9.1732Y-4.3622
X9.1929Y-5.7835
X9.3504Y-5.0315
X9.3701Y-4.4449
X9.5276Y-3.6929
X9.5472Y-5.1142
X9.6161Y-6.3701
X9.7047Y-5.7008
X9.7244Y-3.7756
X9.813Y-6.4528
X9.8819Y-4.3622
X9.9016Y-5.7835
X10.0591Y-5.0315
X10.0787Y-4.4449
X10.2362Y-3.6929
X10.2559Y-5.1142
X10.4134Y-5.7008
X10.4331Y-3.7756
X10.502Y-6.3701
X10.5906Y-4.3622
X10.6102Y-5.7835
X10.6988Y-6.4528
X10.7677Y-5.0315
X10.7874Y-4.4449
X10.9449Y-3.6929
X10.9646Y-5.1142
X11.1417Y-3.7756
X11.2992Y-4.3622
X11.2992Y-6.3701
X11.4961Y-4.4449
X11.4961Y-6.4528
X11.565Y-5.7008
X11.7421Y-5.0315
X11.7618Y-5.7835
X11.8307Y-3.6929
X11.939Y-5.1142
X12.0079Y-4.3622
X12.0276Y-3.7756
X12.185Y-6.3701
X12.2047Y-4.4449
X12.3819Y-6.4528
X12.8937Y-5.7008
X12.8937Y-6.3701
X13.0906Y-5.7835
X13.0906Y-6.4528
X13.6024Y-6.3701
X13.7992Y-6.4528
T3
X2.6378Y-3.5433
X2.7264Y-6.2205
X2.815Y-4.2126
X2.9035Y-4.8819
X3.0807Y-5.5512
X3.3465Y-3.5433
X3.6122Y-6.2205
X3.7008Y-4.2126
X3.878Y-4.8819
X4.0551Y-3.5433
X4.2323Y-5.5512
X4.4094Y-4.2126
X4.498Y-6.2205
X4.5866Y-4.8819
X4.7638Y-3.5433
X4.9409Y-5.5512
X5.1181Y-4.2126
X5.2953Y-4.8819
X5.4724Y-3.5433
X5.6496Y-5.5512
X5.6594Y-6.2205
X5.8268Y-4.2126
X6.0039Y-4.8819
X6.1811Y-3.5433
X6.3583Y-5.5512
X6.5354Y-4.2126
X6.7126Y-4.8819
X6.8898Y-3.5433
X7.0669Y-5.5512
X7.1555Y-6.2205
X7.2441Y-4.2126
X7.4213Y-4.8819
X7.5984Y-3.5433
X7.7756Y-5.5512
X7.9528Y-4.2126
X8.1299Y-4.8819
X8.3071Y-3.5433
X8.4843Y-5.5512
X8.6516Y-6.2205
X8.6614Y-4.2126
X8.8386Y-4.8819
X9.0157Y-3.5433
X9.1929Y-5.5512
X9.3701Y-4.2126
X9.5472Y-4.8819
X9.7244Y-3.5433
X9.813Y-6.2205
X9.9016Y-5.5512
X10.0787Y-4.2126
X10.2559Y-4.8819
X10.4331Y-3.5433
X10.6102Y-5.5512
X10.6988Y-6.2205
X10.7874Y-4.2126
X10.9646Y-4.8819
X11.1417Y-3.5433
X11.4961Y-4.2126
X11.4961Y-6.2205
X11.7618Y-5.5512
X11.939Y-4.8819
X12.0276Y-3.5433
X12.2047Y-4.2126
X12.3819Y-6.2205
X13.0906Y-5.5512
X13.0906Y-6.2205
X13.7992Y-6.2205
T0
M30
