%TF.GenerationSoftware,KiCad,Pcbnew,(7.0.0-0)*%
%TF.CreationDate,2023-02-20T18:35:34-08:00*%
%TF.ProjectId,mt-choc,6d742d63-686f-4632-9e6b-696361645f70,v1.0*%
%TF.SameCoordinates,Original*%
%TF.FileFunction,Soldermask,Bot*%
%TF.FilePolarity,Negative*%
%FSLAX46Y46*%
G04 Gerber Fmt 4.6, Leading zero omitted, Abs format (unit mm)*
G04 Created by KiCad (PCBNEW (7.0.0-0)) date 2023-02-20 18:35:34*
%MOMM*%
%LPD*%
G01*
G04 APERTURE LIST*
G04 Aperture macros list*
%AMRoundRect*
0 Rectangle with rounded corners*
0 $1 Rounding radius*
0 $2 $3 $4 $5 $6 $7 $8 $9 X,Y pos of 4 corners*
0 Add a 4 corners polygon primitive as box body*
4,1,4,$2,$3,$4,$5,$6,$7,$8,$9,$2,$3,0*
0 Add four circle primitives for the rounded corners*
1,1,$1+$1,$2,$3*
1,1,$1+$1,$4,$5*
1,1,$1+$1,$6,$7*
1,1,$1+$1,$8,$9*
0 Add four rect primitives between the rounded corners*
20,1,$1+$1,$2,$3,$4,$5,0*
20,1,$1+$1,$4,$5,$6,$7,0*
20,1,$1+$1,$6,$7,$8,$9,0*
20,1,$1+$1,$8,$9,$2,$3,0*%
G04 Aperture macros list end*
%ADD10RoundRect,0.100000X-0.500000X-0.500000X0.500000X-0.500000X0.500000X0.500000X-0.500000X0.500000X0*%
%ADD11C,1.200000*%
%ADD12RoundRect,0.100000X0.500000X0.500000X-0.500000X0.500000X-0.500000X-0.500000X0.500000X-0.500000X0*%
%ADD13RoundRect,0.450000X-0.450000X-0.350000X0.450000X-0.350000X0.450000X0.350000X-0.450000X0.350000X0*%
%ADD14RoundRect,0.450000X0.450000X0.350000X-0.450000X0.350000X-0.450000X-0.350000X0.450000X-0.350000X0*%
%ADD15C,1.900000*%
%ADD16C,3.200000*%
%ADD17C,3.600000*%
%ADD18RoundRect,0.350000X-1.025000X-1.000000X1.025000X-1.000000X1.025000X1.000000X-1.025000X1.000000X0*%
%ADD19C,4.600000*%
G04 APERTURE END LIST*
D10*
%TO.C,U1*%
X355636116Y-94083038D03*
D11*
X354366116Y-94083038D03*
X355636116Y-95353038D03*
X354366116Y-95353038D03*
X355636116Y-96623038D03*
X354366116Y-96623038D03*
X355636116Y-97893038D03*
X354366116Y-97893038D03*
X355636116Y-99163038D03*
X354366116Y-99163038D03*
X355636116Y-100433038D03*
X354366116Y-100433038D03*
X355636116Y-101703038D03*
X354366116Y-101703038D03*
X355636116Y-102973038D03*
X354366116Y-102973038D03*
X355636116Y-104243038D03*
X354366116Y-104243038D03*
X355636116Y-105513038D03*
X354366116Y-105513038D03*
D12*
X327366116Y-105513038D03*
D11*
X328636116Y-105513038D03*
X327366116Y-104243038D03*
X328636116Y-104243038D03*
X327366116Y-102973038D03*
X328636116Y-102973038D03*
X327366116Y-101703038D03*
X328636116Y-101703038D03*
X327366116Y-100433038D03*
X328636116Y-100433038D03*
X327366116Y-99163038D03*
X328636116Y-99163038D03*
X327366116Y-97893038D03*
X328636116Y-97893038D03*
X327366116Y-96623038D03*
X328636116Y-96623038D03*
X327366116Y-95353038D03*
X328636116Y-95353038D03*
X327366116Y-94083038D03*
X328636116Y-94083038D03*
%TD*%
D13*
%TO.C,D25*%
X158900000Y-85041665D03*
D14*
X155100000Y-85041665D03*
%TD*%
D13*
%TO.C,D12*%
X113900000Y-102041657D03*
D14*
X110100000Y-102041657D03*
%TD*%
D13*
%TO.C,D38*%
X217400000Y-136041641D03*
D14*
X213600000Y-136041641D03*
%TD*%
D15*
%TO.C,SW10*%
X86250000Y-158000000D03*
D16*
X86750000Y-161800000D03*
D17*
X91750000Y-158000000D03*
D16*
X91750000Y-163900000D03*
D15*
X97250000Y-158000000D03*
D18*
X83250000Y-161700000D03*
X95250000Y-163900000D03*
%TD*%
D13*
%TO.C,D1*%
X68900000Y-85041665D03*
D14*
X65100000Y-85041665D03*
%TD*%
D15*
%TO.C,SW39*%
X219000000Y-124000000D03*
D16*
X219500000Y-127800000D03*
D17*
X224500000Y-124000000D03*
D16*
X224500000Y-129900000D03*
D15*
X230000000Y-124000000D03*
D18*
X216000000Y-127700000D03*
X228000000Y-129900000D03*
%TD*%
D15*
%TO.C,SW33*%
X187500000Y-90000000D03*
D16*
X188000000Y-93800000D03*
D17*
X193000000Y-90000000D03*
D16*
X193000000Y-95900000D03*
D15*
X198500000Y-90000000D03*
D18*
X184500000Y-93700000D03*
X196500000Y-95900000D03*
%TD*%
D15*
%TO.C,SW40*%
X228000000Y-141000000D03*
D16*
X228500000Y-144800000D03*
D17*
X233500000Y-141000000D03*
D16*
X233500000Y-146900000D03*
D15*
X239000000Y-141000000D03*
D18*
X225000000Y-144700000D03*
X237000000Y-146900000D03*
%TD*%
D13*
%TO.C,D50*%
X257900000Y-102041657D03*
D14*
X254100000Y-102041657D03*
%TD*%
D13*
%TO.C,D11*%
X104900000Y-85041665D03*
D14*
X101100000Y-85041665D03*
%TD*%
D15*
%TO.C,SW56*%
X309000000Y-158000000D03*
D16*
X309500000Y-161800000D03*
D17*
X314500000Y-158000000D03*
D16*
X314500000Y-163900000D03*
D15*
X320000000Y-158000000D03*
D18*
X306000000Y-161700000D03*
X318000000Y-163900000D03*
%TD*%
D15*
%TO.C,SW18*%
X129000000Y-124000000D03*
D16*
X129500000Y-127800000D03*
D17*
X134500000Y-124000000D03*
D16*
X134500000Y-129900000D03*
D15*
X140000000Y-124000000D03*
D18*
X126000000Y-127700000D03*
X138000000Y-129900000D03*
%TD*%
D15*
%TO.C,SW44*%
X237000000Y-124000000D03*
D16*
X237500000Y-127800000D03*
D17*
X242500000Y-124000000D03*
D16*
X242500000Y-129900000D03*
D15*
X248000000Y-124000000D03*
D18*
X234000000Y-127700000D03*
X246000000Y-129900000D03*
%TD*%
D13*
%TO.C,D18*%
X136400000Y-119041649D03*
D14*
X132600000Y-119041649D03*
%TD*%
D13*
%TO.C,D9*%
X109400000Y-136041641D03*
D14*
X105600000Y-136041641D03*
%TD*%
D13*
%TO.C,D55*%
X275900000Y-102041657D03*
D14*
X272100000Y-102041657D03*
%TD*%
D19*
%TO.C,H1*%
X82750000Y-102500000D03*
%TD*%
D13*
%TO.C,D61*%
X305150000Y-119041649D03*
D14*
X301350000Y-119041649D03*
%TD*%
D13*
%TO.C,D63*%
X334400000Y-153041633D03*
D14*
X330600000Y-153041633D03*
%TD*%
D15*
%TO.C,SW36*%
X210000000Y-141000000D03*
D16*
X210500000Y-144800000D03*
D17*
X215500000Y-141000000D03*
D16*
X215500000Y-146900000D03*
D15*
X221000000Y-141000000D03*
D18*
X207000000Y-144700000D03*
X219000000Y-146900000D03*
%TD*%
D13*
%TO.C,D40*%
X221900000Y-102041657D03*
D14*
X218100000Y-102041657D03*
%TD*%
D15*
%TO.C,SW63*%
X304500000Y-107000000D03*
D16*
X305000000Y-110800000D03*
D17*
X310000000Y-107000000D03*
D16*
X310000000Y-112900000D03*
D15*
X315500000Y-107000000D03*
D18*
X301500000Y-110700000D03*
X313500000Y-112900000D03*
%TD*%
D15*
%TO.C,SW25*%
X151500000Y-90000000D03*
D16*
X152000000Y-93800000D03*
D17*
X157000000Y-90000000D03*
D16*
X157000000Y-95900000D03*
D15*
X162500000Y-90000000D03*
D18*
X148500000Y-93700000D03*
X160500000Y-95900000D03*
%TD*%
D15*
%TO.C,SW16*%
X115500000Y-90000000D03*
D16*
X116000000Y-93800000D03*
D17*
X121000000Y-90000000D03*
D16*
X121000000Y-95900000D03*
D15*
X126500000Y-90000000D03*
D18*
X112500000Y-93700000D03*
X124500000Y-95900000D03*
%TD*%
D19*
%TO.C,H5*%
X310750000Y-147500000D03*
%TD*%
D13*
%TO.C,D3*%
X75650000Y-119041649D03*
D14*
X71850000Y-119041649D03*
%TD*%
D13*
%TO.C,D14*%
X127400000Y-136041641D03*
D14*
X123600000Y-136041641D03*
%TD*%
D13*
%TO.C,D28*%
X181400000Y-136041641D03*
D14*
X177600000Y-136041641D03*
%TD*%
D13*
%TO.C,D7*%
X95900000Y-102041657D03*
D14*
X92100000Y-102041657D03*
%TD*%
D15*
%TO.C,SW41*%
X243750000Y-158000000D03*
D16*
X244250000Y-161800000D03*
D17*
X249250000Y-158000000D03*
D16*
X249250000Y-163900000D03*
D15*
X254750000Y-158000000D03*
D18*
X240750000Y-161700000D03*
X252750000Y-163900000D03*
%TD*%
D13*
%TO.C,D47*%
X253400000Y-136041641D03*
D14*
X249600000Y-136041641D03*
%TD*%
D13*
%TO.C,D57*%
X300650000Y-136041641D03*
D14*
X296850000Y-136041641D03*
%TD*%
D15*
%TO.C,SW38*%
X214500000Y-107000000D03*
D16*
X215000000Y-110800000D03*
D17*
X220000000Y-107000000D03*
D16*
X220000000Y-112900000D03*
D15*
X225500000Y-107000000D03*
D18*
X211500000Y-110700000D03*
X223500000Y-112900000D03*
%TD*%
D15*
%TO.C,SW62*%
X300000000Y-90000000D03*
D16*
X300500000Y-93800000D03*
D17*
X305500000Y-90000000D03*
D16*
X305500000Y-95900000D03*
D15*
X311000000Y-90000000D03*
D18*
X297000000Y-93700000D03*
X309000000Y-95900000D03*
%TD*%
D15*
%TO.C,SW26*%
X160500000Y-107000000D03*
D16*
X161000000Y-110800000D03*
D17*
X166000000Y-107000000D03*
D16*
X166000000Y-112900000D03*
D15*
X171500000Y-107000000D03*
D18*
X157500000Y-110700000D03*
X169500000Y-112900000D03*
%TD*%
D15*
%TO.C,SW48*%
X250500000Y-107000000D03*
D16*
X251000000Y-110800000D03*
D17*
X256000000Y-107000000D03*
D16*
X256000000Y-112900000D03*
D15*
X261500000Y-107000000D03*
D18*
X247500000Y-110700000D03*
X259500000Y-112900000D03*
%TD*%
D13*
%TO.C,D62*%
X334400000Y-136041641D03*
D14*
X330600000Y-136041641D03*
%TD*%
D13*
%TO.C,D16*%
X122900000Y-85041665D03*
D14*
X119100000Y-85041665D03*
%TD*%
D15*
%TO.C,SW11*%
X97500000Y-90000000D03*
D16*
X98000000Y-93800000D03*
D17*
X103000000Y-90000000D03*
D16*
X103000000Y-95900000D03*
D15*
X108500000Y-90000000D03*
D18*
X94500000Y-93700000D03*
X106500000Y-95900000D03*
%TD*%
D19*
%TO.C,H2*%
X90250000Y-147500000D03*
%TD*%
D13*
%TO.C,D19*%
X145400000Y-136041641D03*
D14*
X141600000Y-136041641D03*
%TD*%
D13*
%TO.C,D42*%
X235400000Y-136041641D03*
D14*
X231600000Y-136041641D03*
%TD*%
D13*
%TO.C,D24*%
X145400000Y-153041633D03*
D14*
X141600000Y-153041633D03*
%TD*%
D13*
%TO.C,D44*%
X230900000Y-85041665D03*
D14*
X227100000Y-85041665D03*
%TD*%
D15*
%TO.C,SW21*%
X142500000Y-107000000D03*
D16*
X143000000Y-110800000D03*
D17*
X148000000Y-107000000D03*
D16*
X148000000Y-112900000D03*
D15*
X153500000Y-107000000D03*
D18*
X139500000Y-110700000D03*
X151500000Y-112900000D03*
%TD*%
D15*
%TO.C,SW54*%
X273000000Y-124000000D03*
D16*
X273500000Y-127800000D03*
D17*
X278500000Y-124000000D03*
D16*
X278500000Y-129900000D03*
D15*
X284000000Y-124000000D03*
D18*
X270000000Y-127700000D03*
X282000000Y-129900000D03*
%TD*%
D13*
%TO.C,D45*%
X239900000Y-102041657D03*
D14*
X236100000Y-102041657D03*
%TD*%
D15*
%TO.C,SW57*%
X277500000Y-90000000D03*
D16*
X278000000Y-93800000D03*
D17*
X283000000Y-90000000D03*
D16*
X283000000Y-95900000D03*
D15*
X288500000Y-90000000D03*
D18*
X274500000Y-93700000D03*
X286500000Y-95900000D03*
%TD*%
D13*
%TO.C,D29*%
X183650000Y-153041633D03*
D14*
X179850000Y-153041633D03*
%TD*%
D13*
%TO.C,D51*%
X262400000Y-119041649D03*
D14*
X258600000Y-119041649D03*
%TD*%
D15*
%TO.C,SW24*%
X138250000Y-158000000D03*
D16*
X138750000Y-161800000D03*
D17*
X143750000Y-158000000D03*
D16*
X143750000Y-163900000D03*
D15*
X149250000Y-158000000D03*
X176250000Y-158000000D03*
D16*
X176750000Y-161800000D03*
D17*
X181750000Y-158000000D03*
D16*
X181750000Y-163900000D03*
D15*
X187250000Y-158000000D03*
X214250000Y-158000000D03*
D16*
X214750000Y-161800000D03*
D17*
X219750000Y-158000000D03*
D16*
X219750000Y-163900000D03*
D15*
X225250000Y-158000000D03*
D18*
X135250000Y-161700000D03*
X147250000Y-163900000D03*
X173250000Y-161700000D03*
X185250000Y-163900000D03*
X211250000Y-161700000D03*
X223250000Y-163900000D03*
%TD*%
D13*
%TO.C,D21*%
X149900000Y-102041657D03*
D14*
X146100000Y-102041657D03*
%TD*%
D13*
%TO.C,D58*%
X316400000Y-153041633D03*
D14*
X312600000Y-153041633D03*
%TD*%
D13*
%TO.C,D60*%
X293900000Y-102041657D03*
D14*
X290100000Y-102041657D03*
%TD*%
D15*
%TO.C,SW8*%
X93000000Y-124000000D03*
D16*
X93500000Y-127800000D03*
D17*
X98500000Y-124000000D03*
D16*
X98500000Y-129900000D03*
D15*
X104000000Y-124000000D03*
D18*
X90000000Y-127700000D03*
X102000000Y-129900000D03*
%TD*%
D15*
%TO.C,SW3*%
X68250000Y-124000000D03*
D16*
X68750000Y-127800000D03*
D17*
X73750000Y-124000000D03*
D16*
X73750000Y-129900000D03*
D15*
X79250000Y-124000000D03*
D18*
X65250000Y-127700000D03*
X77250000Y-129900000D03*
%TD*%
D13*
%TO.C,D41*%
X226400000Y-119041649D03*
D14*
X222600000Y-119041649D03*
%TD*%
D13*
%TO.C,D31*%
X176900000Y-85041665D03*
D14*
X173100000Y-85041665D03*
%TD*%
D15*
%TO.C,SW35*%
X201000000Y-124000000D03*
D16*
X201500000Y-127800000D03*
D17*
X206500000Y-124000000D03*
D16*
X206500000Y-129900000D03*
D15*
X212000000Y-124000000D03*
D18*
X198000000Y-127700000D03*
X210000000Y-129900000D03*
%TD*%
D19*
%TO.C,H4*%
X334500000Y-91250000D03*
%TD*%
D13*
%TO.C,D39*%
X212900000Y-85041665D03*
D14*
X209100000Y-85041665D03*
%TD*%
D15*
%TO.C,SW9*%
X102000000Y-141000000D03*
D16*
X102500000Y-144800000D03*
D17*
X107500000Y-141000000D03*
D16*
X107500000Y-146900000D03*
D15*
X113000000Y-141000000D03*
D18*
X99000000Y-144700000D03*
X111000000Y-146900000D03*
%TD*%
D13*
%TO.C,D52*%
X271400000Y-136041641D03*
D14*
X267600000Y-136041641D03*
%TD*%
D15*
%TO.C,SW15*%
X108750000Y-158000000D03*
D16*
X109250000Y-161800000D03*
D17*
X114250000Y-158000000D03*
D16*
X114250000Y-163900000D03*
D15*
X119750000Y-158000000D03*
D18*
X105750000Y-161700000D03*
X117750000Y-163900000D03*
%TD*%
D15*
%TO.C,SW4*%
X72750000Y-141000000D03*
D16*
X73250000Y-144800000D03*
D17*
X78250000Y-141000000D03*
D16*
X78250000Y-146900000D03*
D15*
X83750000Y-141000000D03*
D18*
X69750000Y-144700000D03*
X81750000Y-146900000D03*
%TD*%
D13*
%TO.C,D26*%
X167900000Y-102041657D03*
D14*
X164100000Y-102041657D03*
%TD*%
D13*
%TO.C,D10*%
X93650000Y-153041633D03*
D14*
X89850000Y-153041633D03*
%TD*%
D15*
%TO.C,SW49*%
X255000000Y-124000000D03*
D16*
X255500000Y-127800000D03*
D17*
X260500000Y-124000000D03*
D16*
X260500000Y-129900000D03*
D15*
X266000000Y-124000000D03*
D18*
X252000000Y-127700000D03*
X264000000Y-129900000D03*
%TD*%
D13*
%TO.C,D49*%
X248900000Y-85041665D03*
D14*
X245100000Y-85041665D03*
%TD*%
D15*
%TO.C,SW42*%
X223500000Y-90000000D03*
D16*
X224000000Y-93800000D03*
D17*
X229000000Y-90000000D03*
D16*
X229000000Y-95900000D03*
D15*
X234500000Y-90000000D03*
D18*
X220500000Y-93700000D03*
X232500000Y-95900000D03*
%TD*%
D13*
%TO.C,D33*%
X190400000Y-119041649D03*
D14*
X186600000Y-119041649D03*
%TD*%
D15*
%TO.C,SW53*%
X268500000Y-107000000D03*
D16*
X269000000Y-110800000D03*
D17*
X274000000Y-107000000D03*
D16*
X274000000Y-112900000D03*
D15*
X279500000Y-107000000D03*
D18*
X265500000Y-110700000D03*
X277500000Y-112900000D03*
%TD*%
D13*
%TO.C,D30*%
X221900000Y-153041633D03*
D14*
X218100000Y-153041633D03*
%TD*%
D13*
%TO.C,D37*%
X208400000Y-119041649D03*
D14*
X204600000Y-119041649D03*
%TD*%
D15*
%TO.C,SW1*%
X61500000Y-90000000D03*
D16*
X62000000Y-93800000D03*
D17*
X67000000Y-90000000D03*
D16*
X67000000Y-95900000D03*
D15*
X72500000Y-90000000D03*
D18*
X58500000Y-93700000D03*
X70500000Y-95900000D03*
%TD*%
D15*
%TO.C,SW43*%
X232500000Y-107000000D03*
D16*
X233000000Y-110800000D03*
D17*
X238000000Y-107000000D03*
D16*
X238000000Y-112900000D03*
D15*
X243500000Y-107000000D03*
D18*
X229500000Y-110700000D03*
X241500000Y-112900000D03*
%TD*%
D13*
%TO.C,D20*%
X140900000Y-85041665D03*
D14*
X137100000Y-85041665D03*
%TD*%
D15*
%TO.C,SW58*%
X286500000Y-107000000D03*
D16*
X287000000Y-110800000D03*
D17*
X292000000Y-107000000D03*
D16*
X292000000Y-112900000D03*
D15*
X297500000Y-107000000D03*
D18*
X283500000Y-110700000D03*
X295500000Y-112900000D03*
%TD*%
D13*
%TO.C,D48*%
X273650000Y-153041633D03*
D14*
X269850000Y-153041633D03*
%TD*%
D13*
%TO.C,D36*%
X203900000Y-102041657D03*
D14*
X200100000Y-102041657D03*
%TD*%
D15*
%TO.C,SW59*%
X297750000Y-124000000D03*
D16*
X298250000Y-127800000D03*
D17*
X303250000Y-124000000D03*
D16*
X303250000Y-129900000D03*
D15*
X308750000Y-124000000D03*
D18*
X294750000Y-127700000D03*
X306750000Y-129900000D03*
%TD*%
D15*
%TO.C,SW29*%
X169500000Y-90000000D03*
D16*
X170000000Y-93800000D03*
D17*
X175000000Y-90000000D03*
D16*
X175000000Y-95900000D03*
D15*
X180500000Y-90000000D03*
D18*
X166500000Y-93700000D03*
X178500000Y-95900000D03*
%TD*%
D13*
%TO.C,D6*%
X86900000Y-85041665D03*
D14*
X83100000Y-85041665D03*
%TD*%
D15*
%TO.C,SW7*%
X88500000Y-107000000D03*
D16*
X89000000Y-110800000D03*
D17*
X94000000Y-107000000D03*
D16*
X94000000Y-112900000D03*
D15*
X99500000Y-107000000D03*
D18*
X85500000Y-110700000D03*
X97500000Y-112900000D03*
%TD*%
D15*
%TO.C,SW34*%
X196500000Y-107000000D03*
D16*
X197000000Y-110800000D03*
D17*
X202000000Y-107000000D03*
D16*
X202000000Y-112900000D03*
D15*
X207500000Y-107000000D03*
D18*
X193500000Y-110700000D03*
X205500000Y-112900000D03*
%TD*%
D15*
%TO.C,SW22*%
X147000000Y-124000000D03*
D16*
X147500000Y-127800000D03*
D17*
X152500000Y-124000000D03*
D16*
X152500000Y-129900000D03*
D15*
X158000000Y-124000000D03*
D18*
X144000000Y-127700000D03*
X156000000Y-129900000D03*
%TD*%
D13*
%TO.C,D43*%
X251150000Y-153041633D03*
D14*
X247350000Y-153041633D03*
%TD*%
D15*
%TO.C,SW6*%
X79500000Y-90000000D03*
D16*
X80000000Y-93800000D03*
D17*
X85000000Y-90000000D03*
D16*
X85000000Y-95900000D03*
D15*
X90500000Y-90000000D03*
D18*
X76500000Y-93700000D03*
X88500000Y-95900000D03*
%TD*%
D15*
%TO.C,SW30*%
X178500000Y-107000000D03*
D16*
X179000000Y-110800000D03*
D17*
X184000000Y-107000000D03*
D16*
X184000000Y-112900000D03*
D15*
X189500000Y-107000000D03*
D18*
X175500000Y-110700000D03*
X187500000Y-112900000D03*
%TD*%
D15*
%TO.C,SW37*%
X205500000Y-90000000D03*
D16*
X206000000Y-93800000D03*
D17*
X211000000Y-90000000D03*
D16*
X211000000Y-95900000D03*
D15*
X216500000Y-90000000D03*
D18*
X202500000Y-93700000D03*
X214500000Y-95900000D03*
%TD*%
D15*
%TO.C,SW61*%
X327000000Y-158000000D03*
D16*
X327500000Y-161800000D03*
D17*
X332500000Y-158000000D03*
D16*
X332500000Y-163900000D03*
D15*
X338000000Y-158000000D03*
D18*
X324000000Y-161700000D03*
X336000000Y-163900000D03*
%TD*%
D15*
%TO.C,SW23*%
X156000000Y-141000000D03*
D16*
X156500000Y-144800000D03*
D17*
X161500000Y-141000000D03*
D16*
X161500000Y-146900000D03*
D15*
X167000000Y-141000000D03*
D18*
X153000000Y-144700000D03*
X165000000Y-146900000D03*
%TD*%
D19*
%TO.C,H3*%
X200750000Y-163750000D03*
%TD*%
D15*
%TO.C,SW31*%
X183000000Y-124000000D03*
D16*
X183500000Y-127800000D03*
D17*
X188500000Y-124000000D03*
D16*
X188500000Y-129900000D03*
D15*
X194000000Y-124000000D03*
D18*
X180000000Y-127700000D03*
X192000000Y-129900000D03*
%TD*%
D15*
%TO.C,SW46*%
X266250000Y-158000000D03*
D16*
X266750000Y-161800000D03*
D17*
X271750000Y-158000000D03*
D16*
X271750000Y-163900000D03*
D15*
X277250000Y-158000000D03*
D18*
X263250000Y-161700000D03*
X275250000Y-163900000D03*
%TD*%
D13*
%TO.C,D64*%
X307400000Y-85041665D03*
D14*
X303600000Y-85041665D03*
%TD*%
D13*
%TO.C,D66*%
X352400000Y-153041633D03*
D14*
X348600000Y-153041633D03*
%TD*%
D15*
%TO.C,SW14*%
X120000000Y-141000000D03*
D16*
X120500000Y-144800000D03*
D17*
X125500000Y-141000000D03*
D16*
X125500000Y-146900000D03*
D15*
X131000000Y-141000000D03*
D18*
X117000000Y-144700000D03*
X129000000Y-146900000D03*
%TD*%
D13*
%TO.C,D54*%
X266900000Y-85041665D03*
D14*
X263100000Y-85041665D03*
%TD*%
D13*
%TO.C,D46*%
X244400000Y-119041649D03*
D14*
X240600000Y-119041649D03*
%TD*%
D15*
%TO.C,SW50*%
X264000000Y-141000000D03*
D16*
X264500000Y-144800000D03*
D17*
X269500000Y-141000000D03*
D16*
X269500000Y-146900000D03*
D15*
X275000000Y-141000000D03*
D18*
X261000000Y-144700000D03*
X273000000Y-146900000D03*
%TD*%
D13*
%TO.C,D5*%
X71150000Y-153041633D03*
D14*
X67350000Y-153041633D03*
%TD*%
D15*
%TO.C,SW27*%
X165000000Y-124000000D03*
D16*
X165500000Y-127800000D03*
D17*
X170500000Y-124000000D03*
D16*
X170500000Y-129900000D03*
D15*
X176000000Y-124000000D03*
D18*
X162000000Y-127700000D03*
X174000000Y-129900000D03*
%TD*%
D15*
%TO.C,SW13*%
X111000000Y-124000000D03*
D16*
X111500000Y-127800000D03*
D17*
X116500000Y-124000000D03*
D16*
X116500000Y-129900000D03*
D15*
X122000000Y-124000000D03*
D18*
X108000000Y-127700000D03*
X120000000Y-129900000D03*
%TD*%
D15*
%TO.C,SW17*%
X124500000Y-107000000D03*
D16*
X125000000Y-110800000D03*
D17*
X130000000Y-107000000D03*
D16*
X130000000Y-112900000D03*
D15*
X135500000Y-107000000D03*
D18*
X121500000Y-110700000D03*
X133500000Y-112900000D03*
%TD*%
D15*
%TO.C,SW45*%
X246000000Y-141000000D03*
D16*
X246500000Y-144800000D03*
D17*
X251500000Y-141000000D03*
D16*
X251500000Y-146900000D03*
D15*
X257000000Y-141000000D03*
D18*
X243000000Y-144700000D03*
X255000000Y-146900000D03*
%TD*%
D13*
%TO.C,D22*%
X154400000Y-119041649D03*
D14*
X150600000Y-119041649D03*
%TD*%
D13*
%TO.C,D65*%
X311900000Y-102041657D03*
D14*
X308100000Y-102041657D03*
%TD*%
D13*
%TO.C,D4*%
X80150000Y-136041641D03*
D14*
X76350000Y-136041641D03*
%TD*%
D13*
%TO.C,D15*%
X116150000Y-153041633D03*
D14*
X112350000Y-153041633D03*
%TD*%
D15*
%TO.C,SW2*%
X66000000Y-107000000D03*
D16*
X66500000Y-110800000D03*
D17*
X71500000Y-107000000D03*
D16*
X71500000Y-112900000D03*
D15*
X77000000Y-107000000D03*
D18*
X63000000Y-110700000D03*
X75000000Y-112900000D03*
%TD*%
D13*
%TO.C,D2*%
X73400000Y-102041657D03*
D14*
X69600000Y-102041657D03*
%TD*%
D13*
%TO.C,D17*%
X131900000Y-102041657D03*
D14*
X128100000Y-102041657D03*
%TD*%
D15*
%TO.C,SW5*%
X63750000Y-158000000D03*
D16*
X64250000Y-161800000D03*
D17*
X69250000Y-158000000D03*
D16*
X69250000Y-163900000D03*
D15*
X74750000Y-158000000D03*
D18*
X60750000Y-161700000D03*
X72750000Y-163900000D03*
%TD*%
D15*
%TO.C,SW64*%
X345000000Y-158000000D03*
D16*
X345500000Y-161800000D03*
D17*
X350500000Y-158000000D03*
D16*
X350500000Y-163900000D03*
D15*
X356000000Y-158000000D03*
D18*
X342000000Y-161700000D03*
X354000000Y-163900000D03*
%TD*%
D13*
%TO.C,D32*%
X185900000Y-102041657D03*
D14*
X182100000Y-102041657D03*
%TD*%
D13*
%TO.C,D53*%
X293900000Y-153041633D03*
D14*
X290100000Y-153041633D03*
%TD*%
D15*
%TO.C,SW12*%
X106500000Y-107000000D03*
D16*
X107000000Y-110800000D03*
D17*
X112000000Y-107000000D03*
D16*
X112000000Y-112900000D03*
D15*
X117500000Y-107000000D03*
D18*
X103500000Y-110700000D03*
X115500000Y-112900000D03*
%TD*%
D13*
%TO.C,D8*%
X100400000Y-119041649D03*
D14*
X96600000Y-119041649D03*
%TD*%
D13*
%TO.C,D35*%
X194900000Y-85041665D03*
D14*
X191100000Y-85041665D03*
%TD*%
D13*
%TO.C,D13*%
X118400000Y-119041649D03*
D14*
X114600000Y-119041649D03*
%TD*%
D15*
%TO.C,SW60*%
X327000000Y-141000000D03*
D16*
X327500000Y-144800000D03*
D17*
X332500000Y-141000000D03*
D16*
X332500000Y-146900000D03*
D15*
X338000000Y-141000000D03*
D18*
X324000000Y-144700000D03*
X336000000Y-146900000D03*
%TD*%
D15*
%TO.C,SW32*%
X192000000Y-141000000D03*
D16*
X192500000Y-144800000D03*
D17*
X197500000Y-141000000D03*
D16*
X197500000Y-146900000D03*
D15*
X203000000Y-141000000D03*
D18*
X189000000Y-144700000D03*
X201000000Y-146900000D03*
%TD*%
D13*
%TO.C,D56*%
X280400000Y-119041649D03*
D14*
X276600000Y-119041649D03*
%TD*%
D13*
%TO.C,D23*%
X163400000Y-136041641D03*
D14*
X159600000Y-136041641D03*
%TD*%
D15*
%TO.C,SW55*%
X293250000Y-141000000D03*
D16*
X293750000Y-144800000D03*
D17*
X298750000Y-141000000D03*
D16*
X298750000Y-146900000D03*
D15*
X304250000Y-141000000D03*
D18*
X290250000Y-144700000D03*
X302250000Y-146900000D03*
%TD*%
D15*
%TO.C,SW47*%
X241500000Y-90000000D03*
D16*
X242000000Y-93800000D03*
D17*
X247000000Y-90000000D03*
D16*
X247000000Y-95900000D03*
D15*
X252500000Y-90000000D03*
D18*
X238500000Y-93700000D03*
X250500000Y-95900000D03*
%TD*%
D13*
%TO.C,D27*%
X172400000Y-119041649D03*
D14*
X168600000Y-119041649D03*
%TD*%
D15*
%TO.C,SW28*%
X174000000Y-141000000D03*
D16*
X174500000Y-144800000D03*
D17*
X179500000Y-141000000D03*
D16*
X179500000Y-146900000D03*
D15*
X185000000Y-141000000D03*
D18*
X171000000Y-144700000D03*
X183000000Y-146900000D03*
%TD*%
D15*
%TO.C,SW20*%
X133500000Y-90000000D03*
D16*
X134000000Y-93800000D03*
D17*
X139000000Y-90000000D03*
D16*
X139000000Y-95900000D03*
D15*
X144500000Y-90000000D03*
D18*
X130500000Y-93700000D03*
X142500000Y-95900000D03*
%TD*%
D15*
%TO.C,SW52*%
X259500000Y-90000000D03*
D16*
X260000000Y-93800000D03*
D17*
X265000000Y-90000000D03*
D16*
X265000000Y-95900000D03*
D15*
X270500000Y-90000000D03*
D18*
X256500000Y-93700000D03*
X268500000Y-95900000D03*
%TD*%
D13*
%TO.C,D59*%
X284900000Y-85041665D03*
D14*
X281100000Y-85041665D03*
%TD*%
D15*
%TO.C,SW51*%
X286500000Y-158000000D03*
D16*
X287000000Y-161800000D03*
D17*
X292000000Y-158000000D03*
D16*
X292000000Y-163900000D03*
D15*
X297500000Y-158000000D03*
D18*
X283500000Y-161700000D03*
X295500000Y-163900000D03*
%TD*%
D15*
%TO.C,SW19*%
X138000000Y-141000000D03*
D16*
X138500000Y-144800000D03*
D17*
X143500000Y-141000000D03*
D16*
X143500000Y-146900000D03*
D15*
X149000000Y-141000000D03*
D18*
X135000000Y-144700000D03*
X147000000Y-146900000D03*
%TD*%
D13*
%TO.C,D34*%
X199400000Y-136041641D03*
D14*
X195600000Y-136041641D03*
%TD*%
M02*
