%TF.GenerationSoftware,KiCad,Pcbnew,(7.0.0-0)*%
%TF.CreationDate,2023-02-20T17:32:19-08:00*%
%TF.ProjectId,mt-choc,6d742d63-686f-4632-9e6b-696361645f70,v1.0*%
%TF.SameCoordinates,Original*%
%TF.FileFunction,Profile,NP*%
%FSLAX46Y46*%
G04 Gerber Fmt 4.6, Leading zero omitted, Abs format (unit mm)*
G04 Created by KiCad (PCBNEW (7.0.0-0)) date 2023-02-20 17:32:19*
%MOMM*%
%LPD*%
G01*
G04 APERTURE LIST*
%TA.AperFunction,Profile*%
%ADD10C,0.038100*%
%TD*%
%TA.AperFunction,Profile*%
%ADD11C,0.120000*%
%TD*%
G04 APERTURE END LIST*
D10*
X362500000Y-82500000D02*
G75*
G03*
X358500000Y-78500000I-4000000J0D01*
G01*
X358500000Y-169500000D02*
G75*
G03*
X362500000Y-165500000I0J4000000D01*
G01*
X362500000Y-165500000D02*
X362500000Y-82500000D01*
X55000000Y-165500000D02*
X55000000Y-82500000D01*
X59000000Y-169500000D02*
X358500000Y-169500000D01*
X59000000Y-78500000D02*
X358500000Y-78500000D01*
X55000000Y-165500000D02*
G75*
G03*
X59000000Y-169500000I4000000J0D01*
G01*
X59000000Y-78500000D02*
G75*
G03*
X55000000Y-82500000I0J-4000000D01*
G01*
D11*
%TO.C,SW24*%
X129100000Y-154800000D02*
X129100000Y-160300000D01*
X129100000Y-154800000D02*
X134400000Y-154800000D01*
X129100000Y-160300000D02*
X134400000Y-160300000D01*
X129750000Y-149000000D02*
X129750000Y-152500000D01*
X129750000Y-149000000D02*
X133750000Y-149000000D01*
X129750000Y-152500000D02*
X133750000Y-152500000D01*
X133750000Y-152500000D02*
X133750000Y-149000000D01*
X134400000Y-160300000D02*
X134400000Y-154800000D01*
X153100000Y-154800000D02*
X153100000Y-160300000D01*
X153100000Y-154800000D02*
X158400000Y-154800000D01*
X153100000Y-160300000D02*
X158400000Y-160300000D01*
X153750000Y-149000000D02*
X153750000Y-152500000D01*
X153750000Y-149000000D02*
X157750000Y-149000000D01*
X153750000Y-152500000D02*
X157750000Y-152500000D01*
X157750000Y-152500000D02*
X157750000Y-149000000D01*
X158400000Y-160300000D02*
X158400000Y-154800000D01*
X167100000Y-154800000D02*
X167100000Y-160300000D01*
X167100000Y-154800000D02*
X172400000Y-154800000D01*
X167100000Y-160300000D02*
X172400000Y-160300000D01*
X167750000Y-149000000D02*
X167750000Y-152500000D01*
X167750000Y-149000000D02*
X171750000Y-149000000D01*
X167750000Y-152500000D02*
X171750000Y-152500000D01*
X171750000Y-152500000D02*
X171750000Y-149000000D01*
X172400000Y-160300000D02*
X172400000Y-154800000D01*
X191100000Y-154800000D02*
X191100000Y-160300000D01*
X191100000Y-154800000D02*
X196400000Y-154800000D01*
X191100000Y-160300000D02*
X196400000Y-160300000D01*
X191750000Y-149000000D02*
X191750000Y-152500000D01*
X191750000Y-149000000D02*
X195750000Y-149000000D01*
X191750000Y-152500000D02*
X195750000Y-152500000D01*
X195750000Y-152500000D02*
X195750000Y-149000000D01*
X196400000Y-160300000D02*
X196400000Y-154800000D01*
X205100000Y-154800000D02*
X205100000Y-160300000D01*
X205100000Y-154800000D02*
X210400000Y-154800000D01*
X205100000Y-160300000D02*
X210400000Y-160300000D01*
X205750000Y-149000000D02*
X205750000Y-152500000D01*
X205750000Y-149000000D02*
X209750000Y-149000000D01*
X205750000Y-152500000D02*
X209750000Y-152500000D01*
X209750000Y-152500000D02*
X209750000Y-149000000D01*
X210400000Y-160300000D02*
X210400000Y-154800000D01*
X229100000Y-154800000D02*
X229100000Y-160300000D01*
X229100000Y-154800000D02*
X234400000Y-154800000D01*
X229100000Y-160300000D02*
X234400000Y-160300000D01*
X229750000Y-149000000D02*
X229750000Y-152500000D01*
X229750000Y-149000000D02*
X233750000Y-149000000D01*
X229750000Y-152500000D02*
X233750000Y-152500000D01*
X233750000Y-152500000D02*
X233750000Y-149000000D01*
X234400000Y-160300000D02*
X234400000Y-154800000D01*
%TO.C,SW4*%
X63600000Y-137800000D02*
X63600000Y-143300000D01*
X63600000Y-137800000D02*
X68900000Y-137800000D01*
X63600000Y-143300000D02*
X68900000Y-143300000D01*
X64250000Y-132000000D02*
X64250000Y-135500000D01*
X64250000Y-132000000D02*
X68250000Y-132000000D01*
X64250000Y-135500000D02*
X68250000Y-135500000D01*
X68250000Y-135500000D02*
X68250000Y-132000000D01*
X68900000Y-143300000D02*
X68900000Y-137800000D01*
X87600000Y-137800000D02*
X87600000Y-143300000D01*
X87600000Y-137800000D02*
X92900000Y-137800000D01*
X87600000Y-143300000D02*
X92900000Y-143300000D01*
X88250000Y-132000000D02*
X88250000Y-135500000D01*
X88250000Y-132000000D02*
X92250000Y-132000000D01*
X88250000Y-135500000D02*
X92250000Y-135500000D01*
X92250000Y-135500000D02*
X92250000Y-132000000D01*
X92900000Y-143300000D02*
X92900000Y-137800000D01*
%TO.C,SW55*%
X284100000Y-137800000D02*
X284100000Y-143300000D01*
X284100000Y-137800000D02*
X289400000Y-137800000D01*
X284100000Y-143300000D02*
X289400000Y-143300000D01*
X284750000Y-132000000D02*
X284750000Y-135500000D01*
X284750000Y-132000000D02*
X288750000Y-132000000D01*
X284750000Y-135500000D02*
X288750000Y-135500000D01*
X288750000Y-135500000D02*
X288750000Y-132000000D01*
X289400000Y-143300000D02*
X289400000Y-137800000D01*
X308100000Y-137800000D02*
X308100000Y-143300000D01*
X308100000Y-137800000D02*
X313400000Y-137800000D01*
X308100000Y-143300000D02*
X313400000Y-143300000D01*
X308750000Y-132000000D02*
X308750000Y-135500000D01*
X308750000Y-132000000D02*
X312750000Y-132000000D01*
X308750000Y-135500000D02*
X312750000Y-135500000D01*
X312750000Y-135500000D02*
X312750000Y-132000000D01*
X313400000Y-143300000D02*
X313400000Y-137800000D01*
%TD*%
M02*
