%TF.GenerationSoftware,KiCad,Pcbnew,(7.0.0-0)*%
%TF.CreationDate,2023-02-20T17:49:28-08:00*%
%TF.ProjectId,mt-choc-bottom,6d742d63-686f-4632-9d62-6f74746f6d2e,v1.0*%
%TF.SameCoordinates,Original*%
%TF.FileFunction,Soldermask,Bot*%
%TF.FilePolarity,Negative*%
%FSLAX46Y46*%
G04 Gerber Fmt 4.6, Leading zero omitted, Abs format (unit mm)*
G04 Created by KiCad (PCBNEW (7.0.0-0)) date 2023-02-20 17:49:28*
%MOMM*%
%LPD*%
G01*
G04 APERTURE LIST*
%ADD10C,3.600000*%
%ADD11C,1.900000*%
%ADD12C,0.900000*%
%ADD13C,4.600000*%
G04 APERTURE END LIST*
D10*
%TO.C,SW10*%
X91750000Y-158000000D03*
D11*
X97250000Y-158000000D03*
%TD*%
D10*
%TO.C,SW39*%
X224500000Y-124000000D03*
D11*
X230000000Y-124000000D03*
%TD*%
D10*
%TO.C,SW33*%
X193000000Y-90000000D03*
D11*
X198500000Y-90000000D03*
%TD*%
D10*
%TO.C,SW40*%
X233500000Y-141000000D03*
D11*
X239000000Y-141000000D03*
%TD*%
D10*
%TO.C,SW56*%
X314500000Y-158000000D03*
D11*
X320000000Y-158000000D03*
%TD*%
D10*
%TO.C,SW18*%
X134500000Y-124000000D03*
D11*
X140000000Y-124000000D03*
%TD*%
D10*
%TO.C,SW44*%
X242500000Y-124000000D03*
D11*
X248000000Y-124000000D03*
%TD*%
D12*
%TO.C,H1*%
X81100000Y-102500000D03*
X81583274Y-101333274D03*
X81583274Y-103666726D03*
X82750000Y-100850000D03*
D13*
X82750000Y-102500000D03*
D12*
X82750000Y-104150000D03*
X83916726Y-101333274D03*
X83916726Y-103666726D03*
X84400000Y-102500000D03*
%TD*%
D10*
%TO.C,SW36*%
X215500000Y-141000000D03*
D11*
X221000000Y-141000000D03*
%TD*%
D10*
%TO.C,SW63*%
X310000000Y-107000000D03*
D11*
X315500000Y-107000000D03*
%TD*%
D10*
%TO.C,SW25*%
X157000000Y-90000000D03*
D11*
X162500000Y-90000000D03*
%TD*%
D10*
%TO.C,SW16*%
X121000000Y-90000000D03*
D11*
X126500000Y-90000000D03*
%TD*%
D12*
%TO.C,H5*%
X309100000Y-147500000D03*
X309583274Y-146333274D03*
X309583274Y-148666726D03*
X310750000Y-145850000D03*
D13*
X310750000Y-147500000D03*
D12*
X310750000Y-149150000D03*
X311916726Y-146333274D03*
X311916726Y-148666726D03*
X312400000Y-147500000D03*
%TD*%
D10*
%TO.C,SW41*%
X249250000Y-158000000D03*
D11*
X254750000Y-158000000D03*
%TD*%
D10*
%TO.C,SW38*%
X220000000Y-107000000D03*
D11*
X225500000Y-107000000D03*
%TD*%
D10*
%TO.C,SW62*%
X305500000Y-90000000D03*
D11*
X311000000Y-90000000D03*
%TD*%
D10*
%TO.C,SW26*%
X166000000Y-107000000D03*
D11*
X171500000Y-107000000D03*
%TD*%
D10*
%TO.C,SW48*%
X256000000Y-107000000D03*
D11*
X261500000Y-107000000D03*
%TD*%
D10*
%TO.C,SW11*%
X103000000Y-90000000D03*
D11*
X108500000Y-90000000D03*
%TD*%
D12*
%TO.C,H2*%
X88600000Y-147500000D03*
X89083274Y-146333274D03*
X89083274Y-148666726D03*
X90250000Y-145850000D03*
D13*
X90250000Y-147500000D03*
D12*
X90250000Y-149150000D03*
X91416726Y-146333274D03*
X91416726Y-148666726D03*
X91900000Y-147500000D03*
%TD*%
D10*
%TO.C,SW21*%
X148000000Y-107000000D03*
D11*
X153500000Y-107000000D03*
%TD*%
D10*
%TO.C,SW54*%
X278500000Y-124000000D03*
D11*
X284000000Y-124000000D03*
%TD*%
D10*
%TO.C,SW57*%
X283000000Y-90000000D03*
D11*
X288500000Y-90000000D03*
%TD*%
D10*
%TO.C,SW24*%
X143750000Y-158000000D03*
D11*
X149250000Y-158000000D03*
D10*
X181750000Y-158000000D03*
D11*
X187250000Y-158000000D03*
D10*
X219750000Y-158000000D03*
D11*
X225250000Y-158000000D03*
%TD*%
D10*
%TO.C,SW8*%
X98500000Y-124000000D03*
D11*
X104000000Y-124000000D03*
%TD*%
D10*
%TO.C,SW3*%
X73750000Y-124000000D03*
D11*
X79250000Y-124000000D03*
%TD*%
D10*
%TO.C,SW35*%
X206500000Y-124000000D03*
D11*
X212000000Y-124000000D03*
%TD*%
D12*
%TO.C,H4*%
X332850000Y-91250000D03*
X333333274Y-90083274D03*
X333333274Y-92416726D03*
X334500000Y-89600000D03*
D13*
X334500000Y-91250000D03*
D12*
X334500000Y-92900000D03*
X335666726Y-90083274D03*
X335666726Y-92416726D03*
X336150000Y-91250000D03*
%TD*%
D10*
%TO.C,SW9*%
X107500000Y-141000000D03*
D11*
X113000000Y-141000000D03*
%TD*%
D10*
%TO.C,SW15*%
X114250000Y-158000000D03*
D11*
X119750000Y-158000000D03*
%TD*%
D10*
%TO.C,SW4*%
X78250000Y-141000000D03*
D11*
X83750000Y-141000000D03*
%TD*%
D10*
%TO.C,SW49*%
X260500000Y-124000000D03*
D11*
X266000000Y-124000000D03*
%TD*%
D10*
%TO.C,SW42*%
X229000000Y-90000000D03*
D11*
X234500000Y-90000000D03*
%TD*%
D10*
%TO.C,SW53*%
X274000000Y-107000000D03*
D11*
X279500000Y-107000000D03*
%TD*%
D10*
%TO.C,SW1*%
X67000000Y-90000000D03*
D11*
X72500000Y-90000000D03*
%TD*%
D10*
%TO.C,SW43*%
X238000000Y-107000000D03*
D11*
X243500000Y-107000000D03*
%TD*%
D10*
%TO.C,SW58*%
X292000000Y-107000000D03*
D11*
X297500000Y-107000000D03*
%TD*%
D10*
%TO.C,SW59*%
X303250000Y-124000000D03*
D11*
X308750000Y-124000000D03*
%TD*%
D10*
%TO.C,SW29*%
X175000000Y-90000000D03*
D11*
X180500000Y-90000000D03*
%TD*%
D10*
%TO.C,SW7*%
X94000000Y-107000000D03*
D11*
X99500000Y-107000000D03*
%TD*%
D10*
%TO.C,SW34*%
X202000000Y-107000000D03*
D11*
X207500000Y-107000000D03*
%TD*%
D10*
%TO.C,SW22*%
X152500000Y-124000000D03*
D11*
X158000000Y-124000000D03*
%TD*%
D10*
%TO.C,SW6*%
X85000000Y-90000000D03*
D11*
X90500000Y-90000000D03*
%TD*%
D10*
%TO.C,SW30*%
X184000000Y-107000000D03*
D11*
X189500000Y-107000000D03*
%TD*%
D10*
%TO.C,SW37*%
X211000000Y-90000000D03*
D11*
X216500000Y-90000000D03*
%TD*%
D10*
%TO.C,SW61*%
X332500000Y-158000000D03*
D11*
X338000000Y-158000000D03*
%TD*%
D10*
%TO.C,SW23*%
X161500000Y-141000000D03*
D11*
X167000000Y-141000000D03*
%TD*%
D12*
%TO.C,H3*%
X199100000Y-163750000D03*
X199583274Y-162583274D03*
X199583274Y-164916726D03*
X200750000Y-162100000D03*
D13*
X200750000Y-163750000D03*
D12*
X200750000Y-165400000D03*
X201916726Y-162583274D03*
X201916726Y-164916726D03*
X202400000Y-163750000D03*
%TD*%
D10*
%TO.C,SW31*%
X188500000Y-124000000D03*
D11*
X194000000Y-124000000D03*
%TD*%
D10*
%TO.C,SW46*%
X271750000Y-158000000D03*
D11*
X277250000Y-158000000D03*
%TD*%
D10*
%TO.C,SW14*%
X125500000Y-141000000D03*
D11*
X131000000Y-141000000D03*
%TD*%
D10*
%TO.C,SW50*%
X269500000Y-141000000D03*
D11*
X275000000Y-141000000D03*
%TD*%
D10*
%TO.C,SW27*%
X170500000Y-124000000D03*
D11*
X176000000Y-124000000D03*
%TD*%
D10*
%TO.C,SW13*%
X116500000Y-124000000D03*
D11*
X122000000Y-124000000D03*
%TD*%
D10*
%TO.C,SW17*%
X130000000Y-107000000D03*
D11*
X135500000Y-107000000D03*
%TD*%
D10*
%TO.C,SW45*%
X251500000Y-141000000D03*
D11*
X257000000Y-141000000D03*
%TD*%
D10*
%TO.C,SW2*%
X71500000Y-107000000D03*
D11*
X77000000Y-107000000D03*
%TD*%
D10*
%TO.C,SW5*%
X69250000Y-158000000D03*
D11*
X74750000Y-158000000D03*
%TD*%
D10*
%TO.C,SW64*%
X350500000Y-158000000D03*
D11*
X356000000Y-158000000D03*
%TD*%
D10*
%TO.C,SW12*%
X112000000Y-107000000D03*
D11*
X117500000Y-107000000D03*
%TD*%
D10*
%TO.C,SW60*%
X332500000Y-141000000D03*
D11*
X338000000Y-141000000D03*
%TD*%
D10*
%TO.C,SW32*%
X197500000Y-141000000D03*
D11*
X203000000Y-141000000D03*
%TD*%
D10*
%TO.C,SW55*%
X298750000Y-141000000D03*
D11*
X304250000Y-141000000D03*
%TD*%
D10*
%TO.C,SW47*%
X247000000Y-90000000D03*
D11*
X252500000Y-90000000D03*
%TD*%
D10*
%TO.C,SW28*%
X179500000Y-141000000D03*
D11*
X185000000Y-141000000D03*
%TD*%
D10*
%TO.C,SW20*%
X139000000Y-90000000D03*
D11*
X144500000Y-90000000D03*
%TD*%
D10*
%TO.C,SW52*%
X265000000Y-90000000D03*
D11*
X270500000Y-90000000D03*
%TD*%
D10*
%TO.C,SW51*%
X292000000Y-158000000D03*
D11*
X297500000Y-158000000D03*
%TD*%
D10*
%TO.C,SW19*%
X143500000Y-141000000D03*
D11*
X149000000Y-141000000D03*
%TD*%
M02*
