%TF.GenerationSoftware,KiCad,Pcbnew,(7.0.0-0)*%
%TF.CreationDate,2023-02-20T17:49:28-08:00*%
%TF.ProjectId,mt-choc-bottom,6d742d63-686f-4632-9d62-6f74746f6d2e,v1.0*%
%TF.SameCoordinates,Original*%
%TF.FileFunction,Profile,NP*%
%FSLAX46Y46*%
G04 Gerber Fmt 4.6, Leading zero omitted, Abs format (unit mm)*
G04 Created by KiCad (PCBNEW (7.0.0-0)) date 2023-02-20 17:49:28*
%MOMM*%
%LPD*%
G01*
G04 APERTURE LIST*
%TA.AperFunction,Profile*%
%ADD10C,0.038100*%
%TD*%
%TA.AperFunction,Profile*%
%ADD11C,0.120000*%
%TD*%
G04 APERTURE END LIST*
D10*
X362500000Y-82500000D02*
G75*
G03*
X358500000Y-78500000I-4000000J0D01*
G01*
X358500000Y-169500000D02*
G75*
G03*
X362500000Y-165500000I0J4000000D01*
G01*
X362500000Y-165500000D02*
X362500000Y-82500000D01*
X55000000Y-165500000D02*
X55000000Y-82500000D01*
X59000000Y-169500000D02*
X358500000Y-169500000D01*
X59000000Y-78500000D02*
X358500000Y-78500000D01*
X55000000Y-165500000D02*
G75*
G03*
X59000000Y-169500000I4000000J0D01*
G01*
X59000000Y-78500000D02*
G75*
G03*
X55000000Y-82500000I0J-4000000D01*
G01*
D11*
%TO.C,D25*%
X158750000Y-86291665D02*
X155250000Y-86291665D01*
X155250000Y-83791665D02*
X158750000Y-83791665D01*
X158750000Y-86291665D02*
G75*
G03*
X158750000Y-83791665I0J1250000D01*
G01*
X155250000Y-83791665D02*
G75*
G03*
X155250000Y-86291665I0J-1250000D01*
G01*
%TO.C,D12*%
X113750000Y-103291657D02*
X110250000Y-103291657D01*
X110250000Y-100791657D02*
X113750000Y-100791657D01*
X113750000Y-103291657D02*
G75*
G03*
X113750000Y-100791657I0J1250000D01*
G01*
X110250000Y-100791657D02*
G75*
G03*
X110250000Y-103291657I0J-1250000D01*
G01*
%TO.C,D38*%
X217250000Y-137291641D02*
X213750000Y-137291641D01*
X213750000Y-134791641D02*
X217250000Y-134791641D01*
X217250000Y-137291641D02*
G75*
G03*
X217250000Y-134791641I0J1250000D01*
G01*
X213750000Y-134791641D02*
G75*
G03*
X213750000Y-137291641I0J-1250000D01*
G01*
%TO.C,SW10*%
X85400000Y-158000000D02*
X85400000Y-159100000D01*
X85400000Y-159100000D02*
X84050000Y-159100000D01*
X87100000Y-158000000D02*
X87100000Y-159100000D01*
X87100000Y-159100000D02*
X88150000Y-159100000D01*
X87350000Y-164300000D02*
X84050000Y-164300000D01*
X90050000Y-166500000D02*
X87350000Y-164300000D01*
X90050000Y-166500000D02*
X94450000Y-166500000D01*
X90850000Y-161300000D02*
X88150000Y-159100000D01*
X90850000Y-161300000D02*
X94450000Y-161300000D01*
X84050000Y-159100000D02*
G75*
G03*
X84050000Y-164300000I0J-2600000D01*
G01*
X87100000Y-158000000D02*
G75*
G03*
X85400000Y-158000000I-850000J0D01*
G01*
X94450000Y-166500000D02*
G75*
G03*
X94450000Y-161300000I0J2600000D01*
G01*
%TO.C,D1*%
X68750000Y-86291665D02*
X65250000Y-86291665D01*
X65250000Y-83791665D02*
X68750000Y-83791665D01*
X68750000Y-86291665D02*
G75*
G03*
X68750000Y-83791665I0J1250000D01*
G01*
X65250000Y-83791665D02*
G75*
G03*
X65250000Y-86291665I0J-1250000D01*
G01*
%TO.C,SW39*%
X218150000Y-124000000D02*
X218150000Y-125100000D01*
X218150000Y-125100000D02*
X216800000Y-125100000D01*
X219850000Y-124000000D02*
X219850000Y-125100000D01*
X219850000Y-125100000D02*
X220900000Y-125100000D01*
X220100000Y-130300000D02*
X216800000Y-130300000D01*
X222800000Y-132500000D02*
X220100000Y-130300000D01*
X222800000Y-132500000D02*
X227200000Y-132500000D01*
X223600000Y-127300000D02*
X220900000Y-125100000D01*
X223600000Y-127300000D02*
X227200000Y-127300000D01*
X216800000Y-125100000D02*
G75*
G03*
X216800000Y-130300000I0J-2600000D01*
G01*
X219850000Y-124000000D02*
G75*
G03*
X218150000Y-124000000I-850000J0D01*
G01*
X227200000Y-132500000D02*
G75*
G03*
X227200000Y-127300000I0J2600000D01*
G01*
%TO.C,SW33*%
X186650000Y-90000000D02*
X186650000Y-91100000D01*
X186650000Y-91100000D02*
X185300000Y-91100000D01*
X188350000Y-90000000D02*
X188350000Y-91100000D01*
X188350000Y-91100000D02*
X189400000Y-91100000D01*
X188600000Y-96300000D02*
X185300000Y-96300000D01*
X191300000Y-98500000D02*
X188600000Y-96300000D01*
X191300000Y-98500000D02*
X195700000Y-98500000D01*
X192100000Y-93300000D02*
X189400000Y-91100000D01*
X192100000Y-93300000D02*
X195700000Y-93300000D01*
X185300000Y-91100000D02*
G75*
G03*
X185300000Y-96300000I0J-2600000D01*
G01*
X188350000Y-90000000D02*
G75*
G03*
X186650000Y-90000000I-850000J0D01*
G01*
X195700000Y-98500000D02*
G75*
G03*
X195700000Y-93300000I0J2600000D01*
G01*
%TO.C,SW40*%
X227150000Y-141000000D02*
X227150000Y-142100000D01*
X227150000Y-142100000D02*
X225800000Y-142100000D01*
X228850000Y-141000000D02*
X228850000Y-142100000D01*
X228850000Y-142100000D02*
X229900000Y-142100000D01*
X229100000Y-147300000D02*
X225800000Y-147300000D01*
X231800000Y-149500000D02*
X229100000Y-147300000D01*
X231800000Y-149500000D02*
X236200000Y-149500000D01*
X232600000Y-144300000D02*
X229900000Y-142100000D01*
X232600000Y-144300000D02*
X236200000Y-144300000D01*
X225800000Y-142100000D02*
G75*
G03*
X225800000Y-147300000I0J-2600000D01*
G01*
X228850000Y-141000000D02*
G75*
G03*
X227150000Y-141000000I-850000J0D01*
G01*
X236200000Y-149500000D02*
G75*
G03*
X236200000Y-144300000I0J2600000D01*
G01*
%TO.C,D50*%
X257750000Y-103291657D02*
X254250000Y-103291657D01*
X254250000Y-100791657D02*
X257750000Y-100791657D01*
X257750000Y-103291657D02*
G75*
G03*
X257750000Y-100791657I0J1250000D01*
G01*
X254250000Y-100791657D02*
G75*
G03*
X254250000Y-103291657I0J-1250000D01*
G01*
%TO.C,D11*%
X104750000Y-86291665D02*
X101250000Y-86291665D01*
X101250000Y-83791665D02*
X104750000Y-83791665D01*
X104750000Y-86291665D02*
G75*
G03*
X104750000Y-83791665I0J1250000D01*
G01*
X101250000Y-83791665D02*
G75*
G03*
X101250000Y-86291665I0J-1250000D01*
G01*
%TO.C,SW56*%
X308150000Y-158000000D02*
X308150000Y-159100000D01*
X308150000Y-159100000D02*
X306800000Y-159100000D01*
X309850000Y-158000000D02*
X309850000Y-159100000D01*
X309850000Y-159100000D02*
X310900000Y-159100000D01*
X310100000Y-164300000D02*
X306800000Y-164300000D01*
X312800000Y-166500000D02*
X310100000Y-164300000D01*
X312800000Y-166500000D02*
X317200000Y-166500000D01*
X313600000Y-161300000D02*
X310900000Y-159100000D01*
X313600000Y-161300000D02*
X317200000Y-161300000D01*
X306800000Y-159100000D02*
G75*
G03*
X306800000Y-164300000I0J-2600000D01*
G01*
X309850000Y-158000000D02*
G75*
G03*
X308150000Y-158000000I-850000J0D01*
G01*
X317200000Y-166500000D02*
G75*
G03*
X317200000Y-161300000I0J2600000D01*
G01*
%TO.C,SW18*%
X128150000Y-124000000D02*
X128150000Y-125100000D01*
X128150000Y-125100000D02*
X126800000Y-125100000D01*
X129850000Y-124000000D02*
X129850000Y-125100000D01*
X129850000Y-125100000D02*
X130900000Y-125100000D01*
X130100000Y-130300000D02*
X126800000Y-130300000D01*
X132800000Y-132500000D02*
X130100000Y-130300000D01*
X132800000Y-132500000D02*
X137200000Y-132500000D01*
X133600000Y-127300000D02*
X130900000Y-125100000D01*
X133600000Y-127300000D02*
X137200000Y-127300000D01*
X126800000Y-125100000D02*
G75*
G03*
X126800000Y-130300000I0J-2600000D01*
G01*
X129850000Y-124000000D02*
G75*
G03*
X128150000Y-124000000I-850000J0D01*
G01*
X137200000Y-132500000D02*
G75*
G03*
X137200000Y-127300000I0J2600000D01*
G01*
%TO.C,SW44*%
X236150000Y-124000000D02*
X236150000Y-125100000D01*
X236150000Y-125100000D02*
X234800000Y-125100000D01*
X237850000Y-124000000D02*
X237850000Y-125100000D01*
X237850000Y-125100000D02*
X238900000Y-125100000D01*
X238100000Y-130300000D02*
X234800000Y-130300000D01*
X240800000Y-132500000D02*
X238100000Y-130300000D01*
X240800000Y-132500000D02*
X245200000Y-132500000D01*
X241600000Y-127300000D02*
X238900000Y-125100000D01*
X241600000Y-127300000D02*
X245200000Y-127300000D01*
X234800000Y-125100000D02*
G75*
G03*
X234800000Y-130300000I0J-2600000D01*
G01*
X237850000Y-124000000D02*
G75*
G03*
X236150000Y-124000000I-850000J0D01*
G01*
X245200000Y-132500000D02*
G75*
G03*
X245200000Y-127300000I0J2600000D01*
G01*
%TO.C,D18*%
X136250000Y-120291649D02*
X132750000Y-120291649D01*
X132750000Y-117791649D02*
X136250000Y-117791649D01*
X136250000Y-120291649D02*
G75*
G03*
X136250000Y-117791649I0J1250000D01*
G01*
X132750000Y-117791649D02*
G75*
G03*
X132750000Y-120291649I0J-1250000D01*
G01*
%TO.C,D9*%
X109250000Y-137291641D02*
X105750000Y-137291641D01*
X105750000Y-134791641D02*
X109250000Y-134791641D01*
X109250000Y-137291641D02*
G75*
G03*
X109250000Y-134791641I0J1250000D01*
G01*
X105750000Y-134791641D02*
G75*
G03*
X105750000Y-137291641I0J-1250000D01*
G01*
%TO.C,D55*%
X275750000Y-103291657D02*
X272250000Y-103291657D01*
X272250000Y-100791657D02*
X275750000Y-100791657D01*
X275750000Y-103291657D02*
G75*
G03*
X275750000Y-100791657I0J1250000D01*
G01*
X272250000Y-100791657D02*
G75*
G03*
X272250000Y-103291657I0J-1250000D01*
G01*
%TO.C,D61*%
X305000000Y-120291649D02*
X301500000Y-120291649D01*
X301500000Y-117791649D02*
X305000000Y-117791649D01*
X305000000Y-120291649D02*
G75*
G03*
X305000000Y-117791649I0J1250000D01*
G01*
X301500000Y-117791649D02*
G75*
G03*
X301500000Y-120291649I0J-1250000D01*
G01*
%TO.C,D63*%
X334250000Y-154291633D02*
X330750000Y-154291633D01*
X330750000Y-151791633D02*
X334250000Y-151791633D01*
X334250000Y-154291633D02*
G75*
G03*
X334250000Y-151791633I0J1250000D01*
G01*
X330750000Y-151791633D02*
G75*
G03*
X330750000Y-154291633I0J-1250000D01*
G01*
%TO.C,SW36*%
X209150000Y-141000000D02*
X209150000Y-142100000D01*
X209150000Y-142100000D02*
X207800000Y-142100000D01*
X210850000Y-141000000D02*
X210850000Y-142100000D01*
X210850000Y-142100000D02*
X211900000Y-142100000D01*
X211100000Y-147300000D02*
X207800000Y-147300000D01*
X213800000Y-149500000D02*
X211100000Y-147300000D01*
X213800000Y-149500000D02*
X218200000Y-149500000D01*
X214600000Y-144300000D02*
X211900000Y-142100000D01*
X214600000Y-144300000D02*
X218200000Y-144300000D01*
X207800000Y-142100000D02*
G75*
G03*
X207800000Y-147300000I0J-2600000D01*
G01*
X210850000Y-141000000D02*
G75*
G03*
X209150000Y-141000000I-850000J0D01*
G01*
X218200000Y-149500000D02*
G75*
G03*
X218200000Y-144300000I0J2600000D01*
G01*
%TO.C,D40*%
X221750000Y-103291657D02*
X218250000Y-103291657D01*
X218250000Y-100791657D02*
X221750000Y-100791657D01*
X221750000Y-103291657D02*
G75*
G03*
X221750000Y-100791657I0J1250000D01*
G01*
X218250000Y-100791657D02*
G75*
G03*
X218250000Y-103291657I0J-1250000D01*
G01*
%TO.C,SW63*%
X303650000Y-107000000D02*
X303650000Y-108100000D01*
X303650000Y-108100000D02*
X302300000Y-108100000D01*
X305350000Y-107000000D02*
X305350000Y-108100000D01*
X305350000Y-108100000D02*
X306400000Y-108100000D01*
X305600000Y-113300000D02*
X302300000Y-113300000D01*
X308300000Y-115500000D02*
X305600000Y-113300000D01*
X308300000Y-115500000D02*
X312700000Y-115500000D01*
X309100000Y-110300000D02*
X306400000Y-108100000D01*
X309100000Y-110300000D02*
X312700000Y-110300000D01*
X302300000Y-108100000D02*
G75*
G03*
X302300000Y-113300000I0J-2600000D01*
G01*
X305350000Y-107000000D02*
G75*
G03*
X303650000Y-107000000I-850000J0D01*
G01*
X312700000Y-115500000D02*
G75*
G03*
X312700000Y-110300000I0J2600000D01*
G01*
%TO.C,SW25*%
X150650000Y-90000000D02*
X150650000Y-91100000D01*
X150650000Y-91100000D02*
X149300000Y-91100000D01*
X152350000Y-90000000D02*
X152350000Y-91100000D01*
X152350000Y-91100000D02*
X153400000Y-91100000D01*
X152600000Y-96300000D02*
X149300000Y-96300000D01*
X155300000Y-98500000D02*
X152600000Y-96300000D01*
X155300000Y-98500000D02*
X159700000Y-98500000D01*
X156100000Y-93300000D02*
X153400000Y-91100000D01*
X156100000Y-93300000D02*
X159700000Y-93300000D01*
X149300000Y-91100000D02*
G75*
G03*
X149300000Y-96300000I0J-2600000D01*
G01*
X152350000Y-90000000D02*
G75*
G03*
X150650000Y-90000000I-850000J0D01*
G01*
X159700000Y-98500000D02*
G75*
G03*
X159700000Y-93300000I0J2600000D01*
G01*
%TO.C,SW16*%
X114650000Y-90000000D02*
X114650000Y-91100000D01*
X114650000Y-91100000D02*
X113300000Y-91100000D01*
X116350000Y-90000000D02*
X116350000Y-91100000D01*
X116350000Y-91100000D02*
X117400000Y-91100000D01*
X116600000Y-96300000D02*
X113300000Y-96300000D01*
X119300000Y-98500000D02*
X116600000Y-96300000D01*
X119300000Y-98500000D02*
X123700000Y-98500000D01*
X120100000Y-93300000D02*
X117400000Y-91100000D01*
X120100000Y-93300000D02*
X123700000Y-93300000D01*
X113300000Y-91100000D02*
G75*
G03*
X113300000Y-96300000I0J-2600000D01*
G01*
X116350000Y-90000000D02*
G75*
G03*
X114650000Y-90000000I-850000J0D01*
G01*
X123700000Y-98500000D02*
G75*
G03*
X123700000Y-93300000I0J2600000D01*
G01*
%TO.C,D3*%
X75500000Y-120291649D02*
X72000000Y-120291649D01*
X72000000Y-117791649D02*
X75500000Y-117791649D01*
X75500000Y-120291649D02*
G75*
G03*
X75500000Y-117791649I0J1250000D01*
G01*
X72000000Y-117791649D02*
G75*
G03*
X72000000Y-120291649I0J-1250000D01*
G01*
%TO.C,D14*%
X127250000Y-137291641D02*
X123750000Y-137291641D01*
X123750000Y-134791641D02*
X127250000Y-134791641D01*
X127250000Y-137291641D02*
G75*
G03*
X127250000Y-134791641I0J1250000D01*
G01*
X123750000Y-134791641D02*
G75*
G03*
X123750000Y-137291641I0J-1250000D01*
G01*
%TO.C,D28*%
X181250000Y-137291641D02*
X177750000Y-137291641D01*
X177750000Y-134791641D02*
X181250000Y-134791641D01*
X181250000Y-137291641D02*
G75*
G03*
X181250000Y-134791641I0J1250000D01*
G01*
X177750000Y-134791641D02*
G75*
G03*
X177750000Y-137291641I0J-1250000D01*
G01*
%TO.C,D7*%
X95750000Y-103291657D02*
X92250000Y-103291657D01*
X92250000Y-100791657D02*
X95750000Y-100791657D01*
X95750000Y-103291657D02*
G75*
G03*
X95750000Y-100791657I0J1250000D01*
G01*
X92250000Y-100791657D02*
G75*
G03*
X92250000Y-103291657I0J-1250000D01*
G01*
%TO.C,SW41*%
X242900000Y-158000000D02*
X242900000Y-159100000D01*
X242900000Y-159100000D02*
X241550000Y-159100000D01*
X244600000Y-158000000D02*
X244600000Y-159100000D01*
X244600000Y-159100000D02*
X245650000Y-159100000D01*
X244850000Y-164300000D02*
X241550000Y-164300000D01*
X247550000Y-166500000D02*
X244850000Y-164300000D01*
X247550000Y-166500000D02*
X251950000Y-166500000D01*
X248350000Y-161300000D02*
X245650000Y-159100000D01*
X248350000Y-161300000D02*
X251950000Y-161300000D01*
X241550000Y-159100000D02*
G75*
G03*
X241550000Y-164300000I0J-2600000D01*
G01*
X244600000Y-158000000D02*
G75*
G03*
X242900000Y-158000000I-850000J0D01*
G01*
X251950000Y-166500000D02*
G75*
G03*
X251950000Y-161300000I0J2600000D01*
G01*
%TO.C,D47*%
X253250000Y-137291641D02*
X249750000Y-137291641D01*
X249750000Y-134791641D02*
X253250000Y-134791641D01*
X253250000Y-137291641D02*
G75*
G03*
X253250000Y-134791641I0J1250000D01*
G01*
X249750000Y-134791641D02*
G75*
G03*
X249750000Y-137291641I0J-1250000D01*
G01*
%TO.C,D57*%
X300500000Y-137291641D02*
X297000000Y-137291641D01*
X297000000Y-134791641D02*
X300500000Y-134791641D01*
X300500000Y-137291641D02*
G75*
G03*
X300500000Y-134791641I0J1250000D01*
G01*
X297000000Y-134791641D02*
G75*
G03*
X297000000Y-137291641I0J-1250000D01*
G01*
%TO.C,SW38*%
X213650000Y-107000000D02*
X213650000Y-108100000D01*
X213650000Y-108100000D02*
X212300000Y-108100000D01*
X215350000Y-107000000D02*
X215350000Y-108100000D01*
X215350000Y-108100000D02*
X216400000Y-108100000D01*
X215600000Y-113300000D02*
X212300000Y-113300000D01*
X218300000Y-115500000D02*
X215600000Y-113300000D01*
X218300000Y-115500000D02*
X222700000Y-115500000D01*
X219100000Y-110300000D02*
X216400000Y-108100000D01*
X219100000Y-110300000D02*
X222700000Y-110300000D01*
X212300000Y-108100000D02*
G75*
G03*
X212300000Y-113300000I0J-2600000D01*
G01*
X215350000Y-107000000D02*
G75*
G03*
X213650000Y-107000000I-850000J0D01*
G01*
X222700000Y-115500000D02*
G75*
G03*
X222700000Y-110300000I0J2600000D01*
G01*
%TO.C,SW62*%
X299150000Y-90000000D02*
X299150000Y-91100000D01*
X299150000Y-91100000D02*
X297800000Y-91100000D01*
X300850000Y-90000000D02*
X300850000Y-91100000D01*
X300850000Y-91100000D02*
X301900000Y-91100000D01*
X301100000Y-96300000D02*
X297800000Y-96300000D01*
X303800000Y-98500000D02*
X301100000Y-96300000D01*
X303800000Y-98500000D02*
X308200000Y-98500000D01*
X304600000Y-93300000D02*
X301900000Y-91100000D01*
X304600000Y-93300000D02*
X308200000Y-93300000D01*
X297800000Y-91100000D02*
G75*
G03*
X297800000Y-96300000I0J-2600000D01*
G01*
X300850000Y-90000000D02*
G75*
G03*
X299150000Y-90000000I-850000J0D01*
G01*
X308200000Y-98500000D02*
G75*
G03*
X308200000Y-93300000I0J2600000D01*
G01*
%TO.C,SW26*%
X159650000Y-107000000D02*
X159650000Y-108100000D01*
X159650000Y-108100000D02*
X158300000Y-108100000D01*
X161350000Y-107000000D02*
X161350000Y-108100000D01*
X161350000Y-108100000D02*
X162400000Y-108100000D01*
X161600000Y-113300000D02*
X158300000Y-113300000D01*
X164300000Y-115500000D02*
X161600000Y-113300000D01*
X164300000Y-115500000D02*
X168700000Y-115500000D01*
X165100000Y-110300000D02*
X162400000Y-108100000D01*
X165100000Y-110300000D02*
X168700000Y-110300000D01*
X158300000Y-108100000D02*
G75*
G03*
X158300000Y-113300000I0J-2600000D01*
G01*
X161350000Y-107000000D02*
G75*
G03*
X159650000Y-107000000I-850000J0D01*
G01*
X168700000Y-115500000D02*
G75*
G03*
X168700000Y-110300000I0J2600000D01*
G01*
%TO.C,SW48*%
X249650000Y-107000000D02*
X249650000Y-108100000D01*
X249650000Y-108100000D02*
X248300000Y-108100000D01*
X251350000Y-107000000D02*
X251350000Y-108100000D01*
X251350000Y-108100000D02*
X252400000Y-108100000D01*
X251600000Y-113300000D02*
X248300000Y-113300000D01*
X254300000Y-115500000D02*
X251600000Y-113300000D01*
X254300000Y-115500000D02*
X258700000Y-115500000D01*
X255100000Y-110300000D02*
X252400000Y-108100000D01*
X255100000Y-110300000D02*
X258700000Y-110300000D01*
X248300000Y-108100000D02*
G75*
G03*
X248300000Y-113300000I0J-2600000D01*
G01*
X251350000Y-107000000D02*
G75*
G03*
X249650000Y-107000000I-850000J0D01*
G01*
X258700000Y-115500000D02*
G75*
G03*
X258700000Y-110300000I0J2600000D01*
G01*
%TO.C,D62*%
X334250000Y-137291641D02*
X330750000Y-137291641D01*
X330750000Y-134791641D02*
X334250000Y-134791641D01*
X334250000Y-137291641D02*
G75*
G03*
X334250000Y-134791641I0J1250000D01*
G01*
X330750000Y-134791641D02*
G75*
G03*
X330750000Y-137291641I0J-1250000D01*
G01*
%TO.C,D16*%
X122750000Y-86291665D02*
X119250000Y-86291665D01*
X119250000Y-83791665D02*
X122750000Y-83791665D01*
X122750000Y-86291665D02*
G75*
G03*
X122750000Y-83791665I0J1250000D01*
G01*
X119250000Y-83791665D02*
G75*
G03*
X119250000Y-86291665I0J-1250000D01*
G01*
%TO.C,SW11*%
X96650000Y-90000000D02*
X96650000Y-91100000D01*
X96650000Y-91100000D02*
X95300000Y-91100000D01*
X98350000Y-90000000D02*
X98350000Y-91100000D01*
X98350000Y-91100000D02*
X99400000Y-91100000D01*
X98600000Y-96300000D02*
X95300000Y-96300000D01*
X101300000Y-98500000D02*
X98600000Y-96300000D01*
X101300000Y-98500000D02*
X105700000Y-98500000D01*
X102100000Y-93300000D02*
X99400000Y-91100000D01*
X102100000Y-93300000D02*
X105700000Y-93300000D01*
X95300000Y-91100000D02*
G75*
G03*
X95300000Y-96300000I0J-2600000D01*
G01*
X98350000Y-90000000D02*
G75*
G03*
X96650000Y-90000000I-850000J0D01*
G01*
X105700000Y-98500000D02*
G75*
G03*
X105700000Y-93300000I0J2600000D01*
G01*
%TO.C,D19*%
X145250000Y-137291641D02*
X141750000Y-137291641D01*
X141750000Y-134791641D02*
X145250000Y-134791641D01*
X145250000Y-137291641D02*
G75*
G03*
X145250000Y-134791641I0J1250000D01*
G01*
X141750000Y-134791641D02*
G75*
G03*
X141750000Y-137291641I0J-1250000D01*
G01*
%TO.C,D42*%
X235250000Y-137291641D02*
X231750000Y-137291641D01*
X231750000Y-134791641D02*
X235250000Y-134791641D01*
X235250000Y-137291641D02*
G75*
G03*
X235250000Y-134791641I0J1250000D01*
G01*
X231750000Y-134791641D02*
G75*
G03*
X231750000Y-137291641I0J-1250000D01*
G01*
%TO.C,D24*%
X145250000Y-154291633D02*
X141750000Y-154291633D01*
X141750000Y-151791633D02*
X145250000Y-151791633D01*
X145250000Y-154291633D02*
G75*
G03*
X145250000Y-151791633I0J1250000D01*
G01*
X141750000Y-151791633D02*
G75*
G03*
X141750000Y-154291633I0J-1250000D01*
G01*
%TO.C,D44*%
X230750000Y-86291665D02*
X227250000Y-86291665D01*
X227250000Y-83791665D02*
X230750000Y-83791665D01*
X230750000Y-86291665D02*
G75*
G03*
X230750000Y-83791665I0J1250000D01*
G01*
X227250000Y-83791665D02*
G75*
G03*
X227250000Y-86291665I0J-1250000D01*
G01*
%TO.C,SW21*%
X141650000Y-107000000D02*
X141650000Y-108100000D01*
X141650000Y-108100000D02*
X140300000Y-108100000D01*
X143350000Y-107000000D02*
X143350000Y-108100000D01*
X143350000Y-108100000D02*
X144400000Y-108100000D01*
X143600000Y-113300000D02*
X140300000Y-113300000D01*
X146300000Y-115500000D02*
X143600000Y-113300000D01*
X146300000Y-115500000D02*
X150700000Y-115500000D01*
X147100000Y-110300000D02*
X144400000Y-108100000D01*
X147100000Y-110300000D02*
X150700000Y-110300000D01*
X140300000Y-108100000D02*
G75*
G03*
X140300000Y-113300000I0J-2600000D01*
G01*
X143350000Y-107000000D02*
G75*
G03*
X141650000Y-107000000I-850000J0D01*
G01*
X150700000Y-115500000D02*
G75*
G03*
X150700000Y-110300000I0J2600000D01*
G01*
%TO.C,SW54*%
X272150000Y-124000000D02*
X272150000Y-125100000D01*
X272150000Y-125100000D02*
X270800000Y-125100000D01*
X273850000Y-124000000D02*
X273850000Y-125100000D01*
X273850000Y-125100000D02*
X274900000Y-125100000D01*
X274100000Y-130300000D02*
X270800000Y-130300000D01*
X276800000Y-132500000D02*
X274100000Y-130300000D01*
X276800000Y-132500000D02*
X281200000Y-132500000D01*
X277600000Y-127300000D02*
X274900000Y-125100000D01*
X277600000Y-127300000D02*
X281200000Y-127300000D01*
X270800000Y-125100000D02*
G75*
G03*
X270800000Y-130300000I0J-2600000D01*
G01*
X273850000Y-124000000D02*
G75*
G03*
X272150000Y-124000000I-850000J0D01*
G01*
X281200000Y-132500000D02*
G75*
G03*
X281200000Y-127300000I0J2600000D01*
G01*
%TO.C,D45*%
X239750000Y-103291657D02*
X236250000Y-103291657D01*
X236250000Y-100791657D02*
X239750000Y-100791657D01*
X239750000Y-103291657D02*
G75*
G03*
X239750000Y-100791657I0J1250000D01*
G01*
X236250000Y-100791657D02*
G75*
G03*
X236250000Y-103291657I0J-1250000D01*
G01*
%TO.C,SW57*%
X276650000Y-90000000D02*
X276650000Y-91100000D01*
X276650000Y-91100000D02*
X275300000Y-91100000D01*
X278350000Y-90000000D02*
X278350000Y-91100000D01*
X278350000Y-91100000D02*
X279400000Y-91100000D01*
X278600000Y-96300000D02*
X275300000Y-96300000D01*
X281300000Y-98500000D02*
X278600000Y-96300000D01*
X281300000Y-98500000D02*
X285700000Y-98500000D01*
X282100000Y-93300000D02*
X279400000Y-91100000D01*
X282100000Y-93300000D02*
X285700000Y-93300000D01*
X275300000Y-91100000D02*
G75*
G03*
X275300000Y-96300000I0J-2600000D01*
G01*
X278350000Y-90000000D02*
G75*
G03*
X276650000Y-90000000I-850000J0D01*
G01*
X285700000Y-98500000D02*
G75*
G03*
X285700000Y-93300000I0J2600000D01*
G01*
%TO.C,D29*%
X183500000Y-154291633D02*
X180000000Y-154291633D01*
X180000000Y-151791633D02*
X183500000Y-151791633D01*
X183500000Y-154291633D02*
G75*
G03*
X183500000Y-151791633I0J1250000D01*
G01*
X180000000Y-151791633D02*
G75*
G03*
X180000000Y-154291633I0J-1250000D01*
G01*
%TO.C,D51*%
X262250000Y-120291649D02*
X258750000Y-120291649D01*
X258750000Y-117791649D02*
X262250000Y-117791649D01*
X262250000Y-120291649D02*
G75*
G03*
X262250000Y-117791649I0J1250000D01*
G01*
X258750000Y-117791649D02*
G75*
G03*
X258750000Y-120291649I0J-1250000D01*
G01*
%TO.C,SW24*%
X137400000Y-158000000D02*
X137400000Y-159100000D01*
X137400000Y-159100000D02*
X136050000Y-159100000D01*
X139100000Y-158000000D02*
X139100000Y-159100000D01*
X139100000Y-159100000D02*
X140150000Y-159100000D01*
X139350000Y-164300000D02*
X136050000Y-164300000D01*
X142050000Y-166500000D02*
X139350000Y-164300000D01*
X142050000Y-166500000D02*
X146450000Y-166500000D01*
X142850000Y-161300000D02*
X140150000Y-159100000D01*
X142850000Y-161300000D02*
X146450000Y-161300000D01*
X175400000Y-158000000D02*
X175400000Y-159100000D01*
X175400000Y-159100000D02*
X174050000Y-159100000D01*
X177100000Y-158000000D02*
X177100000Y-159100000D01*
X177100000Y-159100000D02*
X178150000Y-159100000D01*
X177350000Y-164300000D02*
X174050000Y-164300000D01*
X180050000Y-166500000D02*
X177350000Y-164300000D01*
X180050000Y-166500000D02*
X184450000Y-166500000D01*
X180850000Y-161300000D02*
X178150000Y-159100000D01*
X180850000Y-161300000D02*
X184450000Y-161300000D01*
X213400000Y-158000000D02*
X213400000Y-159100000D01*
X213400000Y-159100000D02*
X212050000Y-159100000D01*
X215100000Y-158000000D02*
X215100000Y-159100000D01*
X215100000Y-159100000D02*
X216150000Y-159100000D01*
X215350000Y-164300000D02*
X212050000Y-164300000D01*
X218050000Y-166500000D02*
X215350000Y-164300000D01*
X218050000Y-166500000D02*
X222450000Y-166500000D01*
X218850000Y-161300000D02*
X216150000Y-159100000D01*
X218850000Y-161300000D02*
X222450000Y-161300000D01*
X136050000Y-159100000D02*
G75*
G03*
X136050000Y-164300000I0J-2600000D01*
G01*
X139100000Y-158000000D02*
G75*
G03*
X137400000Y-158000000I-850000J0D01*
G01*
X146450000Y-166500000D02*
G75*
G03*
X146450000Y-161300000I0J2600000D01*
G01*
X174050000Y-159100000D02*
G75*
G03*
X174050000Y-164300000I0J-2600000D01*
G01*
X177100000Y-158000000D02*
G75*
G03*
X175400000Y-158000000I-850000J0D01*
G01*
X184450000Y-166500000D02*
G75*
G03*
X184450000Y-161300000I0J2600000D01*
G01*
X212050000Y-159100000D02*
G75*
G03*
X212050000Y-164300000I0J-2600000D01*
G01*
X215100000Y-158000000D02*
G75*
G03*
X213400000Y-158000000I-850000J0D01*
G01*
X222450000Y-166500000D02*
G75*
G03*
X222450000Y-161300000I0J2600000D01*
G01*
%TO.C,D21*%
X149750000Y-103291657D02*
X146250000Y-103291657D01*
X146250000Y-100791657D02*
X149750000Y-100791657D01*
X149750000Y-103291657D02*
G75*
G03*
X149750000Y-100791657I0J1250000D01*
G01*
X146250000Y-100791657D02*
G75*
G03*
X146250000Y-103291657I0J-1250000D01*
G01*
%TO.C,D58*%
X316250000Y-154291633D02*
X312750000Y-154291633D01*
X312750000Y-151791633D02*
X316250000Y-151791633D01*
X316250000Y-154291633D02*
G75*
G03*
X316250000Y-151791633I0J1250000D01*
G01*
X312750000Y-151791633D02*
G75*
G03*
X312750000Y-154291633I0J-1250000D01*
G01*
%TO.C,D60*%
X293750000Y-103291657D02*
X290250000Y-103291657D01*
X290250000Y-100791657D02*
X293750000Y-100791657D01*
X293750000Y-103291657D02*
G75*
G03*
X293750000Y-100791657I0J1250000D01*
G01*
X290250000Y-100791657D02*
G75*
G03*
X290250000Y-103291657I0J-1250000D01*
G01*
%TO.C,SW8*%
X92150000Y-124000000D02*
X92150000Y-125100000D01*
X92150000Y-125100000D02*
X90800000Y-125100000D01*
X93850000Y-124000000D02*
X93850000Y-125100000D01*
X93850000Y-125100000D02*
X94900000Y-125100000D01*
X94100000Y-130300000D02*
X90800000Y-130300000D01*
X96800000Y-132500000D02*
X94100000Y-130300000D01*
X96800000Y-132500000D02*
X101200000Y-132500000D01*
X97600000Y-127300000D02*
X94900000Y-125100000D01*
X97600000Y-127300000D02*
X101200000Y-127300000D01*
X90800000Y-125100000D02*
G75*
G03*
X90800000Y-130300000I0J-2600000D01*
G01*
X93850000Y-124000000D02*
G75*
G03*
X92150000Y-124000000I-850000J0D01*
G01*
X101200000Y-132500000D02*
G75*
G03*
X101200000Y-127300000I0J2600000D01*
G01*
%TO.C,SW3*%
X67400000Y-124000000D02*
X67400000Y-125100000D01*
X67400000Y-125100000D02*
X66050000Y-125100000D01*
X69100000Y-124000000D02*
X69100000Y-125100000D01*
X69100000Y-125100000D02*
X70150000Y-125100000D01*
X69350000Y-130300000D02*
X66050000Y-130300000D01*
X72050000Y-132500000D02*
X69350000Y-130300000D01*
X72050000Y-132500000D02*
X76450000Y-132500000D01*
X72850000Y-127300000D02*
X70150000Y-125100000D01*
X72850000Y-127300000D02*
X76450000Y-127300000D01*
X66050000Y-125100000D02*
G75*
G03*
X66050000Y-130300000I0J-2600000D01*
G01*
X69100000Y-124000000D02*
G75*
G03*
X67400000Y-124000000I-850000J0D01*
G01*
X76450000Y-132500000D02*
G75*
G03*
X76450000Y-127300000I0J2600000D01*
G01*
%TO.C,D41*%
X226250000Y-120291649D02*
X222750000Y-120291649D01*
X222750000Y-117791649D02*
X226250000Y-117791649D01*
X226250000Y-120291649D02*
G75*
G03*
X226250000Y-117791649I0J1250000D01*
G01*
X222750000Y-117791649D02*
G75*
G03*
X222750000Y-120291649I0J-1250000D01*
G01*
%TO.C,D31*%
X176750000Y-86291665D02*
X173250000Y-86291665D01*
X173250000Y-83791665D02*
X176750000Y-83791665D01*
X176750000Y-86291665D02*
G75*
G03*
X176750000Y-83791665I0J1250000D01*
G01*
X173250000Y-83791665D02*
G75*
G03*
X173250000Y-86291665I0J-1250000D01*
G01*
%TO.C,SW35*%
X200150000Y-124000000D02*
X200150000Y-125100000D01*
X200150000Y-125100000D02*
X198800000Y-125100000D01*
X201850000Y-124000000D02*
X201850000Y-125100000D01*
X201850000Y-125100000D02*
X202900000Y-125100000D01*
X202100000Y-130300000D02*
X198800000Y-130300000D01*
X204800000Y-132500000D02*
X202100000Y-130300000D01*
X204800000Y-132500000D02*
X209200000Y-132500000D01*
X205600000Y-127300000D02*
X202900000Y-125100000D01*
X205600000Y-127300000D02*
X209200000Y-127300000D01*
X198800000Y-125100000D02*
G75*
G03*
X198800000Y-130300000I0J-2600000D01*
G01*
X201850000Y-124000000D02*
G75*
G03*
X200150000Y-124000000I-850000J0D01*
G01*
X209200000Y-132500000D02*
G75*
G03*
X209200000Y-127300000I0J2600000D01*
G01*
%TO.C,D39*%
X212750000Y-86291665D02*
X209250000Y-86291665D01*
X209250000Y-83791665D02*
X212750000Y-83791665D01*
X212750000Y-86291665D02*
G75*
G03*
X212750000Y-83791665I0J1250000D01*
G01*
X209250000Y-83791665D02*
G75*
G03*
X209250000Y-86291665I0J-1250000D01*
G01*
%TO.C,SW9*%
X101150000Y-141000000D02*
X101150000Y-142100000D01*
X101150000Y-142100000D02*
X99800000Y-142100000D01*
X102850000Y-141000000D02*
X102850000Y-142100000D01*
X102850000Y-142100000D02*
X103900000Y-142100000D01*
X103100000Y-147300000D02*
X99800000Y-147300000D01*
X105800000Y-149500000D02*
X103100000Y-147300000D01*
X105800000Y-149500000D02*
X110200000Y-149500000D01*
X106600000Y-144300000D02*
X103900000Y-142100000D01*
X106600000Y-144300000D02*
X110200000Y-144300000D01*
X99800000Y-142100000D02*
G75*
G03*
X99800000Y-147300000I0J-2600000D01*
G01*
X102850000Y-141000000D02*
G75*
G03*
X101150000Y-141000000I-850000J0D01*
G01*
X110200000Y-149500000D02*
G75*
G03*
X110200000Y-144300000I0J2600000D01*
G01*
%TO.C,D52*%
X271250000Y-137291641D02*
X267750000Y-137291641D01*
X267750000Y-134791641D02*
X271250000Y-134791641D01*
X271250000Y-137291641D02*
G75*
G03*
X271250000Y-134791641I0J1250000D01*
G01*
X267750000Y-134791641D02*
G75*
G03*
X267750000Y-137291641I0J-1250000D01*
G01*
%TO.C,SW15*%
X107900000Y-158000000D02*
X107900000Y-159100000D01*
X107900000Y-159100000D02*
X106550000Y-159100000D01*
X109600000Y-158000000D02*
X109600000Y-159100000D01*
X109600000Y-159100000D02*
X110650000Y-159100000D01*
X109850000Y-164300000D02*
X106550000Y-164300000D01*
X112550000Y-166500000D02*
X109850000Y-164300000D01*
X112550000Y-166500000D02*
X116950000Y-166500000D01*
X113350000Y-161300000D02*
X110650000Y-159100000D01*
X113350000Y-161300000D02*
X116950000Y-161300000D01*
X106550000Y-159100000D02*
G75*
G03*
X106550000Y-164300000I0J-2600000D01*
G01*
X109600000Y-158000000D02*
G75*
G03*
X107900000Y-158000000I-850000J0D01*
G01*
X116950000Y-166500000D02*
G75*
G03*
X116950000Y-161300000I0J2600000D01*
G01*
%TO.C,SW4*%
X71900000Y-141000000D02*
X71900000Y-142100000D01*
X71900000Y-142100000D02*
X70550000Y-142100000D01*
X73600000Y-141000000D02*
X73600000Y-142100000D01*
X73600000Y-142100000D02*
X74650000Y-142100000D01*
X73850000Y-147300000D02*
X70550000Y-147300000D01*
X76550000Y-149500000D02*
X73850000Y-147300000D01*
X76550000Y-149500000D02*
X80950000Y-149500000D01*
X77350000Y-144300000D02*
X74650000Y-142100000D01*
X77350000Y-144300000D02*
X80950000Y-144300000D01*
X70550000Y-142100000D02*
G75*
G03*
X70550000Y-147300000I0J-2600000D01*
G01*
X73600000Y-141000000D02*
G75*
G03*
X71900000Y-141000000I-850000J0D01*
G01*
X80950000Y-149500000D02*
G75*
G03*
X80950000Y-144300000I0J2600000D01*
G01*
%TO.C,D26*%
X167750000Y-103291657D02*
X164250000Y-103291657D01*
X164250000Y-100791657D02*
X167750000Y-100791657D01*
X167750000Y-103291657D02*
G75*
G03*
X167750000Y-100791657I0J1250000D01*
G01*
X164250000Y-100791657D02*
G75*
G03*
X164250000Y-103291657I0J-1250000D01*
G01*
%TO.C,D10*%
X93500000Y-154291633D02*
X90000000Y-154291633D01*
X90000000Y-151791633D02*
X93500000Y-151791633D01*
X93500000Y-154291633D02*
G75*
G03*
X93500000Y-151791633I0J1250000D01*
G01*
X90000000Y-151791633D02*
G75*
G03*
X90000000Y-154291633I0J-1250000D01*
G01*
%TO.C,SW49*%
X254150000Y-124000000D02*
X254150000Y-125100000D01*
X254150000Y-125100000D02*
X252800000Y-125100000D01*
X255850000Y-124000000D02*
X255850000Y-125100000D01*
X255850000Y-125100000D02*
X256900000Y-125100000D01*
X256100000Y-130300000D02*
X252800000Y-130300000D01*
X258800000Y-132500000D02*
X256100000Y-130300000D01*
X258800000Y-132500000D02*
X263200000Y-132500000D01*
X259600000Y-127300000D02*
X256900000Y-125100000D01*
X259600000Y-127300000D02*
X263200000Y-127300000D01*
X252800000Y-125100000D02*
G75*
G03*
X252800000Y-130300000I0J-2600000D01*
G01*
X255850000Y-124000000D02*
G75*
G03*
X254150000Y-124000000I-850000J0D01*
G01*
X263200000Y-132500000D02*
G75*
G03*
X263200000Y-127300000I0J2600000D01*
G01*
%TO.C,D49*%
X248750000Y-86291665D02*
X245250000Y-86291665D01*
X245250000Y-83791665D02*
X248750000Y-83791665D01*
X248750000Y-86291665D02*
G75*
G03*
X248750000Y-83791665I0J1250000D01*
G01*
X245250000Y-83791665D02*
G75*
G03*
X245250000Y-86291665I0J-1250000D01*
G01*
%TO.C,SW42*%
X222650000Y-90000000D02*
X222650000Y-91100000D01*
X222650000Y-91100000D02*
X221300000Y-91100000D01*
X224350000Y-90000000D02*
X224350000Y-91100000D01*
X224350000Y-91100000D02*
X225400000Y-91100000D01*
X224600000Y-96300000D02*
X221300000Y-96300000D01*
X227300000Y-98500000D02*
X224600000Y-96300000D01*
X227300000Y-98500000D02*
X231700000Y-98500000D01*
X228100000Y-93300000D02*
X225400000Y-91100000D01*
X228100000Y-93300000D02*
X231700000Y-93300000D01*
X221300000Y-91100000D02*
G75*
G03*
X221300000Y-96300000I0J-2600000D01*
G01*
X224350000Y-90000000D02*
G75*
G03*
X222650000Y-90000000I-850000J0D01*
G01*
X231700000Y-98500000D02*
G75*
G03*
X231700000Y-93300000I0J2600000D01*
G01*
%TO.C,D33*%
X190250000Y-120291649D02*
X186750000Y-120291649D01*
X186750000Y-117791649D02*
X190250000Y-117791649D01*
X190250000Y-120291649D02*
G75*
G03*
X190250000Y-117791649I0J1250000D01*
G01*
X186750000Y-117791649D02*
G75*
G03*
X186750000Y-120291649I0J-1250000D01*
G01*
%TO.C,SW53*%
X267650000Y-107000000D02*
X267650000Y-108100000D01*
X267650000Y-108100000D02*
X266300000Y-108100000D01*
X269350000Y-107000000D02*
X269350000Y-108100000D01*
X269350000Y-108100000D02*
X270400000Y-108100000D01*
X269600000Y-113300000D02*
X266300000Y-113300000D01*
X272300000Y-115500000D02*
X269600000Y-113300000D01*
X272300000Y-115500000D02*
X276700000Y-115500000D01*
X273100000Y-110300000D02*
X270400000Y-108100000D01*
X273100000Y-110300000D02*
X276700000Y-110300000D01*
X266300000Y-108100000D02*
G75*
G03*
X266300000Y-113300000I0J-2600000D01*
G01*
X269350000Y-107000000D02*
G75*
G03*
X267650000Y-107000000I-850000J0D01*
G01*
X276700000Y-115500000D02*
G75*
G03*
X276700000Y-110300000I0J2600000D01*
G01*
%TO.C,D30*%
X221750000Y-154291633D02*
X218250000Y-154291633D01*
X218250000Y-151791633D02*
X221750000Y-151791633D01*
X221750000Y-154291633D02*
G75*
G03*
X221750000Y-151791633I0J1250000D01*
G01*
X218250000Y-151791633D02*
G75*
G03*
X218250000Y-154291633I0J-1250000D01*
G01*
%TO.C,D37*%
X208250000Y-120291649D02*
X204750000Y-120291649D01*
X204750000Y-117791649D02*
X208250000Y-117791649D01*
X208250000Y-120291649D02*
G75*
G03*
X208250000Y-117791649I0J1250000D01*
G01*
X204750000Y-117791649D02*
G75*
G03*
X204750000Y-120291649I0J-1250000D01*
G01*
%TO.C,SW1*%
X60650000Y-90000000D02*
X60650000Y-91100000D01*
X60650000Y-91100000D02*
X59300000Y-91100000D01*
X62350000Y-90000000D02*
X62350000Y-91100000D01*
X62350000Y-91100000D02*
X63400000Y-91100000D01*
X62600000Y-96300000D02*
X59300000Y-96300000D01*
X65300000Y-98500000D02*
X62600000Y-96300000D01*
X65300000Y-98500000D02*
X69700000Y-98500000D01*
X66100000Y-93300000D02*
X63400000Y-91100000D01*
X66100000Y-93300000D02*
X69700000Y-93300000D01*
X59300000Y-91100000D02*
G75*
G03*
X59300000Y-96300000I0J-2600000D01*
G01*
X62350000Y-90000000D02*
G75*
G03*
X60650000Y-90000000I-850000J0D01*
G01*
X69700000Y-98500000D02*
G75*
G03*
X69700000Y-93300000I0J2600000D01*
G01*
%TO.C,SW43*%
X231650000Y-107000000D02*
X231650000Y-108100000D01*
X231650000Y-108100000D02*
X230300000Y-108100000D01*
X233350000Y-107000000D02*
X233350000Y-108100000D01*
X233350000Y-108100000D02*
X234400000Y-108100000D01*
X233600000Y-113300000D02*
X230300000Y-113300000D01*
X236300000Y-115500000D02*
X233600000Y-113300000D01*
X236300000Y-115500000D02*
X240700000Y-115500000D01*
X237100000Y-110300000D02*
X234400000Y-108100000D01*
X237100000Y-110300000D02*
X240700000Y-110300000D01*
X230300000Y-108100000D02*
G75*
G03*
X230300000Y-113300000I0J-2600000D01*
G01*
X233350000Y-107000000D02*
G75*
G03*
X231650000Y-107000000I-850000J0D01*
G01*
X240700000Y-115500000D02*
G75*
G03*
X240700000Y-110300000I0J2600000D01*
G01*
%TO.C,D20*%
X140750000Y-86291665D02*
X137250000Y-86291665D01*
X137250000Y-83791665D02*
X140750000Y-83791665D01*
X140750000Y-86291665D02*
G75*
G03*
X140750000Y-83791665I0J1250000D01*
G01*
X137250000Y-83791665D02*
G75*
G03*
X137250000Y-86291665I0J-1250000D01*
G01*
%TO.C,SW58*%
X285650000Y-107000000D02*
X285650000Y-108100000D01*
X285650000Y-108100000D02*
X284300000Y-108100000D01*
X287350000Y-107000000D02*
X287350000Y-108100000D01*
X287350000Y-108100000D02*
X288400000Y-108100000D01*
X287600000Y-113300000D02*
X284300000Y-113300000D01*
X290300000Y-115500000D02*
X287600000Y-113300000D01*
X290300000Y-115500000D02*
X294700000Y-115500000D01*
X291100000Y-110300000D02*
X288400000Y-108100000D01*
X291100000Y-110300000D02*
X294700000Y-110300000D01*
X284300000Y-108100000D02*
G75*
G03*
X284300000Y-113300000I0J-2600000D01*
G01*
X287350000Y-107000000D02*
G75*
G03*
X285650000Y-107000000I-850000J0D01*
G01*
X294700000Y-115500000D02*
G75*
G03*
X294700000Y-110300000I0J2600000D01*
G01*
%TO.C,D48*%
X273500000Y-154291633D02*
X270000000Y-154291633D01*
X270000000Y-151791633D02*
X273500000Y-151791633D01*
X273500000Y-154291633D02*
G75*
G03*
X273500000Y-151791633I0J1250000D01*
G01*
X270000000Y-151791633D02*
G75*
G03*
X270000000Y-154291633I0J-1250000D01*
G01*
%TO.C,D36*%
X203750000Y-103291657D02*
X200250000Y-103291657D01*
X200250000Y-100791657D02*
X203750000Y-100791657D01*
X203750000Y-103291657D02*
G75*
G03*
X203750000Y-100791657I0J1250000D01*
G01*
X200250000Y-100791657D02*
G75*
G03*
X200250000Y-103291657I0J-1250000D01*
G01*
%TO.C,SW59*%
X296900000Y-124000000D02*
X296900000Y-125100000D01*
X296900000Y-125100000D02*
X295550000Y-125100000D01*
X298600000Y-124000000D02*
X298600000Y-125100000D01*
X298600000Y-125100000D02*
X299650000Y-125100000D01*
X298850000Y-130300000D02*
X295550000Y-130300000D01*
X301550000Y-132500000D02*
X298850000Y-130300000D01*
X301550000Y-132500000D02*
X305950000Y-132500000D01*
X302350000Y-127300000D02*
X299650000Y-125100000D01*
X302350000Y-127300000D02*
X305950000Y-127300000D01*
X295550000Y-125100000D02*
G75*
G03*
X295550000Y-130300000I0J-2600000D01*
G01*
X298600000Y-124000000D02*
G75*
G03*
X296900000Y-124000000I-850000J0D01*
G01*
X305950000Y-132500000D02*
G75*
G03*
X305950000Y-127300000I0J2600000D01*
G01*
%TO.C,SW29*%
X168650000Y-90000000D02*
X168650000Y-91100000D01*
X168650000Y-91100000D02*
X167300000Y-91100000D01*
X170350000Y-90000000D02*
X170350000Y-91100000D01*
X170350000Y-91100000D02*
X171400000Y-91100000D01*
X170600000Y-96300000D02*
X167300000Y-96300000D01*
X173300000Y-98500000D02*
X170600000Y-96300000D01*
X173300000Y-98500000D02*
X177700000Y-98500000D01*
X174100000Y-93300000D02*
X171400000Y-91100000D01*
X174100000Y-93300000D02*
X177700000Y-93300000D01*
X167300000Y-91100000D02*
G75*
G03*
X167300000Y-96300000I0J-2600000D01*
G01*
X170350000Y-90000000D02*
G75*
G03*
X168650000Y-90000000I-850000J0D01*
G01*
X177700000Y-98500000D02*
G75*
G03*
X177700000Y-93300000I0J2600000D01*
G01*
%TO.C,D6*%
X86750000Y-86291665D02*
X83250000Y-86291665D01*
X83250000Y-83791665D02*
X86750000Y-83791665D01*
X86750000Y-86291665D02*
G75*
G03*
X86750000Y-83791665I0J1250000D01*
G01*
X83250000Y-83791665D02*
G75*
G03*
X83250000Y-86291665I0J-1250000D01*
G01*
%TO.C,SW7*%
X87650000Y-107000000D02*
X87650000Y-108100000D01*
X87650000Y-108100000D02*
X86300000Y-108100000D01*
X89350000Y-107000000D02*
X89350000Y-108100000D01*
X89350000Y-108100000D02*
X90400000Y-108100000D01*
X89600000Y-113300000D02*
X86300000Y-113300000D01*
X92300000Y-115500000D02*
X89600000Y-113300000D01*
X92300000Y-115500000D02*
X96700000Y-115500000D01*
X93100000Y-110300000D02*
X90400000Y-108100000D01*
X93100000Y-110300000D02*
X96700000Y-110300000D01*
X86300000Y-108100000D02*
G75*
G03*
X86300000Y-113300000I0J-2600000D01*
G01*
X89350000Y-107000000D02*
G75*
G03*
X87650000Y-107000000I-850000J0D01*
G01*
X96700000Y-115500000D02*
G75*
G03*
X96700000Y-110300000I0J2600000D01*
G01*
%TO.C,SW34*%
X195650000Y-107000000D02*
X195650000Y-108100000D01*
X195650000Y-108100000D02*
X194300000Y-108100000D01*
X197350000Y-107000000D02*
X197350000Y-108100000D01*
X197350000Y-108100000D02*
X198400000Y-108100000D01*
X197600000Y-113300000D02*
X194300000Y-113300000D01*
X200300000Y-115500000D02*
X197600000Y-113300000D01*
X200300000Y-115500000D02*
X204700000Y-115500000D01*
X201100000Y-110300000D02*
X198400000Y-108100000D01*
X201100000Y-110300000D02*
X204700000Y-110300000D01*
X194300000Y-108100000D02*
G75*
G03*
X194300000Y-113300000I0J-2600000D01*
G01*
X197350000Y-107000000D02*
G75*
G03*
X195650000Y-107000000I-850000J0D01*
G01*
X204700000Y-115500000D02*
G75*
G03*
X204700000Y-110300000I0J2600000D01*
G01*
%TO.C,SW22*%
X146150000Y-124000000D02*
X146150000Y-125100000D01*
X146150000Y-125100000D02*
X144800000Y-125100000D01*
X147850000Y-124000000D02*
X147850000Y-125100000D01*
X147850000Y-125100000D02*
X148900000Y-125100000D01*
X148100000Y-130300000D02*
X144800000Y-130300000D01*
X150800000Y-132500000D02*
X148100000Y-130300000D01*
X150800000Y-132500000D02*
X155200000Y-132500000D01*
X151600000Y-127300000D02*
X148900000Y-125100000D01*
X151600000Y-127300000D02*
X155200000Y-127300000D01*
X144800000Y-125100000D02*
G75*
G03*
X144800000Y-130300000I0J-2600000D01*
G01*
X147850000Y-124000000D02*
G75*
G03*
X146150000Y-124000000I-850000J0D01*
G01*
X155200000Y-132500000D02*
G75*
G03*
X155200000Y-127300000I0J2600000D01*
G01*
%TO.C,D43*%
X251000000Y-154291633D02*
X247500000Y-154291633D01*
X247500000Y-151791633D02*
X251000000Y-151791633D01*
X251000000Y-154291633D02*
G75*
G03*
X251000000Y-151791633I0J1250000D01*
G01*
X247500000Y-151791633D02*
G75*
G03*
X247500000Y-154291633I0J-1250000D01*
G01*
%TO.C,SW6*%
X78650000Y-90000000D02*
X78650000Y-91100000D01*
X78650000Y-91100000D02*
X77300000Y-91100000D01*
X80350000Y-90000000D02*
X80350000Y-91100000D01*
X80350000Y-91100000D02*
X81400000Y-91100000D01*
X80600000Y-96300000D02*
X77300000Y-96300000D01*
X83300000Y-98500000D02*
X80600000Y-96300000D01*
X83300000Y-98500000D02*
X87700000Y-98500000D01*
X84100000Y-93300000D02*
X81400000Y-91100000D01*
X84100000Y-93300000D02*
X87700000Y-93300000D01*
X77300000Y-91100000D02*
G75*
G03*
X77300000Y-96300000I0J-2600000D01*
G01*
X80350000Y-90000000D02*
G75*
G03*
X78650000Y-90000000I-850000J0D01*
G01*
X87700000Y-98500000D02*
G75*
G03*
X87700000Y-93300000I0J2600000D01*
G01*
%TO.C,SW30*%
X177650000Y-107000000D02*
X177650000Y-108100000D01*
X177650000Y-108100000D02*
X176300000Y-108100000D01*
X179350000Y-107000000D02*
X179350000Y-108100000D01*
X179350000Y-108100000D02*
X180400000Y-108100000D01*
X179600000Y-113300000D02*
X176300000Y-113300000D01*
X182300000Y-115500000D02*
X179600000Y-113300000D01*
X182300000Y-115500000D02*
X186700000Y-115500000D01*
X183100000Y-110300000D02*
X180400000Y-108100000D01*
X183100000Y-110300000D02*
X186700000Y-110300000D01*
X176300000Y-108100000D02*
G75*
G03*
X176300000Y-113300000I0J-2600000D01*
G01*
X179350000Y-107000000D02*
G75*
G03*
X177650000Y-107000000I-850000J0D01*
G01*
X186700000Y-115500000D02*
G75*
G03*
X186700000Y-110300000I0J2600000D01*
G01*
%TO.C,SW37*%
X204650000Y-90000000D02*
X204650000Y-91100000D01*
X204650000Y-91100000D02*
X203300000Y-91100000D01*
X206350000Y-90000000D02*
X206350000Y-91100000D01*
X206350000Y-91100000D02*
X207400000Y-91100000D01*
X206600000Y-96300000D02*
X203300000Y-96300000D01*
X209300000Y-98500000D02*
X206600000Y-96300000D01*
X209300000Y-98500000D02*
X213700000Y-98500000D01*
X210100000Y-93300000D02*
X207400000Y-91100000D01*
X210100000Y-93300000D02*
X213700000Y-93300000D01*
X203300000Y-91100000D02*
G75*
G03*
X203300000Y-96300000I0J-2600000D01*
G01*
X206350000Y-90000000D02*
G75*
G03*
X204650000Y-90000000I-850000J0D01*
G01*
X213700000Y-98500000D02*
G75*
G03*
X213700000Y-93300000I0J2600000D01*
G01*
%TO.C,SW61*%
X326150000Y-158000000D02*
X326150000Y-159100000D01*
X326150000Y-159100000D02*
X324800000Y-159100000D01*
X327850000Y-158000000D02*
X327850000Y-159100000D01*
X327850000Y-159100000D02*
X328900000Y-159100000D01*
X328100000Y-164300000D02*
X324800000Y-164300000D01*
X330800000Y-166500000D02*
X328100000Y-164300000D01*
X330800000Y-166500000D02*
X335200000Y-166500000D01*
X331600000Y-161300000D02*
X328900000Y-159100000D01*
X331600000Y-161300000D02*
X335200000Y-161300000D01*
X324800000Y-159100000D02*
G75*
G03*
X324800000Y-164300000I0J-2600000D01*
G01*
X327850000Y-158000000D02*
G75*
G03*
X326150000Y-158000000I-850000J0D01*
G01*
X335200000Y-166500000D02*
G75*
G03*
X335200000Y-161300000I0J2600000D01*
G01*
%TO.C,SW23*%
X155150000Y-141000000D02*
X155150000Y-142100000D01*
X155150000Y-142100000D02*
X153800000Y-142100000D01*
X156850000Y-141000000D02*
X156850000Y-142100000D01*
X156850000Y-142100000D02*
X157900000Y-142100000D01*
X157100000Y-147300000D02*
X153800000Y-147300000D01*
X159800000Y-149500000D02*
X157100000Y-147300000D01*
X159800000Y-149500000D02*
X164200000Y-149500000D01*
X160600000Y-144300000D02*
X157900000Y-142100000D01*
X160600000Y-144300000D02*
X164200000Y-144300000D01*
X153800000Y-142100000D02*
G75*
G03*
X153800000Y-147300000I0J-2600000D01*
G01*
X156850000Y-141000000D02*
G75*
G03*
X155150000Y-141000000I-850000J0D01*
G01*
X164200000Y-149500000D02*
G75*
G03*
X164200000Y-144300000I0J2600000D01*
G01*
%TO.C,SW31*%
X182150000Y-124000000D02*
X182150000Y-125100000D01*
X182150000Y-125100000D02*
X180800000Y-125100000D01*
X183850000Y-124000000D02*
X183850000Y-125100000D01*
X183850000Y-125100000D02*
X184900000Y-125100000D01*
X184100000Y-130300000D02*
X180800000Y-130300000D01*
X186800000Y-132500000D02*
X184100000Y-130300000D01*
X186800000Y-132500000D02*
X191200000Y-132500000D01*
X187600000Y-127300000D02*
X184900000Y-125100000D01*
X187600000Y-127300000D02*
X191200000Y-127300000D01*
X180800000Y-125100000D02*
G75*
G03*
X180800000Y-130300000I0J-2600000D01*
G01*
X183850000Y-124000000D02*
G75*
G03*
X182150000Y-124000000I-850000J0D01*
G01*
X191200000Y-132500000D02*
G75*
G03*
X191200000Y-127300000I0J2600000D01*
G01*
%TO.C,SW46*%
X265400000Y-158000000D02*
X265400000Y-159100000D01*
X265400000Y-159100000D02*
X264050000Y-159100000D01*
X267100000Y-158000000D02*
X267100000Y-159100000D01*
X267100000Y-159100000D02*
X268150000Y-159100000D01*
X267350000Y-164300000D02*
X264050000Y-164300000D01*
X270050000Y-166500000D02*
X267350000Y-164300000D01*
X270050000Y-166500000D02*
X274450000Y-166500000D01*
X270850000Y-161300000D02*
X268150000Y-159100000D01*
X270850000Y-161300000D02*
X274450000Y-161300000D01*
X264050000Y-159100000D02*
G75*
G03*
X264050000Y-164300000I0J-2600000D01*
G01*
X267100000Y-158000000D02*
G75*
G03*
X265400000Y-158000000I-850000J0D01*
G01*
X274450000Y-166500000D02*
G75*
G03*
X274450000Y-161300000I0J2600000D01*
G01*
%TO.C,D64*%
X307250000Y-86291665D02*
X303750000Y-86291665D01*
X303750000Y-83791665D02*
X307250000Y-83791665D01*
X307250000Y-86291665D02*
G75*
G03*
X307250000Y-83791665I0J1250000D01*
G01*
X303750000Y-83791665D02*
G75*
G03*
X303750000Y-86291665I0J-1250000D01*
G01*
%TO.C,D66*%
X352250000Y-154291633D02*
X348750000Y-154291633D01*
X348750000Y-151791633D02*
X352250000Y-151791633D01*
X352250000Y-154291633D02*
G75*
G03*
X352250000Y-151791633I0J1250000D01*
G01*
X348750000Y-151791633D02*
G75*
G03*
X348750000Y-154291633I0J-1250000D01*
G01*
%TO.C,SW14*%
X119150000Y-141000000D02*
X119150000Y-142100000D01*
X119150000Y-142100000D02*
X117800000Y-142100000D01*
X120850000Y-141000000D02*
X120850000Y-142100000D01*
X120850000Y-142100000D02*
X121900000Y-142100000D01*
X121100000Y-147300000D02*
X117800000Y-147300000D01*
X123800000Y-149500000D02*
X121100000Y-147300000D01*
X123800000Y-149500000D02*
X128200000Y-149500000D01*
X124600000Y-144300000D02*
X121900000Y-142100000D01*
X124600000Y-144300000D02*
X128200000Y-144300000D01*
X117800000Y-142100000D02*
G75*
G03*
X117800000Y-147300000I0J-2600000D01*
G01*
X120850000Y-141000000D02*
G75*
G03*
X119150000Y-141000000I-850000J0D01*
G01*
X128200000Y-149500000D02*
G75*
G03*
X128200000Y-144300000I0J2600000D01*
G01*
%TO.C,D54*%
X266750000Y-86291665D02*
X263250000Y-86291665D01*
X263250000Y-83791665D02*
X266750000Y-83791665D01*
X266750000Y-86291665D02*
G75*
G03*
X266750000Y-83791665I0J1250000D01*
G01*
X263250000Y-83791665D02*
G75*
G03*
X263250000Y-86291665I0J-1250000D01*
G01*
%TO.C,D46*%
X244250000Y-120291649D02*
X240750000Y-120291649D01*
X240750000Y-117791649D02*
X244250000Y-117791649D01*
X244250000Y-120291649D02*
G75*
G03*
X244250000Y-117791649I0J1250000D01*
G01*
X240750000Y-117791649D02*
G75*
G03*
X240750000Y-120291649I0J-1250000D01*
G01*
%TO.C,U1*%
X326501257Y-106347927D02*
X326501257Y-93247877D01*
X329501251Y-93247877D02*
X329501251Y-106347927D01*
X353501509Y-106347828D02*
X353501509Y-93247778D01*
X356501503Y-93247778D02*
X356501503Y-106347828D01*
X329501250Y-93247878D02*
G75*
G03*
X326501258Y-93247878I-1499996J-2195843D01*
G01*
X326501257Y-106347927D02*
G75*
G03*
X329501251Y-106347927I1499997J2195855D01*
G01*
X356501502Y-93247779D02*
G75*
G03*
X353501510Y-93247779I-1499996J-2195843D01*
G01*
X353501510Y-106347827D02*
G75*
G03*
X356501502Y-106347827I1499996J2195843D01*
G01*
%TO.C,SW50*%
X263150000Y-141000000D02*
X263150000Y-142100000D01*
X263150000Y-142100000D02*
X261800000Y-142100000D01*
X264850000Y-141000000D02*
X264850000Y-142100000D01*
X264850000Y-142100000D02*
X265900000Y-142100000D01*
X265100000Y-147300000D02*
X261800000Y-147300000D01*
X267800000Y-149500000D02*
X265100000Y-147300000D01*
X267800000Y-149500000D02*
X272200000Y-149500000D01*
X268600000Y-144300000D02*
X265900000Y-142100000D01*
X268600000Y-144300000D02*
X272200000Y-144300000D01*
X261800000Y-142100000D02*
G75*
G03*
X261800000Y-147300000I0J-2600000D01*
G01*
X264850000Y-141000000D02*
G75*
G03*
X263150000Y-141000000I-850000J0D01*
G01*
X272200000Y-149500000D02*
G75*
G03*
X272200000Y-144300000I0J2600000D01*
G01*
%TO.C,D5*%
X71000000Y-154291633D02*
X67500000Y-154291633D01*
X67500000Y-151791633D02*
X71000000Y-151791633D01*
X71000000Y-154291633D02*
G75*
G03*
X71000000Y-151791633I0J1250000D01*
G01*
X67500000Y-151791633D02*
G75*
G03*
X67500000Y-154291633I0J-1250000D01*
G01*
%TO.C,SW27*%
X164150000Y-124000000D02*
X164150000Y-125100000D01*
X164150000Y-125100000D02*
X162800000Y-125100000D01*
X165850000Y-124000000D02*
X165850000Y-125100000D01*
X165850000Y-125100000D02*
X166900000Y-125100000D01*
X166100000Y-130300000D02*
X162800000Y-130300000D01*
X168800000Y-132500000D02*
X166100000Y-130300000D01*
X168800000Y-132500000D02*
X173200000Y-132500000D01*
X169600000Y-127300000D02*
X166900000Y-125100000D01*
X169600000Y-127300000D02*
X173200000Y-127300000D01*
X162800000Y-125100000D02*
G75*
G03*
X162800000Y-130300000I0J-2600000D01*
G01*
X165850000Y-124000000D02*
G75*
G03*
X164150000Y-124000000I-850000J0D01*
G01*
X173200000Y-132500000D02*
G75*
G03*
X173200000Y-127300000I0J2600000D01*
G01*
%TO.C,SW13*%
X110150000Y-124000000D02*
X110150000Y-125100000D01*
X110150000Y-125100000D02*
X108800000Y-125100000D01*
X111850000Y-124000000D02*
X111850000Y-125100000D01*
X111850000Y-125100000D02*
X112900000Y-125100000D01*
X112100000Y-130300000D02*
X108800000Y-130300000D01*
X114800000Y-132500000D02*
X112100000Y-130300000D01*
X114800000Y-132500000D02*
X119200000Y-132500000D01*
X115600000Y-127300000D02*
X112900000Y-125100000D01*
X115600000Y-127300000D02*
X119200000Y-127300000D01*
X108800000Y-125100000D02*
G75*
G03*
X108800000Y-130300000I0J-2600000D01*
G01*
X111850000Y-124000000D02*
G75*
G03*
X110150000Y-124000000I-850000J0D01*
G01*
X119200000Y-132500000D02*
G75*
G03*
X119200000Y-127300000I0J2600000D01*
G01*
%TO.C,SW17*%
X123650000Y-107000000D02*
X123650000Y-108100000D01*
X123650000Y-108100000D02*
X122300000Y-108100000D01*
X125350000Y-107000000D02*
X125350000Y-108100000D01*
X125350000Y-108100000D02*
X126400000Y-108100000D01*
X125600000Y-113300000D02*
X122300000Y-113300000D01*
X128300000Y-115500000D02*
X125600000Y-113300000D01*
X128300000Y-115500000D02*
X132700000Y-115500000D01*
X129100000Y-110300000D02*
X126400000Y-108100000D01*
X129100000Y-110300000D02*
X132700000Y-110300000D01*
X122300000Y-108100000D02*
G75*
G03*
X122300000Y-113300000I0J-2600000D01*
G01*
X125350000Y-107000000D02*
G75*
G03*
X123650000Y-107000000I-850000J0D01*
G01*
X132700000Y-115500000D02*
G75*
G03*
X132700000Y-110300000I0J2600000D01*
G01*
%TO.C,SW45*%
X245150000Y-141000000D02*
X245150000Y-142100000D01*
X245150000Y-142100000D02*
X243800000Y-142100000D01*
X246850000Y-141000000D02*
X246850000Y-142100000D01*
X246850000Y-142100000D02*
X247900000Y-142100000D01*
X247100000Y-147300000D02*
X243800000Y-147300000D01*
X249800000Y-149500000D02*
X247100000Y-147300000D01*
X249800000Y-149500000D02*
X254200000Y-149500000D01*
X250600000Y-144300000D02*
X247900000Y-142100000D01*
X250600000Y-144300000D02*
X254200000Y-144300000D01*
X243800000Y-142100000D02*
G75*
G03*
X243800000Y-147300000I0J-2600000D01*
G01*
X246850000Y-141000000D02*
G75*
G03*
X245150000Y-141000000I-850000J0D01*
G01*
X254200000Y-149500000D02*
G75*
G03*
X254200000Y-144300000I0J2600000D01*
G01*
%TO.C,D22*%
X154250000Y-120291649D02*
X150750000Y-120291649D01*
X150750000Y-117791649D02*
X154250000Y-117791649D01*
X154250000Y-120291649D02*
G75*
G03*
X154250000Y-117791649I0J1250000D01*
G01*
X150750000Y-117791649D02*
G75*
G03*
X150750000Y-120291649I0J-1250000D01*
G01*
%TO.C,D65*%
X311750000Y-103291657D02*
X308250000Y-103291657D01*
X308250000Y-100791657D02*
X311750000Y-100791657D01*
X311750000Y-103291657D02*
G75*
G03*
X311750000Y-100791657I0J1250000D01*
G01*
X308250000Y-100791657D02*
G75*
G03*
X308250000Y-103291657I0J-1250000D01*
G01*
%TO.C,D4*%
X80000000Y-137291641D02*
X76500000Y-137291641D01*
X76500000Y-134791641D02*
X80000000Y-134791641D01*
X80000000Y-137291641D02*
G75*
G03*
X80000000Y-134791641I0J1250000D01*
G01*
X76500000Y-134791641D02*
G75*
G03*
X76500000Y-137291641I0J-1250000D01*
G01*
%TO.C,D15*%
X116000000Y-154291633D02*
X112500000Y-154291633D01*
X112500000Y-151791633D02*
X116000000Y-151791633D01*
X116000000Y-154291633D02*
G75*
G03*
X116000000Y-151791633I0J1250000D01*
G01*
X112500000Y-151791633D02*
G75*
G03*
X112500000Y-154291633I0J-1250000D01*
G01*
%TO.C,SW2*%
X65150000Y-107000000D02*
X65150000Y-108100000D01*
X65150000Y-108100000D02*
X63800000Y-108100000D01*
X66850000Y-107000000D02*
X66850000Y-108100000D01*
X66850000Y-108100000D02*
X67900000Y-108100000D01*
X67100000Y-113300000D02*
X63800000Y-113300000D01*
X69800000Y-115500000D02*
X67100000Y-113300000D01*
X69800000Y-115500000D02*
X74200000Y-115500000D01*
X70600000Y-110300000D02*
X67900000Y-108100000D01*
X70600000Y-110300000D02*
X74200000Y-110300000D01*
X63800000Y-108100000D02*
G75*
G03*
X63800000Y-113300000I0J-2600000D01*
G01*
X66850000Y-107000000D02*
G75*
G03*
X65150000Y-107000000I-850000J0D01*
G01*
X74200000Y-115500000D02*
G75*
G03*
X74200000Y-110300000I0J2600000D01*
G01*
%TO.C,D2*%
X73250000Y-103291657D02*
X69750000Y-103291657D01*
X69750000Y-100791657D02*
X73250000Y-100791657D01*
X73250000Y-103291657D02*
G75*
G03*
X73250000Y-100791657I0J1250000D01*
G01*
X69750000Y-100791657D02*
G75*
G03*
X69750000Y-103291657I0J-1250000D01*
G01*
%TO.C,D17*%
X131750000Y-103291657D02*
X128250000Y-103291657D01*
X128250000Y-100791657D02*
X131750000Y-100791657D01*
X131750000Y-103291657D02*
G75*
G03*
X131750000Y-100791657I0J1250000D01*
G01*
X128250000Y-100791657D02*
G75*
G03*
X128250000Y-103291657I0J-1250000D01*
G01*
%TO.C,SW5*%
X62900000Y-158000000D02*
X62900000Y-159100000D01*
X62900000Y-159100000D02*
X61550000Y-159100000D01*
X64600000Y-158000000D02*
X64600000Y-159100000D01*
X64600000Y-159100000D02*
X65650000Y-159100000D01*
X64850000Y-164300000D02*
X61550000Y-164300000D01*
X67550000Y-166500000D02*
X64850000Y-164300000D01*
X67550000Y-166500000D02*
X71950000Y-166500000D01*
X68350000Y-161300000D02*
X65650000Y-159100000D01*
X68350000Y-161300000D02*
X71950000Y-161300000D01*
X61550000Y-159100000D02*
G75*
G03*
X61550000Y-164300000I0J-2600000D01*
G01*
X64600000Y-158000000D02*
G75*
G03*
X62900000Y-158000000I-850000J0D01*
G01*
X71950000Y-166500000D02*
G75*
G03*
X71950000Y-161300000I0J2600000D01*
G01*
%TO.C,SW64*%
X344150000Y-158000000D02*
X344150000Y-159100000D01*
X344150000Y-159100000D02*
X342800000Y-159100000D01*
X345850000Y-158000000D02*
X345850000Y-159100000D01*
X345850000Y-159100000D02*
X346900000Y-159100000D01*
X346100000Y-164300000D02*
X342800000Y-164300000D01*
X348800000Y-166500000D02*
X346100000Y-164300000D01*
X348800000Y-166500000D02*
X353200000Y-166500000D01*
X349600000Y-161300000D02*
X346900000Y-159100000D01*
X349600000Y-161300000D02*
X353200000Y-161300000D01*
X342800000Y-159100000D02*
G75*
G03*
X342800000Y-164300000I0J-2600000D01*
G01*
X345850000Y-158000000D02*
G75*
G03*
X344150000Y-158000000I-850000J0D01*
G01*
X353200000Y-166500000D02*
G75*
G03*
X353200000Y-161300000I0J2600000D01*
G01*
%TO.C,D32*%
X185750000Y-103291657D02*
X182250000Y-103291657D01*
X182250000Y-100791657D02*
X185750000Y-100791657D01*
X185750000Y-103291657D02*
G75*
G03*
X185750000Y-100791657I0J1250000D01*
G01*
X182250000Y-100791657D02*
G75*
G03*
X182250000Y-103291657I0J-1250000D01*
G01*
%TO.C,D53*%
X293750000Y-154291633D02*
X290250000Y-154291633D01*
X290250000Y-151791633D02*
X293750000Y-151791633D01*
X293750000Y-154291633D02*
G75*
G03*
X293750000Y-151791633I0J1250000D01*
G01*
X290250000Y-151791633D02*
G75*
G03*
X290250000Y-154291633I0J-1250000D01*
G01*
%TO.C,SW12*%
X105650000Y-107000000D02*
X105650000Y-108100000D01*
X105650000Y-108100000D02*
X104300000Y-108100000D01*
X107350000Y-107000000D02*
X107350000Y-108100000D01*
X107350000Y-108100000D02*
X108400000Y-108100000D01*
X107600000Y-113300000D02*
X104300000Y-113300000D01*
X110300000Y-115500000D02*
X107600000Y-113300000D01*
X110300000Y-115500000D02*
X114700000Y-115500000D01*
X111100000Y-110300000D02*
X108400000Y-108100000D01*
X111100000Y-110300000D02*
X114700000Y-110300000D01*
X104300000Y-108100000D02*
G75*
G03*
X104300000Y-113300000I0J-2600000D01*
G01*
X107350000Y-107000000D02*
G75*
G03*
X105650000Y-107000000I-850000J0D01*
G01*
X114700000Y-115500000D02*
G75*
G03*
X114700000Y-110300000I0J2600000D01*
G01*
%TO.C,D8*%
X100250000Y-120291649D02*
X96750000Y-120291649D01*
X96750000Y-117791649D02*
X100250000Y-117791649D01*
X100250000Y-120291649D02*
G75*
G03*
X100250000Y-117791649I0J1250000D01*
G01*
X96750000Y-117791649D02*
G75*
G03*
X96750000Y-120291649I0J-1250000D01*
G01*
%TO.C,D35*%
X194750000Y-86291665D02*
X191250000Y-86291665D01*
X191250000Y-83791665D02*
X194750000Y-83791665D01*
X194750000Y-86291665D02*
G75*
G03*
X194750000Y-83791665I0J1250000D01*
G01*
X191250000Y-83791665D02*
G75*
G03*
X191250000Y-86291665I0J-1250000D01*
G01*
%TO.C,D13*%
X118250000Y-120291649D02*
X114750000Y-120291649D01*
X114750000Y-117791649D02*
X118250000Y-117791649D01*
X118250000Y-120291649D02*
G75*
G03*
X118250000Y-117791649I0J1250000D01*
G01*
X114750000Y-117791649D02*
G75*
G03*
X114750000Y-120291649I0J-1250000D01*
G01*
%TO.C,SW60*%
X326150000Y-141000000D02*
X326150000Y-142100000D01*
X326150000Y-142100000D02*
X324800000Y-142100000D01*
X327850000Y-141000000D02*
X327850000Y-142100000D01*
X327850000Y-142100000D02*
X328900000Y-142100000D01*
X328100000Y-147300000D02*
X324800000Y-147300000D01*
X330800000Y-149500000D02*
X328100000Y-147300000D01*
X330800000Y-149500000D02*
X335200000Y-149500000D01*
X331600000Y-144300000D02*
X328900000Y-142100000D01*
X331600000Y-144300000D02*
X335200000Y-144300000D01*
X324800000Y-142100000D02*
G75*
G03*
X324800000Y-147300000I0J-2600000D01*
G01*
X327850000Y-141000000D02*
G75*
G03*
X326150000Y-141000000I-850000J0D01*
G01*
X335200000Y-149500000D02*
G75*
G03*
X335200000Y-144300000I0J2600000D01*
G01*
%TO.C,SW32*%
X191150000Y-141000000D02*
X191150000Y-142100000D01*
X191150000Y-142100000D02*
X189800000Y-142100000D01*
X192850000Y-141000000D02*
X192850000Y-142100000D01*
X192850000Y-142100000D02*
X193900000Y-142100000D01*
X193100000Y-147300000D02*
X189800000Y-147300000D01*
X195800000Y-149500000D02*
X193100000Y-147300000D01*
X195800000Y-149500000D02*
X200200000Y-149500000D01*
X196600000Y-144300000D02*
X193900000Y-142100000D01*
X196600000Y-144300000D02*
X200200000Y-144300000D01*
X189800000Y-142100000D02*
G75*
G03*
X189800000Y-147300000I0J-2600000D01*
G01*
X192850000Y-141000000D02*
G75*
G03*
X191150000Y-141000000I-850000J0D01*
G01*
X200200000Y-149500000D02*
G75*
G03*
X200200000Y-144300000I0J2600000D01*
G01*
%TO.C,D56*%
X280250000Y-120291649D02*
X276750000Y-120291649D01*
X276750000Y-117791649D02*
X280250000Y-117791649D01*
X280250000Y-120291649D02*
G75*
G03*
X280250000Y-117791649I0J1250000D01*
G01*
X276750000Y-117791649D02*
G75*
G03*
X276750000Y-120291649I0J-1250000D01*
G01*
%TO.C,D23*%
X163250000Y-137291641D02*
X159750000Y-137291641D01*
X159750000Y-134791641D02*
X163250000Y-134791641D01*
X163250000Y-137291641D02*
G75*
G03*
X163250000Y-134791641I0J1250000D01*
G01*
X159750000Y-134791641D02*
G75*
G03*
X159750000Y-137291641I0J-1250000D01*
G01*
%TO.C,SW55*%
X292400000Y-141000000D02*
X292400000Y-142100000D01*
X292400000Y-142100000D02*
X291050000Y-142100000D01*
X294100000Y-141000000D02*
X294100000Y-142100000D01*
X294100000Y-142100000D02*
X295150000Y-142100000D01*
X294350000Y-147300000D02*
X291050000Y-147300000D01*
X297050000Y-149500000D02*
X294350000Y-147300000D01*
X297050000Y-149500000D02*
X301450000Y-149500000D01*
X297850000Y-144300000D02*
X295150000Y-142100000D01*
X297850000Y-144300000D02*
X301450000Y-144300000D01*
X291050000Y-142100000D02*
G75*
G03*
X291050000Y-147300000I0J-2600000D01*
G01*
X294100000Y-141000000D02*
G75*
G03*
X292400000Y-141000000I-850000J0D01*
G01*
X301450000Y-149500000D02*
G75*
G03*
X301450000Y-144300000I0J2600000D01*
G01*
%TO.C,SW47*%
X240650000Y-90000000D02*
X240650000Y-91100000D01*
X240650000Y-91100000D02*
X239300000Y-91100000D01*
X242350000Y-90000000D02*
X242350000Y-91100000D01*
X242350000Y-91100000D02*
X243400000Y-91100000D01*
X242600000Y-96300000D02*
X239300000Y-96300000D01*
X245300000Y-98500000D02*
X242600000Y-96300000D01*
X245300000Y-98500000D02*
X249700000Y-98500000D01*
X246100000Y-93300000D02*
X243400000Y-91100000D01*
X246100000Y-93300000D02*
X249700000Y-93300000D01*
X239300000Y-91100000D02*
G75*
G03*
X239300000Y-96300000I0J-2600000D01*
G01*
X242350000Y-90000000D02*
G75*
G03*
X240650000Y-90000000I-850000J0D01*
G01*
X249700000Y-98500000D02*
G75*
G03*
X249700000Y-93300000I0J2600000D01*
G01*
%TO.C,D27*%
X172250000Y-120291649D02*
X168750000Y-120291649D01*
X168750000Y-117791649D02*
X172250000Y-117791649D01*
X172250000Y-120291649D02*
G75*
G03*
X172250000Y-117791649I0J1250000D01*
G01*
X168750000Y-117791649D02*
G75*
G03*
X168750000Y-120291649I0J-1250000D01*
G01*
%TO.C,SW28*%
X173150000Y-141000000D02*
X173150000Y-142100000D01*
X173150000Y-142100000D02*
X171800000Y-142100000D01*
X174850000Y-141000000D02*
X174850000Y-142100000D01*
X174850000Y-142100000D02*
X175900000Y-142100000D01*
X175100000Y-147300000D02*
X171800000Y-147300000D01*
X177800000Y-149500000D02*
X175100000Y-147300000D01*
X177800000Y-149500000D02*
X182200000Y-149500000D01*
X178600000Y-144300000D02*
X175900000Y-142100000D01*
X178600000Y-144300000D02*
X182200000Y-144300000D01*
X171800000Y-142100000D02*
G75*
G03*
X171800000Y-147300000I0J-2600000D01*
G01*
X174850000Y-141000000D02*
G75*
G03*
X173150000Y-141000000I-850000J0D01*
G01*
X182200000Y-149500000D02*
G75*
G03*
X182200000Y-144300000I0J2600000D01*
G01*
%TO.C,SW20*%
X132650000Y-90000000D02*
X132650000Y-91100000D01*
X132650000Y-91100000D02*
X131300000Y-91100000D01*
X134350000Y-90000000D02*
X134350000Y-91100000D01*
X134350000Y-91100000D02*
X135400000Y-91100000D01*
X134600000Y-96300000D02*
X131300000Y-96300000D01*
X137300000Y-98500000D02*
X134600000Y-96300000D01*
X137300000Y-98500000D02*
X141700000Y-98500000D01*
X138100000Y-93300000D02*
X135400000Y-91100000D01*
X138100000Y-93300000D02*
X141700000Y-93300000D01*
X131300000Y-91100000D02*
G75*
G03*
X131300000Y-96300000I0J-2600000D01*
G01*
X134350000Y-90000000D02*
G75*
G03*
X132650000Y-90000000I-850000J0D01*
G01*
X141700000Y-98500000D02*
G75*
G03*
X141700000Y-93300000I0J2600000D01*
G01*
%TO.C,SW52*%
X258650000Y-90000000D02*
X258650000Y-91100000D01*
X258650000Y-91100000D02*
X257300000Y-91100000D01*
X260350000Y-90000000D02*
X260350000Y-91100000D01*
X260350000Y-91100000D02*
X261400000Y-91100000D01*
X260600000Y-96300000D02*
X257300000Y-96300000D01*
X263300000Y-98500000D02*
X260600000Y-96300000D01*
X263300000Y-98500000D02*
X267700000Y-98500000D01*
X264100000Y-93300000D02*
X261400000Y-91100000D01*
X264100000Y-93300000D02*
X267700000Y-93300000D01*
X257300000Y-91100000D02*
G75*
G03*
X257300000Y-96300000I0J-2600000D01*
G01*
X260350000Y-90000000D02*
G75*
G03*
X258650000Y-90000000I-850000J0D01*
G01*
X267700000Y-98500000D02*
G75*
G03*
X267700000Y-93300000I0J2600000D01*
G01*
%TO.C,D59*%
X284750000Y-86291665D02*
X281250000Y-86291665D01*
X281250000Y-83791665D02*
X284750000Y-83791665D01*
X284750000Y-86291665D02*
G75*
G03*
X284750000Y-83791665I0J1250000D01*
G01*
X281250000Y-83791665D02*
G75*
G03*
X281250000Y-86291665I0J-1250000D01*
G01*
%TO.C,SW51*%
X285650000Y-158000000D02*
X285650000Y-159100000D01*
X285650000Y-159100000D02*
X284300000Y-159100000D01*
X287350000Y-158000000D02*
X287350000Y-159100000D01*
X287350000Y-159100000D02*
X288400000Y-159100000D01*
X287600000Y-164300000D02*
X284300000Y-164300000D01*
X290300000Y-166500000D02*
X287600000Y-164300000D01*
X290300000Y-166500000D02*
X294700000Y-166500000D01*
X291100000Y-161300000D02*
X288400000Y-159100000D01*
X291100000Y-161300000D02*
X294700000Y-161300000D01*
X284300000Y-159100000D02*
G75*
G03*
X284300000Y-164300000I0J-2600000D01*
G01*
X287350000Y-158000000D02*
G75*
G03*
X285650000Y-158000000I-850000J0D01*
G01*
X294700000Y-166500000D02*
G75*
G03*
X294700000Y-161300000I0J2600000D01*
G01*
%TO.C,SW19*%
X137150000Y-141000000D02*
X137150000Y-142100000D01*
X137150000Y-142100000D02*
X135800000Y-142100000D01*
X138850000Y-141000000D02*
X138850000Y-142100000D01*
X138850000Y-142100000D02*
X139900000Y-142100000D01*
X139100000Y-147300000D02*
X135800000Y-147300000D01*
X141800000Y-149500000D02*
X139100000Y-147300000D01*
X141800000Y-149500000D02*
X146200000Y-149500000D01*
X142600000Y-144300000D02*
X139900000Y-142100000D01*
X142600000Y-144300000D02*
X146200000Y-144300000D01*
X135800000Y-142100000D02*
G75*
G03*
X135800000Y-147300000I0J-2600000D01*
G01*
X138850000Y-141000000D02*
G75*
G03*
X137150000Y-141000000I-850000J0D01*
G01*
X146200000Y-149500000D02*
G75*
G03*
X146200000Y-144300000I0J2600000D01*
G01*
%TO.C,D34*%
X199250000Y-137291641D02*
X195750000Y-137291641D01*
X195750000Y-134791641D02*
X199250000Y-134791641D01*
X199250000Y-137291641D02*
G75*
G03*
X199250000Y-134791641I0J1250000D01*
G01*
X195750000Y-134791641D02*
G75*
G03*
X195750000Y-137291641I0J-1250000D01*
G01*
%TD*%
M02*
