M48
; DRILL file {KiCad (7.0.0-0)} date Monday, February 20, 2023 at 05:49:28 PM
; FORMAT={-:-/ absolute / inch / decimal}
; #@! TF.CreationDate,2023-02-20T17:49:28-08:00
; #@! TF.GenerationSoftware,Kicad,Pcbnew,(7.0.0-0)
; #@! TF.FileFunction,NonPlated,1,2,NPTH
FMAT,2
INCH
; #@! TA.AperFunction,NonPlated,NPTH,ComponentDrill
T1C0.0669
; #@! TA.AperFunction,NonPlated,NPTH,ComponentDrill
T2C0.1339
%
G90
G05
T1
X2.8543Y-3.5433
X2.9429Y-6.2205
X3.0315Y-4.2126
X3.1201Y-4.8819
X3.2972Y-5.5512
X3.563Y-3.5433
X3.8287Y-6.2205
X3.9173Y-4.2126
X4.0945Y-4.8819
X4.2717Y-3.5433
X4.4488Y-5.5512
X4.626Y-4.2126
X4.7146Y-6.2205
X4.8031Y-4.8819
X4.9803Y-3.5433
X5.1575Y-5.5512
X5.3346Y-4.2126
X5.5118Y-4.8819
X5.689Y-3.5433
X5.8661Y-5.5512
X5.876Y-6.2205
X6.0433Y-4.2126
X6.2205Y-4.8819
X6.3976Y-3.5433
X6.5748Y-5.5512
X6.752Y-4.2126
X6.9291Y-4.8819
X7.1063Y-3.5433
X7.2835Y-5.5512
X7.372Y-6.2205
X7.4606Y-4.2126
X7.6378Y-4.8819
X7.815Y-3.5433
X7.9921Y-5.5512
X8.1693Y-4.2126
X8.3465Y-4.8819
X8.5236Y-3.5433
X8.7008Y-5.5512
X8.8681Y-6.2205
X8.878Y-4.2126
X9.0551Y-4.8819
X9.2323Y-3.5433
X9.4094Y-5.5512
X9.5866Y-4.2126
X9.7638Y-4.8819
X9.9409Y-3.5433
X10.0295Y-6.2205
X10.1181Y-5.5512
X10.2953Y-4.2126
X10.4724Y-4.8819
X10.6496Y-3.5433
X10.8268Y-5.5512
X10.9154Y-6.2205
X11.0039Y-4.2126
X11.1811Y-4.8819
X11.3583Y-3.5433
X11.7126Y-4.2126
X11.7126Y-6.2205
X11.9783Y-5.5512
X12.1555Y-4.8819
X12.2441Y-3.5433
X12.4213Y-4.2126
X12.5984Y-6.2205
X13.3071Y-5.5512
X13.3071Y-6.2205
X14.0157Y-6.2205
T2
X2.6378Y-3.5433
X2.7264Y-6.2205
X2.815Y-4.2126
X2.9035Y-4.8819
X3.0807Y-5.5512
X3.3465Y-3.5433
X3.6122Y-6.2205
X3.7008Y-4.2126
X3.878Y-4.8819
X4.0551Y-3.5433
X4.2323Y-5.5512
X4.4094Y-4.2126
X4.498Y-6.2205
X4.5866Y-4.8819
X4.7638Y-3.5433
X4.9409Y-5.5512
X5.1181Y-4.2126
X5.2953Y-4.8819
X5.4724Y-3.5433
X5.6496Y-5.5512
X5.6594Y-6.2205
X5.8268Y-4.2126
X6.0039Y-4.8819
X6.1811Y-3.5433
X6.3583Y-5.5512
X6.5354Y-4.2126
X6.7126Y-4.8819
X6.8898Y-3.5433
X7.0669Y-5.5512
X7.1555Y-6.2205
X7.2441Y-4.2126
X7.4213Y-4.8819
X7.5984Y-3.5433
X7.7756Y-5.5512
X7.9528Y-4.2126
X8.1299Y-4.8819
X8.3071Y-3.5433
X8.4843Y-5.5512
X8.6516Y-6.2205
X8.6614Y-4.2126
X8.8386Y-4.8819
X9.0157Y-3.5433
X9.1929Y-5.5512
X9.3701Y-4.2126
X9.5472Y-4.8819
X9.7244Y-3.5433
X9.813Y-6.2205
X9.9016Y-5.5512
X10.0787Y-4.2126
X10.2559Y-4.8819
X10.4331Y-3.5433
X10.6102Y-5.5512
X10.6988Y-6.2205
X10.7874Y-4.2126
X10.9646Y-4.8819
X11.1417Y-3.5433
X11.4961Y-4.2126
X11.4961Y-6.2205
X11.7618Y-5.5512
X11.939Y-4.8819
X12.0276Y-3.5433
X12.2047Y-4.2126
X12.3819Y-6.2205
X13.0906Y-5.5512
X13.0906Y-6.2205
X13.7992Y-6.2205
T0
M30
