M48
; DRILL file {KiCad (7.0.0-0)} date Monday, February 20, 2023 at 05:49:28 PM
; FORMAT={-:-/ absolute / inch / decimal}
; #@! TF.CreationDate,2023-02-20T17:49:28-08:00
; #@! TF.GenerationSoftware,Kicad,Pcbnew,(7.0.0-0)
; #@! TF.FileFunction,Plated,1,2,PTH
FMAT,2
INCH
; #@! TA.AperFunction,Plated,PTH,ComponentDrill
T1C0.0157
; #@! TA.AperFunction,Plated,PTH,ComponentDrill
T2C0.0866
%
G90
G05
T1
X3.1929Y-4.0354
X3.2119Y-3.9895
X3.2119Y-4.0814
X3.2579Y-3.9705
X3.2579Y-4.1004
X3.3038Y-3.9895
X3.3038Y-4.0814
X3.3228Y-4.0354
X3.4882Y-5.8071
X3.5072Y-5.7612
X3.5072Y-5.853
X3.5531Y-5.7421
X3.5531Y-5.872
X3.5991Y-5.7612
X3.5991Y-5.853
X3.6181Y-5.8071
X7.8386Y-6.4469
X7.8576Y-6.4009
X7.8576Y-6.4928
X7.9035Y-6.3819
X7.9035Y-6.5118
X7.9495Y-6.4009
X7.9495Y-6.4928
X7.9685Y-6.4469
X12.1693Y-5.8071
X12.1883Y-5.7612
X12.1883Y-5.853
X12.2343Y-5.7421
X12.2343Y-5.872
X12.2802Y-5.7612
X12.2802Y-5.853
X12.2992Y-5.8071
X13.1043Y-3.5925
X13.1234Y-3.5466
X13.1234Y-3.6385
X13.1693Y-3.5276
X13.1693Y-3.6575
X13.2152Y-3.5466
X13.2152Y-3.6385
X13.2343Y-3.5925
T2
X3.2579Y-4.0354
X3.5531Y-5.8071
X7.9035Y-6.4469
X12.2343Y-5.8071
X13.1693Y-3.5925
T0
M30
