%TF.GenerationSoftware,KiCad,Pcbnew,(7.0.0-0)*%
%TF.CreationDate,2023-02-20T17:42:32-08:00*%
%TF.ProjectId,mt-choc-top,6d742d63-686f-4632-9d74-6f702e6b6963,v1.0*%
%TF.SameCoordinates,Original*%
%TF.FileFunction,Soldermask,Bot*%
%TF.FilePolarity,Negative*%
%FSLAX46Y46*%
G04 Gerber Fmt 4.6, Leading zero omitted, Abs format (unit mm)*
G04 Created by KiCad (PCBNEW (7.0.0-0)) date 2023-02-20 17:42:32*
%MOMM*%
%LPD*%
G01*
G04 APERTURE LIST*
%ADD10C,0.900000*%
%ADD11C,4.600000*%
G04 APERTURE END LIST*
D10*
%TO.C,H1*%
X81100000Y-102500000D03*
X81583274Y-101333274D03*
X81583274Y-103666726D03*
X82750000Y-100850000D03*
D11*
X82750000Y-102500000D03*
D10*
X82750000Y-104150000D03*
X83916726Y-101333274D03*
X83916726Y-103666726D03*
X84400000Y-102500000D03*
%TD*%
%TO.C,H5*%
X309100000Y-147500000D03*
X309583274Y-146333274D03*
X309583274Y-148666726D03*
X310750000Y-145850000D03*
D11*
X310750000Y-147500000D03*
D10*
X310750000Y-149150000D03*
X311916726Y-146333274D03*
X311916726Y-148666726D03*
X312400000Y-147500000D03*
%TD*%
%TO.C,H2*%
X88600000Y-147500000D03*
X89083274Y-146333274D03*
X89083274Y-148666726D03*
X90250000Y-145850000D03*
D11*
X90250000Y-147500000D03*
D10*
X90250000Y-149150000D03*
X91416726Y-146333274D03*
X91416726Y-148666726D03*
X91900000Y-147500000D03*
%TD*%
%TO.C,H4*%
X332850000Y-91250000D03*
X333333274Y-90083274D03*
X333333274Y-92416726D03*
X334500000Y-89600000D03*
D11*
X334500000Y-91250000D03*
D10*
X334500000Y-92900000D03*
X335666726Y-90083274D03*
X335666726Y-92416726D03*
X336150000Y-91250000D03*
%TD*%
%TO.C,H3*%
X199100000Y-163750000D03*
X199583274Y-162583274D03*
X199583274Y-164916726D03*
X200750000Y-162100000D03*
D11*
X200750000Y-163750000D03*
D10*
X200750000Y-165400000D03*
X201916726Y-162583274D03*
X201916726Y-164916726D03*
X202400000Y-163750000D03*
%TD*%
M02*
