%TF.GenerationSoftware,KiCad,Pcbnew,(7.0.0-0)*%
%TF.CreationDate,2023-02-20T17:42:31-08:00*%
%TF.ProjectId,mt-choc-top,6d742d63-686f-4632-9d74-6f702e6b6963,v1.0*%
%TF.SameCoordinates,Original*%
%TF.FileFunction,Copper,L2,Bot*%
%TF.FilePolarity,Positive*%
%FSLAX46Y46*%
G04 Gerber Fmt 4.6, Leading zero omitted, Abs format (unit mm)*
G04 Created by KiCad (PCBNEW (7.0.0-0)) date 2023-02-20 17:42:31*
%MOMM*%
%LPD*%
G01*
G04 APERTURE LIST*
%TA.AperFunction,ComponentPad*%
%ADD10C,0.700000*%
%TD*%
%TA.AperFunction,ComponentPad*%
%ADD11C,4.400000*%
%TD*%
G04 APERTURE END LIST*
D10*
%TO.P,H1,1*%
%TO.N,N/C*%
X81100000Y-102500000D03*
X81583274Y-101333274D03*
X81583274Y-103666726D03*
X82750000Y-100850000D03*
D11*
X82750000Y-102500000D03*
D10*
X82750000Y-104150000D03*
X83916726Y-101333274D03*
X83916726Y-103666726D03*
X84400000Y-102500000D03*
%TD*%
%TO.P,H5,1*%
%TO.N,N/C*%
X309100000Y-147500000D03*
X309583274Y-146333274D03*
X309583274Y-148666726D03*
X310750000Y-145850000D03*
D11*
X310750000Y-147500000D03*
D10*
X310750000Y-149150000D03*
X311916726Y-146333274D03*
X311916726Y-148666726D03*
X312400000Y-147500000D03*
%TD*%
%TO.P,H2,1*%
%TO.N,N/C*%
X88600000Y-147500000D03*
X89083274Y-146333274D03*
X89083274Y-148666726D03*
X90250000Y-145850000D03*
D11*
X90250000Y-147500000D03*
D10*
X90250000Y-149150000D03*
X91416726Y-146333274D03*
X91416726Y-148666726D03*
X91900000Y-147500000D03*
%TD*%
%TO.P,H4,1*%
%TO.N,N/C*%
X332850000Y-91250000D03*
X333333274Y-90083274D03*
X333333274Y-92416726D03*
X334500000Y-89600000D03*
D11*
X334500000Y-91250000D03*
D10*
X334500000Y-92900000D03*
X335666726Y-90083274D03*
X335666726Y-92416726D03*
X336150000Y-91250000D03*
%TD*%
%TO.P,H3,1*%
%TO.N,N/C*%
X199100000Y-163750000D03*
X199583274Y-162583274D03*
X199583274Y-164916726D03*
X200750000Y-162100000D03*
D11*
X200750000Y-163750000D03*
D10*
X200750000Y-165400000D03*
X201916726Y-162583274D03*
X201916726Y-164916726D03*
X202400000Y-163750000D03*
%TD*%
%TA.AperFunction,NonConductor*%
G36*
X358502855Y-78510632D02*
G01*
X358862388Y-78527254D01*
X358873778Y-78528310D01*
X359227401Y-78577638D01*
X359238645Y-78579740D01*
X359586207Y-78661486D01*
X359597197Y-78664613D01*
X359935756Y-78778086D01*
X359946410Y-78782214D01*
X360273038Y-78926434D01*
X360283264Y-78931526D01*
X360392904Y-78992595D01*
X360595188Y-79105267D01*
X360604926Y-79111296D01*
X360899486Y-79313073D01*
X360908626Y-79319976D01*
X361183298Y-79548061D01*
X361191762Y-79555777D01*
X361444222Y-79808237D01*
X361451938Y-79816701D01*
X361680023Y-80091373D01*
X361686926Y-80100513D01*
X361888703Y-80395073D01*
X361894732Y-80404811D01*
X362068466Y-80716721D01*
X362073571Y-80726974D01*
X362217780Y-81053576D01*
X362221918Y-81064256D01*
X362335382Y-81402789D01*
X362338516Y-81413805D01*
X362420257Y-81761346D01*
X362422362Y-81772605D01*
X362471688Y-82126214D01*
X362472745Y-82137618D01*
X362489368Y-82497145D01*
X362489500Y-82502872D01*
X362489500Y-165497128D01*
X362489368Y-165502855D01*
X362472745Y-165862381D01*
X362471688Y-165873785D01*
X362422362Y-166227394D01*
X362420257Y-166238653D01*
X362338516Y-166586194D01*
X362335382Y-166597210D01*
X362221918Y-166935743D01*
X362217780Y-166946423D01*
X362073571Y-167273025D01*
X362068466Y-167283278D01*
X361894732Y-167595188D01*
X361888703Y-167604926D01*
X361686926Y-167899486D01*
X361680023Y-167908626D01*
X361451938Y-168183298D01*
X361444222Y-168191762D01*
X361191762Y-168444222D01*
X361183298Y-168451938D01*
X360908626Y-168680023D01*
X360899486Y-168686926D01*
X360604926Y-168888703D01*
X360595188Y-168894732D01*
X360283278Y-169068466D01*
X360273025Y-169073571D01*
X359946423Y-169217780D01*
X359935743Y-169221918D01*
X359597210Y-169335382D01*
X359586194Y-169338516D01*
X359238653Y-169420257D01*
X359227394Y-169422362D01*
X358873785Y-169471688D01*
X358862381Y-169472745D01*
X358502855Y-169489368D01*
X358497128Y-169489500D01*
X59002872Y-169489500D01*
X58997145Y-169489368D01*
X58637618Y-169472745D01*
X58626214Y-169471688D01*
X58272605Y-169422362D01*
X58261346Y-169420257D01*
X57913805Y-169338516D01*
X57902789Y-169335382D01*
X57564256Y-169221918D01*
X57553576Y-169217780D01*
X57226974Y-169073571D01*
X57216726Y-169068468D01*
X57107096Y-169007405D01*
X56904811Y-168894732D01*
X56895073Y-168888703D01*
X56600513Y-168686926D01*
X56591373Y-168680023D01*
X56316701Y-168451938D01*
X56308237Y-168444222D01*
X56055777Y-168191762D01*
X56048061Y-168183298D01*
X55819976Y-167908626D01*
X55813073Y-167899486D01*
X55611296Y-167604926D01*
X55605267Y-167595188D01*
X55526409Y-167453612D01*
X55431526Y-167283264D01*
X55426434Y-167273038D01*
X55282214Y-166946410D01*
X55278086Y-166935756D01*
X55164613Y-166597197D01*
X55161486Y-166586207D01*
X55079740Y-166238645D01*
X55077637Y-166227394D01*
X55065949Y-166143607D01*
X55028310Y-165873778D01*
X55027254Y-165862381D01*
X55023216Y-165775048D01*
X55010632Y-165502855D01*
X55010500Y-165497128D01*
X55010500Y-165000000D01*
X62238635Y-165000000D01*
X62239500Y-165002088D01*
X62241964Y-165008036D01*
X62250000Y-165011365D01*
X62252088Y-165010500D01*
X76247912Y-165010500D01*
X76250000Y-165011365D01*
X76258036Y-165008036D01*
X76260500Y-165002088D01*
X76261365Y-165000000D01*
X84738635Y-165000000D01*
X84739500Y-165002088D01*
X84741964Y-165008036D01*
X84750000Y-165011365D01*
X84752088Y-165010500D01*
X98747912Y-165010500D01*
X98750000Y-165011365D01*
X98758036Y-165008036D01*
X98760500Y-165002088D01*
X98761365Y-165000000D01*
X107238635Y-165000000D01*
X107239500Y-165002088D01*
X107241964Y-165008036D01*
X107250000Y-165011365D01*
X107252088Y-165010500D01*
X121247912Y-165010500D01*
X121250000Y-165011365D01*
X121258036Y-165008036D01*
X121260500Y-165002088D01*
X121261365Y-165000000D01*
X136738635Y-165000000D01*
X136739500Y-165002088D01*
X136741964Y-165008036D01*
X136750000Y-165011365D01*
X136752088Y-165010500D01*
X150747912Y-165010500D01*
X150750000Y-165011365D01*
X150758036Y-165008036D01*
X150760500Y-165002088D01*
X150761365Y-165000000D01*
X174738635Y-165000000D01*
X174739500Y-165002088D01*
X174741964Y-165008036D01*
X174750000Y-165011365D01*
X174752088Y-165010500D01*
X188747912Y-165010500D01*
X188750000Y-165011365D01*
X188758036Y-165008036D01*
X188760500Y-165002088D01*
X188761365Y-165000000D01*
X188760500Y-164997912D01*
X188760500Y-163750000D01*
X198044564Y-163750000D01*
X198044790Y-163753736D01*
X198064063Y-164072362D01*
X198064064Y-164072372D01*
X198064290Y-164076104D01*
X198064963Y-164079778D01*
X198064965Y-164079792D01*
X198122502Y-164393762D01*
X198122504Y-164393771D01*
X198123179Y-164397453D01*
X198220373Y-164709361D01*
X198354455Y-165007279D01*
X198356388Y-165010477D01*
X198356392Y-165010484D01*
X198521532Y-165283658D01*
X198521536Y-165283663D01*
X198523470Y-165286863D01*
X198724952Y-165544036D01*
X198955964Y-165775048D01*
X199213137Y-165976530D01*
X199216339Y-165978466D01*
X199216341Y-165978467D01*
X199489515Y-166143607D01*
X199492721Y-166145545D01*
X199790639Y-166279627D01*
X200102547Y-166376821D01*
X200423896Y-166435710D01*
X200750000Y-166455436D01*
X201076104Y-166435710D01*
X201397453Y-166376821D01*
X201709361Y-166279627D01*
X202007279Y-166145545D01*
X202286863Y-165976530D01*
X202544036Y-165775048D01*
X202775048Y-165544036D01*
X202976530Y-165286863D01*
X203145545Y-165007279D01*
X203148821Y-165000000D01*
X212738635Y-165000000D01*
X212739500Y-165002088D01*
X212741964Y-165008036D01*
X212750000Y-165011365D01*
X212752088Y-165010500D01*
X226747912Y-165010500D01*
X226750000Y-165011365D01*
X226758036Y-165008036D01*
X226760500Y-165002088D01*
X226761365Y-165000000D01*
X242238635Y-165000000D01*
X242239500Y-165002088D01*
X242241964Y-165008036D01*
X242250000Y-165011365D01*
X242252088Y-165010500D01*
X256247912Y-165010500D01*
X256250000Y-165011365D01*
X256258036Y-165008036D01*
X256260500Y-165002088D01*
X256261365Y-165000000D01*
X264738635Y-165000000D01*
X264739500Y-165002088D01*
X264741964Y-165008036D01*
X264750000Y-165011365D01*
X264752088Y-165010500D01*
X278747912Y-165010500D01*
X278750000Y-165011365D01*
X278758036Y-165008036D01*
X278760500Y-165002088D01*
X278761365Y-165000000D01*
X284988635Y-165000000D01*
X284989500Y-165002088D01*
X284991964Y-165008036D01*
X285000000Y-165011365D01*
X285002088Y-165010500D01*
X298997912Y-165010500D01*
X299000000Y-165011365D01*
X299008036Y-165008036D01*
X299010500Y-165002088D01*
X299011365Y-165000000D01*
X307488635Y-165000000D01*
X307489500Y-165002088D01*
X307491964Y-165008036D01*
X307500000Y-165011365D01*
X307502088Y-165010500D01*
X321497912Y-165010500D01*
X321500000Y-165011365D01*
X321508036Y-165008036D01*
X321510500Y-165002088D01*
X321511365Y-165000000D01*
X325488635Y-165000000D01*
X325489500Y-165002088D01*
X325491964Y-165008036D01*
X325500000Y-165011365D01*
X325502088Y-165010500D01*
X339497912Y-165010500D01*
X339500000Y-165011365D01*
X339508036Y-165008036D01*
X339510500Y-165002088D01*
X339511365Y-165000000D01*
X343488635Y-165000000D01*
X343489500Y-165002088D01*
X343491964Y-165008036D01*
X343500000Y-165011365D01*
X343502088Y-165010500D01*
X357497912Y-165010500D01*
X357500000Y-165011365D01*
X357508036Y-165008036D01*
X357510500Y-165002088D01*
X357511365Y-165000000D01*
X357510500Y-164997912D01*
X357510500Y-151002088D01*
X357511365Y-151000000D01*
X357508036Y-150991964D01*
X357502088Y-150989500D01*
X357500000Y-150988635D01*
X357497912Y-150989500D01*
X343502088Y-150989500D01*
X343500000Y-150988635D01*
X343497912Y-150989500D01*
X343491964Y-150991964D01*
X343488635Y-151000000D01*
X343489500Y-151002088D01*
X343489500Y-164997912D01*
X343488635Y-165000000D01*
X339511365Y-165000000D01*
X339510500Y-164997912D01*
X339510500Y-151002088D01*
X339511365Y-151000000D01*
X339508036Y-150991964D01*
X339502088Y-150989500D01*
X339500000Y-150988635D01*
X339497912Y-150989500D01*
X325502088Y-150989500D01*
X325500000Y-150988635D01*
X325497912Y-150989500D01*
X325491964Y-150991964D01*
X325488635Y-151000000D01*
X325489500Y-151002088D01*
X325489500Y-164997912D01*
X325488635Y-165000000D01*
X321511365Y-165000000D01*
X321510500Y-164997912D01*
X321510500Y-151002088D01*
X321511365Y-151000000D01*
X321508036Y-150991964D01*
X321502088Y-150989500D01*
X321500000Y-150988635D01*
X321497912Y-150989500D01*
X307502088Y-150989500D01*
X307500000Y-150988635D01*
X307497912Y-150989500D01*
X307491964Y-150991964D01*
X307488635Y-151000000D01*
X307489500Y-151002088D01*
X307489500Y-164997912D01*
X307488635Y-165000000D01*
X299011365Y-165000000D01*
X299010500Y-164997912D01*
X299010500Y-151002088D01*
X299011365Y-151000000D01*
X299008036Y-150991964D01*
X299002088Y-150989500D01*
X299000000Y-150988635D01*
X298997912Y-150989500D01*
X285002088Y-150989500D01*
X285000000Y-150988635D01*
X284997912Y-150989500D01*
X284991964Y-150991964D01*
X284988635Y-151000000D01*
X284989500Y-151002088D01*
X284989500Y-164997912D01*
X284988635Y-165000000D01*
X278761365Y-165000000D01*
X278760500Y-164997912D01*
X278760500Y-151002088D01*
X278761365Y-151000000D01*
X278758036Y-150991964D01*
X278752088Y-150989500D01*
X278750000Y-150988635D01*
X278747912Y-150989500D01*
X264752088Y-150989500D01*
X264750000Y-150988635D01*
X264747912Y-150989500D01*
X264741964Y-150991964D01*
X264738635Y-151000000D01*
X264739500Y-151002088D01*
X264739500Y-164997912D01*
X264738635Y-165000000D01*
X256261365Y-165000000D01*
X256260500Y-164997912D01*
X256260500Y-151002088D01*
X256261365Y-151000000D01*
X256258036Y-150991964D01*
X256252088Y-150989500D01*
X256250000Y-150988635D01*
X256247912Y-150989500D01*
X242252088Y-150989500D01*
X242250000Y-150988635D01*
X242247912Y-150989500D01*
X242241964Y-150991964D01*
X242238635Y-151000000D01*
X242239500Y-151002088D01*
X242239500Y-164997912D01*
X242238635Y-165000000D01*
X226761365Y-165000000D01*
X226760500Y-164997912D01*
X226760500Y-161050000D01*
X228588635Y-161050000D01*
X228589500Y-161052088D01*
X228591964Y-161058036D01*
X228600000Y-161061365D01*
X228602088Y-161060500D01*
X234897912Y-161060500D01*
X234900000Y-161061365D01*
X234908036Y-161058036D01*
X234910500Y-161052088D01*
X234911365Y-161050000D01*
X234910500Y-161047912D01*
X234910500Y-154202088D01*
X234911365Y-154200000D01*
X234908036Y-154191964D01*
X234902088Y-154189500D01*
X234900000Y-154188635D01*
X234897912Y-154189500D01*
X233684500Y-154189500D01*
X233622500Y-154172887D01*
X233577113Y-154127500D01*
X233560500Y-154065500D01*
X233560500Y-149557868D01*
X233560500Y-149552088D01*
X233561365Y-149550000D01*
X233558036Y-149541964D01*
X233552088Y-149539500D01*
X233550000Y-149538635D01*
X233547912Y-149539500D01*
X229952088Y-149539500D01*
X229950000Y-149538635D01*
X229947912Y-149539500D01*
X229941964Y-149541964D01*
X229938635Y-149550000D01*
X229939500Y-149552088D01*
X229939500Y-149557868D01*
X229939500Y-154065500D01*
X229922887Y-154127500D01*
X229877500Y-154172887D01*
X229815500Y-154189500D01*
X228602088Y-154189500D01*
X228600000Y-154188635D01*
X228597912Y-154189500D01*
X228591964Y-154191964D01*
X228588635Y-154200000D01*
X228589500Y-154202088D01*
X228589500Y-161047912D01*
X228588635Y-161050000D01*
X226760500Y-161050000D01*
X226760500Y-151002088D01*
X226761365Y-151000000D01*
X226758036Y-150991964D01*
X226752088Y-150989500D01*
X226750000Y-150988635D01*
X226747912Y-150989500D01*
X212752088Y-150989500D01*
X212750000Y-150988635D01*
X212747912Y-150989500D01*
X212741964Y-150991964D01*
X212738635Y-151000000D01*
X212739500Y-151002088D01*
X212739500Y-164997912D01*
X212738635Y-165000000D01*
X203148821Y-165000000D01*
X203279627Y-164709361D01*
X203376821Y-164397453D01*
X203435710Y-164076104D01*
X203455436Y-163750000D01*
X203435710Y-163423896D01*
X203376821Y-163102547D01*
X203279627Y-162790639D01*
X203145545Y-162492721D01*
X202976530Y-162213137D01*
X202775048Y-161955964D01*
X202544036Y-161724952D01*
X202286863Y-161523470D01*
X202283663Y-161521536D01*
X202283658Y-161521532D01*
X202010484Y-161356392D01*
X202010477Y-161356388D01*
X202007279Y-161354455D01*
X201709361Y-161220373D01*
X201397453Y-161123179D01*
X201393771Y-161122504D01*
X201393762Y-161122502D01*
X201079792Y-161064965D01*
X201079778Y-161064963D01*
X201076104Y-161064290D01*
X201072372Y-161064064D01*
X201072362Y-161064063D01*
X200839869Y-161050000D01*
X204588635Y-161050000D01*
X204589500Y-161052088D01*
X204591964Y-161058036D01*
X204600000Y-161061365D01*
X204602088Y-161060500D01*
X210897912Y-161060500D01*
X210900000Y-161061365D01*
X210908036Y-161058036D01*
X210910500Y-161052088D01*
X210911365Y-161050000D01*
X210910500Y-161047912D01*
X210910500Y-154202088D01*
X210911365Y-154200000D01*
X210908036Y-154191964D01*
X210902088Y-154189500D01*
X210900000Y-154188635D01*
X210897912Y-154189500D01*
X209684500Y-154189500D01*
X209622500Y-154172887D01*
X209577113Y-154127500D01*
X209560500Y-154065500D01*
X209560500Y-149557868D01*
X209560500Y-149552088D01*
X209561365Y-149550000D01*
X209558036Y-149541964D01*
X209552088Y-149539500D01*
X209550000Y-149538635D01*
X209547912Y-149539500D01*
X205952088Y-149539500D01*
X205950000Y-149538635D01*
X205947912Y-149539500D01*
X205941964Y-149541964D01*
X205938635Y-149550000D01*
X205939500Y-149552088D01*
X205939500Y-149557868D01*
X205939500Y-154065500D01*
X205922887Y-154127500D01*
X205877500Y-154172887D01*
X205815500Y-154189500D01*
X204602088Y-154189500D01*
X204600000Y-154188635D01*
X204597912Y-154189500D01*
X204591964Y-154191964D01*
X204588635Y-154200000D01*
X204589500Y-154202088D01*
X204589500Y-161047912D01*
X204588635Y-161050000D01*
X200839869Y-161050000D01*
X200753736Y-161044790D01*
X200750000Y-161044564D01*
X200746264Y-161044790D01*
X200427637Y-161064063D01*
X200427625Y-161064064D01*
X200423896Y-161064290D01*
X200420223Y-161064962D01*
X200420207Y-161064965D01*
X200106237Y-161122502D01*
X200106224Y-161122505D01*
X200102547Y-161123179D01*
X200098967Y-161124294D01*
X200098961Y-161124296D01*
X199794216Y-161219258D01*
X199794210Y-161219260D01*
X199790639Y-161220373D01*
X199787230Y-161221907D01*
X199787228Y-161221908D01*
X199496135Y-161352918D01*
X199496128Y-161352921D01*
X199492721Y-161354455D01*
X199489528Y-161356384D01*
X199489515Y-161356392D01*
X199216341Y-161521532D01*
X199216328Y-161521540D01*
X199213137Y-161523470D01*
X199210195Y-161525774D01*
X199210189Y-161525779D01*
X198958915Y-161722640D01*
X198955964Y-161724952D01*
X198953318Y-161727597D01*
X198953310Y-161727605D01*
X198727605Y-161953310D01*
X198727597Y-161953318D01*
X198724952Y-161955964D01*
X198722640Y-161958914D01*
X198722640Y-161958915D01*
X198525779Y-162210189D01*
X198525774Y-162210195D01*
X198523470Y-162213137D01*
X198521540Y-162216328D01*
X198521532Y-162216341D01*
X198356392Y-162489515D01*
X198356384Y-162489528D01*
X198354455Y-162492721D01*
X198220373Y-162790639D01*
X198123179Y-163102547D01*
X198122505Y-163106224D01*
X198122502Y-163106237D01*
X198064965Y-163420207D01*
X198064962Y-163420223D01*
X198064290Y-163423896D01*
X198064064Y-163427625D01*
X198064063Y-163427637D01*
X198045051Y-163741946D01*
X198044564Y-163750000D01*
X188760500Y-163750000D01*
X188760500Y-161050000D01*
X190588635Y-161050000D01*
X190589500Y-161052088D01*
X190591964Y-161058036D01*
X190600000Y-161061365D01*
X190602088Y-161060500D01*
X196897912Y-161060500D01*
X196900000Y-161061365D01*
X196908036Y-161058036D01*
X196910500Y-161052088D01*
X196911365Y-161050000D01*
X196910500Y-161047912D01*
X196910500Y-154202088D01*
X196911365Y-154200000D01*
X196908036Y-154191964D01*
X196902088Y-154189500D01*
X196900000Y-154188635D01*
X196897912Y-154189500D01*
X195684500Y-154189500D01*
X195622500Y-154172887D01*
X195577113Y-154127500D01*
X195560500Y-154065500D01*
X195560500Y-149557868D01*
X195560500Y-149552088D01*
X195561365Y-149550000D01*
X195558036Y-149541964D01*
X195552088Y-149539500D01*
X195550000Y-149538635D01*
X195547912Y-149539500D01*
X191952088Y-149539500D01*
X191950000Y-149538635D01*
X191947912Y-149539500D01*
X191941964Y-149541964D01*
X191938635Y-149550000D01*
X191939500Y-149552088D01*
X191939500Y-149557868D01*
X191939500Y-154065500D01*
X191922887Y-154127500D01*
X191877500Y-154172887D01*
X191815500Y-154189500D01*
X190602088Y-154189500D01*
X190600000Y-154188635D01*
X190597912Y-154189500D01*
X190591964Y-154191964D01*
X190588635Y-154200000D01*
X190589500Y-154202088D01*
X190589500Y-161047912D01*
X190588635Y-161050000D01*
X188760500Y-161050000D01*
X188760500Y-151002088D01*
X188761365Y-151000000D01*
X188758036Y-150991964D01*
X188752088Y-150989500D01*
X188750000Y-150988635D01*
X188747912Y-150989500D01*
X174752088Y-150989500D01*
X174750000Y-150988635D01*
X174747912Y-150989500D01*
X174741964Y-150991964D01*
X174738635Y-151000000D01*
X174739500Y-151002088D01*
X174739500Y-164997912D01*
X174738635Y-165000000D01*
X150761365Y-165000000D01*
X150760500Y-164997912D01*
X150760500Y-161050000D01*
X152588635Y-161050000D01*
X152589500Y-161052088D01*
X152591964Y-161058036D01*
X152600000Y-161061365D01*
X152602088Y-161060500D01*
X158897912Y-161060500D01*
X158900000Y-161061365D01*
X158908036Y-161058036D01*
X158910500Y-161052088D01*
X158911365Y-161050000D01*
X166588635Y-161050000D01*
X166589500Y-161052088D01*
X166591964Y-161058036D01*
X166600000Y-161061365D01*
X166602088Y-161060500D01*
X172897912Y-161060500D01*
X172900000Y-161061365D01*
X172908036Y-161058036D01*
X172910500Y-161052088D01*
X172911365Y-161050000D01*
X172910500Y-161047912D01*
X172910500Y-154202088D01*
X172911365Y-154200000D01*
X172908036Y-154191964D01*
X172902088Y-154189500D01*
X172900000Y-154188635D01*
X172897912Y-154189500D01*
X171684500Y-154189500D01*
X171622500Y-154172887D01*
X171577113Y-154127500D01*
X171560500Y-154065500D01*
X171560500Y-149557868D01*
X171560500Y-149552088D01*
X171561365Y-149550000D01*
X171558036Y-149541964D01*
X171552088Y-149539500D01*
X171550000Y-149538635D01*
X171547912Y-149539500D01*
X167952088Y-149539500D01*
X167950000Y-149538635D01*
X167947912Y-149539500D01*
X167941964Y-149541964D01*
X167938635Y-149550000D01*
X167939500Y-149552088D01*
X167939500Y-149557868D01*
X167939500Y-154065500D01*
X167922887Y-154127500D01*
X167877500Y-154172887D01*
X167815500Y-154189500D01*
X166602088Y-154189500D01*
X166600000Y-154188635D01*
X166597912Y-154189500D01*
X166591964Y-154191964D01*
X166588635Y-154200000D01*
X166589500Y-154202088D01*
X166589500Y-161047912D01*
X166588635Y-161050000D01*
X158911365Y-161050000D01*
X158910500Y-161047912D01*
X158910500Y-154202088D01*
X158911365Y-154200000D01*
X158908036Y-154191964D01*
X158902088Y-154189500D01*
X158900000Y-154188635D01*
X158897912Y-154189500D01*
X157684500Y-154189500D01*
X157622500Y-154172887D01*
X157577113Y-154127500D01*
X157560500Y-154065500D01*
X157560500Y-149557868D01*
X157560500Y-149552088D01*
X157561365Y-149550000D01*
X157558036Y-149541964D01*
X157552088Y-149539500D01*
X157550000Y-149538635D01*
X157547912Y-149539500D01*
X153952088Y-149539500D01*
X153950000Y-149538635D01*
X153947912Y-149539500D01*
X153941964Y-149541964D01*
X153938635Y-149550000D01*
X153939500Y-149552088D01*
X153939500Y-149557868D01*
X153939500Y-154065500D01*
X153922887Y-154127500D01*
X153877500Y-154172887D01*
X153815500Y-154189500D01*
X152602088Y-154189500D01*
X152600000Y-154188635D01*
X152597912Y-154189500D01*
X152591964Y-154191964D01*
X152588635Y-154200000D01*
X152589500Y-154202088D01*
X152589500Y-161047912D01*
X152588635Y-161050000D01*
X150760500Y-161050000D01*
X150760500Y-151002088D01*
X150761365Y-151000000D01*
X150758036Y-150991964D01*
X150752088Y-150989500D01*
X150750000Y-150988635D01*
X150747912Y-150989500D01*
X136752088Y-150989500D01*
X136750000Y-150988635D01*
X136747912Y-150989500D01*
X136741964Y-150991964D01*
X136738635Y-151000000D01*
X136739500Y-151002088D01*
X136739500Y-164997912D01*
X136738635Y-165000000D01*
X121261365Y-165000000D01*
X121260500Y-164997912D01*
X121260500Y-161050000D01*
X128588635Y-161050000D01*
X128589500Y-161052088D01*
X128591964Y-161058036D01*
X128600000Y-161061365D01*
X128602088Y-161060500D01*
X134897912Y-161060500D01*
X134900000Y-161061365D01*
X134908036Y-161058036D01*
X134910500Y-161052088D01*
X134911365Y-161050000D01*
X134910500Y-161047912D01*
X134910500Y-154202088D01*
X134911365Y-154200000D01*
X134908036Y-154191964D01*
X134902088Y-154189500D01*
X134900000Y-154188635D01*
X134897912Y-154189500D01*
X133684500Y-154189500D01*
X133622500Y-154172887D01*
X133577113Y-154127500D01*
X133560500Y-154065500D01*
X133560500Y-149557868D01*
X133560500Y-149552088D01*
X133561365Y-149550000D01*
X133558036Y-149541964D01*
X133552088Y-149539500D01*
X133550000Y-149538635D01*
X133547912Y-149539500D01*
X129952088Y-149539500D01*
X129950000Y-149538635D01*
X129947912Y-149539500D01*
X129941964Y-149541964D01*
X129938635Y-149550000D01*
X129939500Y-149552088D01*
X129939500Y-149557868D01*
X129939500Y-154065500D01*
X129922887Y-154127500D01*
X129877500Y-154172887D01*
X129815500Y-154189500D01*
X128602088Y-154189500D01*
X128600000Y-154188635D01*
X128597912Y-154189500D01*
X128591964Y-154191964D01*
X128588635Y-154200000D01*
X128589500Y-154202088D01*
X128589500Y-161047912D01*
X128588635Y-161050000D01*
X121260500Y-161050000D01*
X121260500Y-151002088D01*
X121261365Y-151000000D01*
X121258036Y-150991964D01*
X121252088Y-150989500D01*
X121250000Y-150988635D01*
X121247912Y-150989500D01*
X107252088Y-150989500D01*
X107250000Y-150988635D01*
X107247912Y-150989500D01*
X107241964Y-150991964D01*
X107238635Y-151000000D01*
X107239500Y-151002088D01*
X107239500Y-164997912D01*
X107238635Y-165000000D01*
X98761365Y-165000000D01*
X98760500Y-164997912D01*
X98760500Y-151002088D01*
X98761365Y-151000000D01*
X98758036Y-150991964D01*
X98752088Y-150989500D01*
X98750000Y-150988635D01*
X98747912Y-150989500D01*
X84752088Y-150989500D01*
X84750000Y-150988635D01*
X84747912Y-150989500D01*
X84741964Y-150991964D01*
X84738635Y-151000000D01*
X84739500Y-151002088D01*
X84739500Y-164997912D01*
X84738635Y-165000000D01*
X76261365Y-165000000D01*
X76260500Y-164997912D01*
X76260500Y-151002088D01*
X76261365Y-151000000D01*
X76258036Y-150991964D01*
X76252088Y-150989500D01*
X76250000Y-150988635D01*
X76247912Y-150989500D01*
X62252088Y-150989500D01*
X62250000Y-150988635D01*
X62247912Y-150989500D01*
X62241964Y-150991964D01*
X62238635Y-151000000D01*
X62239500Y-151002088D01*
X62239500Y-164997912D01*
X62238635Y-165000000D01*
X55010500Y-165000000D01*
X55010500Y-148000000D01*
X71238635Y-148000000D01*
X71239500Y-148002088D01*
X71241964Y-148008036D01*
X71250000Y-148011365D01*
X71252088Y-148010500D01*
X85247912Y-148010500D01*
X85250000Y-148011365D01*
X85258036Y-148008036D01*
X85260500Y-148002088D01*
X85261365Y-148000000D01*
X85260500Y-147997912D01*
X85260500Y-147500000D01*
X87544564Y-147500000D01*
X87544790Y-147503736D01*
X87564063Y-147822362D01*
X87564064Y-147822372D01*
X87564290Y-147826104D01*
X87564963Y-147829778D01*
X87564965Y-147829792D01*
X87622502Y-148143762D01*
X87622504Y-148143771D01*
X87623179Y-148147453D01*
X87720373Y-148459361D01*
X87854455Y-148757279D01*
X87856388Y-148760477D01*
X87856392Y-148760484D01*
X88021532Y-149033658D01*
X88021536Y-149033663D01*
X88023470Y-149036863D01*
X88224952Y-149294036D01*
X88455964Y-149525048D01*
X88713137Y-149726530D01*
X88992721Y-149895545D01*
X89290639Y-150029627D01*
X89602547Y-150126821D01*
X89923896Y-150185710D01*
X90250000Y-150205436D01*
X90576104Y-150185710D01*
X90897453Y-150126821D01*
X91209361Y-150029627D01*
X91507279Y-149895545D01*
X91786863Y-149726530D01*
X92044036Y-149525048D01*
X92275048Y-149294036D01*
X92476530Y-149036863D01*
X92645545Y-148757279D01*
X92779627Y-148459361D01*
X92876821Y-148147453D01*
X92903843Y-148000000D01*
X100488635Y-148000000D01*
X100489500Y-148002088D01*
X100491964Y-148008036D01*
X100500000Y-148011365D01*
X100502088Y-148010500D01*
X114497912Y-148010500D01*
X114500000Y-148011365D01*
X114508036Y-148008036D01*
X114510500Y-148002088D01*
X114511365Y-148000000D01*
X118488635Y-148000000D01*
X118489500Y-148002088D01*
X118491964Y-148008036D01*
X118500000Y-148011365D01*
X118502088Y-148010500D01*
X132497912Y-148010500D01*
X132500000Y-148011365D01*
X132508036Y-148008036D01*
X132510500Y-148002088D01*
X132511365Y-148000000D01*
X136488635Y-148000000D01*
X136489500Y-148002088D01*
X136491964Y-148008036D01*
X136500000Y-148011365D01*
X136502088Y-148010500D01*
X150497912Y-148010500D01*
X150500000Y-148011365D01*
X150508036Y-148008036D01*
X150510500Y-148002088D01*
X150511365Y-148000000D01*
X154488635Y-148000000D01*
X154489500Y-148002088D01*
X154491964Y-148008036D01*
X154500000Y-148011365D01*
X154502088Y-148010500D01*
X168497912Y-148010500D01*
X168500000Y-148011365D01*
X168508036Y-148008036D01*
X168510500Y-148002088D01*
X168511365Y-148000000D01*
X172488635Y-148000000D01*
X172489500Y-148002088D01*
X172491964Y-148008036D01*
X172500000Y-148011365D01*
X172502088Y-148010500D01*
X186497912Y-148010500D01*
X186500000Y-148011365D01*
X186508036Y-148008036D01*
X186510500Y-148002088D01*
X186511365Y-148000000D01*
X190488635Y-148000000D01*
X190489500Y-148002088D01*
X190491964Y-148008036D01*
X190500000Y-148011365D01*
X190502088Y-148010500D01*
X204497912Y-148010500D01*
X204500000Y-148011365D01*
X204508036Y-148008036D01*
X204510500Y-148002088D01*
X204511365Y-148000000D01*
X208488635Y-148000000D01*
X208489500Y-148002088D01*
X208491964Y-148008036D01*
X208500000Y-148011365D01*
X208502088Y-148010500D01*
X222497912Y-148010500D01*
X222500000Y-148011365D01*
X222508036Y-148008036D01*
X222510500Y-148002088D01*
X222511365Y-148000000D01*
X226488635Y-148000000D01*
X226489500Y-148002088D01*
X226491964Y-148008036D01*
X226500000Y-148011365D01*
X226502088Y-148010500D01*
X240497912Y-148010500D01*
X240500000Y-148011365D01*
X240508036Y-148008036D01*
X240510500Y-148002088D01*
X240511365Y-148000000D01*
X244488635Y-148000000D01*
X244489500Y-148002088D01*
X244491964Y-148008036D01*
X244500000Y-148011365D01*
X244502088Y-148010500D01*
X258497912Y-148010500D01*
X258500000Y-148011365D01*
X258508036Y-148008036D01*
X258510500Y-148002088D01*
X258511365Y-148000000D01*
X262488635Y-148000000D01*
X262489500Y-148002088D01*
X262491964Y-148008036D01*
X262500000Y-148011365D01*
X262502088Y-148010500D01*
X276497912Y-148010500D01*
X276500000Y-148011365D01*
X276508036Y-148008036D01*
X276510500Y-148002088D01*
X276511365Y-148000000D01*
X291738635Y-148000000D01*
X291739500Y-148002088D01*
X291741964Y-148008036D01*
X291750000Y-148011365D01*
X291752088Y-148010500D01*
X305747912Y-148010500D01*
X305750000Y-148011365D01*
X305758036Y-148008036D01*
X305760500Y-148002088D01*
X305761365Y-148000000D01*
X305760500Y-147997912D01*
X305760500Y-147500000D01*
X308044564Y-147500000D01*
X308044790Y-147503736D01*
X308064063Y-147822362D01*
X308064064Y-147822372D01*
X308064290Y-147826104D01*
X308064963Y-147829778D01*
X308064965Y-147829792D01*
X308122502Y-148143762D01*
X308122504Y-148143771D01*
X308123179Y-148147453D01*
X308220373Y-148459361D01*
X308354455Y-148757279D01*
X308356388Y-148760477D01*
X308356392Y-148760484D01*
X308521532Y-149033658D01*
X308521536Y-149033663D01*
X308523470Y-149036863D01*
X308724952Y-149294036D01*
X308955964Y-149525048D01*
X309213137Y-149726530D01*
X309492721Y-149895545D01*
X309790639Y-150029627D01*
X310102547Y-150126821D01*
X310423896Y-150185710D01*
X310750000Y-150205436D01*
X311076104Y-150185710D01*
X311397453Y-150126821D01*
X311709361Y-150029627D01*
X312007279Y-149895545D01*
X312286863Y-149726530D01*
X312544036Y-149525048D01*
X312775048Y-149294036D01*
X312976530Y-149036863D01*
X313145545Y-148757279D01*
X313279627Y-148459361D01*
X313376821Y-148147453D01*
X313403843Y-148000000D01*
X325488635Y-148000000D01*
X325489500Y-148002088D01*
X325491964Y-148008036D01*
X325500000Y-148011365D01*
X325502088Y-148010500D01*
X339497912Y-148010500D01*
X339500000Y-148011365D01*
X339508036Y-148008036D01*
X339510500Y-148002088D01*
X339511365Y-148000000D01*
X339510500Y-147997912D01*
X339510500Y-134002088D01*
X339511365Y-134000000D01*
X339508036Y-133991964D01*
X339502088Y-133989500D01*
X339500000Y-133988635D01*
X339497912Y-133989500D01*
X325502088Y-133989500D01*
X325500000Y-133988635D01*
X325497912Y-133989500D01*
X325491964Y-133991964D01*
X325488635Y-134000000D01*
X325489500Y-134002088D01*
X325489500Y-147997912D01*
X325488635Y-148000000D01*
X313403843Y-148000000D01*
X313435710Y-147826104D01*
X313455436Y-147500000D01*
X313435710Y-147173896D01*
X313376821Y-146852547D01*
X313279627Y-146540639D01*
X313145545Y-146242721D01*
X312976530Y-145963137D01*
X312775048Y-145705964D01*
X312544036Y-145474952D01*
X312286863Y-145273470D01*
X312283663Y-145271536D01*
X312283658Y-145271532D01*
X312010484Y-145106392D01*
X312010477Y-145106388D01*
X312007279Y-145104455D01*
X311709361Y-144970373D01*
X311397453Y-144873179D01*
X311393771Y-144872504D01*
X311393762Y-144872502D01*
X311079792Y-144814965D01*
X311079778Y-144814963D01*
X311076104Y-144814290D01*
X311072372Y-144814064D01*
X311072362Y-144814063D01*
X310753736Y-144794790D01*
X310750000Y-144794564D01*
X310746264Y-144794790D01*
X310427637Y-144814063D01*
X310427625Y-144814064D01*
X310423896Y-144814290D01*
X310420223Y-144814962D01*
X310420207Y-144814965D01*
X310106237Y-144872502D01*
X310106224Y-144872505D01*
X310102547Y-144873179D01*
X310098967Y-144874294D01*
X310098961Y-144874296D01*
X309794216Y-144969258D01*
X309794210Y-144969260D01*
X309790639Y-144970373D01*
X309787230Y-144971907D01*
X309787228Y-144971908D01*
X309496135Y-145102918D01*
X309496128Y-145102921D01*
X309492721Y-145104455D01*
X309489528Y-145106384D01*
X309489515Y-145106392D01*
X309216341Y-145271532D01*
X309216328Y-145271540D01*
X309213137Y-145273470D01*
X309210195Y-145275774D01*
X309210189Y-145275779D01*
X308958915Y-145472640D01*
X308955964Y-145474952D01*
X308953318Y-145477597D01*
X308953310Y-145477605D01*
X308727605Y-145703310D01*
X308727597Y-145703318D01*
X308724952Y-145705964D01*
X308722640Y-145708914D01*
X308722640Y-145708915D01*
X308525779Y-145960189D01*
X308525774Y-145960195D01*
X308523470Y-145963137D01*
X308521540Y-145966328D01*
X308521532Y-145966341D01*
X308356392Y-146239515D01*
X308356384Y-146239528D01*
X308354455Y-146242721D01*
X308220373Y-146540639D01*
X308123179Y-146852547D01*
X308122505Y-146856224D01*
X308122502Y-146856237D01*
X308064965Y-147170207D01*
X308064962Y-147170223D01*
X308064290Y-147173896D01*
X308064064Y-147177625D01*
X308064063Y-147177637D01*
X308045051Y-147491946D01*
X308044564Y-147500000D01*
X305760500Y-147500000D01*
X305760500Y-144050000D01*
X307588635Y-144050000D01*
X307589500Y-144052088D01*
X307591964Y-144058036D01*
X307600000Y-144061365D01*
X307602088Y-144060500D01*
X313897912Y-144060500D01*
X313900000Y-144061365D01*
X313908036Y-144058036D01*
X313910500Y-144052088D01*
X313911365Y-144050000D01*
X313910500Y-144047912D01*
X313910500Y-137202088D01*
X313911365Y-137200000D01*
X313908036Y-137191964D01*
X313902088Y-137189500D01*
X313900000Y-137188635D01*
X313897912Y-137189500D01*
X312684500Y-137189500D01*
X312622500Y-137172887D01*
X312577113Y-137127500D01*
X312560500Y-137065500D01*
X312560500Y-132557868D01*
X312560500Y-132552088D01*
X312561365Y-132550000D01*
X312558036Y-132541964D01*
X312552088Y-132539500D01*
X312550000Y-132538635D01*
X312547912Y-132539500D01*
X308952088Y-132539500D01*
X308950000Y-132538635D01*
X308947912Y-132539500D01*
X308941964Y-132541964D01*
X308938635Y-132550000D01*
X308939500Y-132552088D01*
X308939500Y-132557868D01*
X308939500Y-137065500D01*
X308922887Y-137127500D01*
X308877500Y-137172887D01*
X308815500Y-137189500D01*
X307602088Y-137189500D01*
X307600000Y-137188635D01*
X307597912Y-137189500D01*
X307591964Y-137191964D01*
X307588635Y-137200000D01*
X307589500Y-137202088D01*
X307589500Y-144047912D01*
X307588635Y-144050000D01*
X305760500Y-144050000D01*
X305760500Y-134002088D01*
X305761365Y-134000000D01*
X305758036Y-133991964D01*
X305752088Y-133989500D01*
X305750000Y-133988635D01*
X305747912Y-133989500D01*
X291752088Y-133989500D01*
X291750000Y-133988635D01*
X291747912Y-133989500D01*
X291741964Y-133991964D01*
X291738635Y-134000000D01*
X291739500Y-134002088D01*
X291739500Y-147997912D01*
X291738635Y-148000000D01*
X276511365Y-148000000D01*
X276510500Y-147997912D01*
X276510500Y-144050000D01*
X283588635Y-144050000D01*
X283589500Y-144052088D01*
X283591964Y-144058036D01*
X283600000Y-144061365D01*
X283602088Y-144060500D01*
X289897912Y-144060500D01*
X289900000Y-144061365D01*
X289908036Y-144058036D01*
X289910500Y-144052088D01*
X289911365Y-144050000D01*
X289910500Y-144047912D01*
X289910500Y-137202088D01*
X289911365Y-137200000D01*
X289908036Y-137191964D01*
X289902088Y-137189500D01*
X289900000Y-137188635D01*
X289897912Y-137189500D01*
X288684500Y-137189500D01*
X288622500Y-137172887D01*
X288577113Y-137127500D01*
X288560500Y-137065500D01*
X288560500Y-132557868D01*
X288560500Y-132552088D01*
X288561365Y-132550000D01*
X288558036Y-132541964D01*
X288552088Y-132539500D01*
X288550000Y-132538635D01*
X288547912Y-132539500D01*
X284952088Y-132539500D01*
X284950000Y-132538635D01*
X284947912Y-132539500D01*
X284941964Y-132541964D01*
X284938635Y-132550000D01*
X284939500Y-132552088D01*
X284939500Y-132557868D01*
X284939500Y-137065500D01*
X284922887Y-137127500D01*
X284877500Y-137172887D01*
X284815500Y-137189500D01*
X283602088Y-137189500D01*
X283600000Y-137188635D01*
X283597912Y-137189500D01*
X283591964Y-137191964D01*
X283588635Y-137200000D01*
X283589500Y-137202088D01*
X283589500Y-144047912D01*
X283588635Y-144050000D01*
X276510500Y-144050000D01*
X276510500Y-134002088D01*
X276511365Y-134000000D01*
X276508036Y-133991964D01*
X276502088Y-133989500D01*
X276500000Y-133988635D01*
X276497912Y-133989500D01*
X262502088Y-133989500D01*
X262500000Y-133988635D01*
X262497912Y-133989500D01*
X262491964Y-133991964D01*
X262488635Y-134000000D01*
X262489500Y-134002088D01*
X262489500Y-147997912D01*
X262488635Y-148000000D01*
X258511365Y-148000000D01*
X258510500Y-147997912D01*
X258510500Y-134002088D01*
X258511365Y-134000000D01*
X258508036Y-133991964D01*
X258502088Y-133989500D01*
X258500000Y-133988635D01*
X258497912Y-133989500D01*
X244502088Y-133989500D01*
X244500000Y-133988635D01*
X244497912Y-133989500D01*
X244491964Y-133991964D01*
X244488635Y-134000000D01*
X244489500Y-134002088D01*
X244489500Y-147997912D01*
X244488635Y-148000000D01*
X240511365Y-148000000D01*
X240510500Y-147997912D01*
X240510500Y-134002088D01*
X240511365Y-134000000D01*
X240508036Y-133991964D01*
X240502088Y-133989500D01*
X240500000Y-133988635D01*
X240497912Y-133989500D01*
X226502088Y-133989500D01*
X226500000Y-133988635D01*
X226497912Y-133989500D01*
X226491964Y-133991964D01*
X226488635Y-134000000D01*
X226489500Y-134002088D01*
X226489500Y-147997912D01*
X226488635Y-148000000D01*
X222511365Y-148000000D01*
X222510500Y-147997912D01*
X222510500Y-134002088D01*
X222511365Y-134000000D01*
X222508036Y-133991964D01*
X222502088Y-133989500D01*
X222500000Y-133988635D01*
X222497912Y-133989500D01*
X208502088Y-133989500D01*
X208500000Y-133988635D01*
X208497912Y-133989500D01*
X208491964Y-133991964D01*
X208488635Y-134000000D01*
X208489500Y-134002088D01*
X208489500Y-147997912D01*
X208488635Y-148000000D01*
X204511365Y-148000000D01*
X204510500Y-147997912D01*
X204510500Y-134002088D01*
X204511365Y-134000000D01*
X204508036Y-133991964D01*
X204502088Y-133989500D01*
X204500000Y-133988635D01*
X204497912Y-133989500D01*
X190502088Y-133989500D01*
X190500000Y-133988635D01*
X190497912Y-133989500D01*
X190491964Y-133991964D01*
X190488635Y-134000000D01*
X190489500Y-134002088D01*
X190489500Y-147997912D01*
X190488635Y-148000000D01*
X186511365Y-148000000D01*
X186510500Y-147997912D01*
X186510500Y-134002088D01*
X186511365Y-134000000D01*
X186508036Y-133991964D01*
X186502088Y-133989500D01*
X186500000Y-133988635D01*
X186497912Y-133989500D01*
X172502088Y-133989500D01*
X172500000Y-133988635D01*
X172497912Y-133989500D01*
X172491964Y-133991964D01*
X172488635Y-134000000D01*
X172489500Y-134002088D01*
X172489500Y-147997912D01*
X172488635Y-148000000D01*
X168511365Y-148000000D01*
X168510500Y-147997912D01*
X168510500Y-134002088D01*
X168511365Y-134000000D01*
X168508036Y-133991964D01*
X168502088Y-133989500D01*
X168500000Y-133988635D01*
X168497912Y-133989500D01*
X154502088Y-133989500D01*
X154500000Y-133988635D01*
X154497912Y-133989500D01*
X154491964Y-133991964D01*
X154488635Y-134000000D01*
X154489500Y-134002088D01*
X154489500Y-147997912D01*
X154488635Y-148000000D01*
X150511365Y-148000000D01*
X150510500Y-147997912D01*
X150510500Y-134002088D01*
X150511365Y-134000000D01*
X150508036Y-133991964D01*
X150502088Y-133989500D01*
X150500000Y-133988635D01*
X150497912Y-133989500D01*
X136502088Y-133989500D01*
X136500000Y-133988635D01*
X136497912Y-133989500D01*
X136491964Y-133991964D01*
X136488635Y-134000000D01*
X136489500Y-134002088D01*
X136489500Y-147997912D01*
X136488635Y-148000000D01*
X132511365Y-148000000D01*
X132510500Y-147997912D01*
X132510500Y-134002088D01*
X132511365Y-134000000D01*
X132508036Y-133991964D01*
X132502088Y-133989500D01*
X132500000Y-133988635D01*
X132497912Y-133989500D01*
X118502088Y-133989500D01*
X118500000Y-133988635D01*
X118497912Y-133989500D01*
X118491964Y-133991964D01*
X118488635Y-134000000D01*
X118489500Y-134002088D01*
X118489500Y-147997912D01*
X118488635Y-148000000D01*
X114511365Y-148000000D01*
X114510500Y-147997912D01*
X114510500Y-134002088D01*
X114511365Y-134000000D01*
X114508036Y-133991964D01*
X114502088Y-133989500D01*
X114500000Y-133988635D01*
X114497912Y-133989500D01*
X100502088Y-133989500D01*
X100500000Y-133988635D01*
X100497912Y-133989500D01*
X100491964Y-133991964D01*
X100488635Y-134000000D01*
X100489500Y-134002088D01*
X100489500Y-147997912D01*
X100488635Y-148000000D01*
X92903843Y-148000000D01*
X92935710Y-147826104D01*
X92955436Y-147500000D01*
X92935710Y-147173896D01*
X92876821Y-146852547D01*
X92779627Y-146540639D01*
X92645545Y-146242721D01*
X92476530Y-145963137D01*
X92275048Y-145705964D01*
X92044036Y-145474952D01*
X91786863Y-145273470D01*
X91783663Y-145271536D01*
X91783658Y-145271532D01*
X91510484Y-145106392D01*
X91510477Y-145106388D01*
X91507279Y-145104455D01*
X91209361Y-144970373D01*
X90897453Y-144873179D01*
X90893771Y-144872504D01*
X90893762Y-144872502D01*
X90579792Y-144814965D01*
X90579778Y-144814963D01*
X90576104Y-144814290D01*
X90572372Y-144814064D01*
X90572362Y-144814063D01*
X90253736Y-144794790D01*
X90250000Y-144794564D01*
X90246264Y-144794790D01*
X89927637Y-144814063D01*
X89927625Y-144814064D01*
X89923896Y-144814290D01*
X89920223Y-144814962D01*
X89920207Y-144814965D01*
X89606237Y-144872502D01*
X89606224Y-144872505D01*
X89602547Y-144873179D01*
X89598967Y-144874294D01*
X89598961Y-144874296D01*
X89294216Y-144969258D01*
X89294210Y-144969260D01*
X89290639Y-144970373D01*
X89287230Y-144971907D01*
X89287228Y-144971908D01*
X88996135Y-145102918D01*
X88996128Y-145102921D01*
X88992721Y-145104455D01*
X88989528Y-145106384D01*
X88989515Y-145106392D01*
X88716341Y-145271532D01*
X88716328Y-145271540D01*
X88713137Y-145273470D01*
X88710195Y-145275774D01*
X88710189Y-145275779D01*
X88458915Y-145472640D01*
X88455964Y-145474952D01*
X88453318Y-145477597D01*
X88453310Y-145477605D01*
X88227605Y-145703310D01*
X88227597Y-145703318D01*
X88224952Y-145705964D01*
X88222640Y-145708914D01*
X88222640Y-145708915D01*
X88025779Y-145960189D01*
X88025774Y-145960195D01*
X88023470Y-145963137D01*
X88021540Y-145966328D01*
X88021532Y-145966341D01*
X87856392Y-146239515D01*
X87856384Y-146239528D01*
X87854455Y-146242721D01*
X87720373Y-146540639D01*
X87623179Y-146852547D01*
X87622505Y-146856224D01*
X87622502Y-146856237D01*
X87564965Y-147170207D01*
X87564962Y-147170223D01*
X87564290Y-147173896D01*
X87564064Y-147177625D01*
X87564063Y-147177637D01*
X87545051Y-147491946D01*
X87544564Y-147500000D01*
X85260500Y-147500000D01*
X85260500Y-144050000D01*
X87088635Y-144050000D01*
X87089500Y-144052088D01*
X87091964Y-144058036D01*
X87100000Y-144061365D01*
X87102088Y-144060500D01*
X93397912Y-144060500D01*
X93400000Y-144061365D01*
X93408036Y-144058036D01*
X93410500Y-144052088D01*
X93411365Y-144050000D01*
X93410500Y-144047912D01*
X93410500Y-137202088D01*
X93411365Y-137200000D01*
X93408036Y-137191964D01*
X93402088Y-137189500D01*
X93400000Y-137188635D01*
X93397912Y-137189500D01*
X92184500Y-137189500D01*
X92122500Y-137172887D01*
X92077113Y-137127500D01*
X92060500Y-137065500D01*
X92060500Y-132557868D01*
X92060500Y-132552088D01*
X92061365Y-132550000D01*
X92058036Y-132541964D01*
X92052088Y-132539500D01*
X92050000Y-132538635D01*
X92047912Y-132539500D01*
X88452088Y-132539500D01*
X88450000Y-132538635D01*
X88447912Y-132539500D01*
X88441964Y-132541964D01*
X88438635Y-132550000D01*
X88439500Y-132552088D01*
X88439500Y-132557868D01*
X88439500Y-137065500D01*
X88422887Y-137127500D01*
X88377500Y-137172887D01*
X88315500Y-137189500D01*
X87102088Y-137189500D01*
X87100000Y-137188635D01*
X87097912Y-137189500D01*
X87091964Y-137191964D01*
X87088635Y-137200000D01*
X87089500Y-137202088D01*
X87089500Y-144047912D01*
X87088635Y-144050000D01*
X85260500Y-144050000D01*
X85260500Y-134002088D01*
X85261365Y-134000000D01*
X85258036Y-133991964D01*
X85252088Y-133989500D01*
X85250000Y-133988635D01*
X85247912Y-133989500D01*
X71252088Y-133989500D01*
X71250000Y-133988635D01*
X71247912Y-133989500D01*
X71241964Y-133991964D01*
X71238635Y-134000000D01*
X71239500Y-134002088D01*
X71239500Y-147997912D01*
X71238635Y-148000000D01*
X55010500Y-148000000D01*
X55010500Y-144050000D01*
X63088635Y-144050000D01*
X63089500Y-144052088D01*
X63091964Y-144058036D01*
X63100000Y-144061365D01*
X63102088Y-144060500D01*
X69397912Y-144060500D01*
X69400000Y-144061365D01*
X69408036Y-144058036D01*
X69410500Y-144052088D01*
X69411365Y-144050000D01*
X69410500Y-144047912D01*
X69410500Y-137202088D01*
X69411365Y-137200000D01*
X69408036Y-137191964D01*
X69402088Y-137189500D01*
X69400000Y-137188635D01*
X69397912Y-137189500D01*
X68184500Y-137189500D01*
X68122500Y-137172887D01*
X68077113Y-137127500D01*
X68060500Y-137065500D01*
X68060500Y-132557868D01*
X68060500Y-132552088D01*
X68061365Y-132550000D01*
X68058036Y-132541964D01*
X68052088Y-132539500D01*
X68050000Y-132538635D01*
X68047912Y-132539500D01*
X64452088Y-132539500D01*
X64450000Y-132538635D01*
X64447912Y-132539500D01*
X64441964Y-132541964D01*
X64438635Y-132550000D01*
X64439500Y-132552088D01*
X64439500Y-132557868D01*
X64439500Y-137065500D01*
X64422887Y-137127500D01*
X64377500Y-137172887D01*
X64315500Y-137189500D01*
X63102088Y-137189500D01*
X63100000Y-137188635D01*
X63097912Y-137189500D01*
X63091964Y-137191964D01*
X63088635Y-137200000D01*
X63089500Y-137202088D01*
X63089500Y-144047912D01*
X63088635Y-144050000D01*
X55010500Y-144050000D01*
X55010500Y-131000000D01*
X66738635Y-131000000D01*
X66739500Y-131002088D01*
X66741964Y-131008036D01*
X66750000Y-131011365D01*
X66752088Y-131010500D01*
X80747912Y-131010500D01*
X80750000Y-131011365D01*
X80758036Y-131008036D01*
X80760500Y-131002088D01*
X80761365Y-131000000D01*
X91488635Y-131000000D01*
X91489500Y-131002088D01*
X91491964Y-131008036D01*
X91500000Y-131011365D01*
X91502088Y-131010500D01*
X105497912Y-131010500D01*
X105500000Y-131011365D01*
X105508036Y-131008036D01*
X105510500Y-131002088D01*
X105511365Y-131000000D01*
X109488635Y-131000000D01*
X109489500Y-131002088D01*
X109491964Y-131008036D01*
X109500000Y-131011365D01*
X109502088Y-131010500D01*
X123497912Y-131010500D01*
X123500000Y-131011365D01*
X123508036Y-131008036D01*
X123510500Y-131002088D01*
X123511365Y-131000000D01*
X127488635Y-131000000D01*
X127489500Y-131002088D01*
X127491964Y-131008036D01*
X127500000Y-131011365D01*
X127502088Y-131010500D01*
X141497912Y-131010500D01*
X141500000Y-131011365D01*
X141508036Y-131008036D01*
X141510500Y-131002088D01*
X141511365Y-131000000D01*
X145488635Y-131000000D01*
X145489500Y-131002088D01*
X145491964Y-131008036D01*
X145500000Y-131011365D01*
X145502088Y-131010500D01*
X159497912Y-131010500D01*
X159500000Y-131011365D01*
X159508036Y-131008036D01*
X159510500Y-131002088D01*
X159511365Y-131000000D01*
X163488635Y-131000000D01*
X163489500Y-131002088D01*
X163491964Y-131008036D01*
X163500000Y-131011365D01*
X163502088Y-131010500D01*
X177497912Y-131010500D01*
X177500000Y-131011365D01*
X177508036Y-131008036D01*
X177510500Y-131002088D01*
X177511365Y-131000000D01*
X181488635Y-131000000D01*
X181489500Y-131002088D01*
X181491964Y-131008036D01*
X181500000Y-131011365D01*
X181502088Y-131010500D01*
X195497912Y-131010500D01*
X195500000Y-131011365D01*
X195508036Y-131008036D01*
X195510500Y-131002088D01*
X195511365Y-131000000D01*
X199488635Y-131000000D01*
X199489500Y-131002088D01*
X199491964Y-131008036D01*
X199500000Y-131011365D01*
X199502088Y-131010500D01*
X213497912Y-131010500D01*
X213500000Y-131011365D01*
X213508036Y-131008036D01*
X213510500Y-131002088D01*
X213511365Y-131000000D01*
X217488635Y-131000000D01*
X217489500Y-131002088D01*
X217491964Y-131008036D01*
X217500000Y-131011365D01*
X217502088Y-131010500D01*
X231497912Y-131010500D01*
X231500000Y-131011365D01*
X231508036Y-131008036D01*
X231510500Y-131002088D01*
X231511365Y-131000000D01*
X235488635Y-131000000D01*
X235489500Y-131002088D01*
X235491964Y-131008036D01*
X235500000Y-131011365D01*
X235502088Y-131010500D01*
X249497912Y-131010500D01*
X249500000Y-131011365D01*
X249508036Y-131008036D01*
X249510500Y-131002088D01*
X249511365Y-131000000D01*
X253488635Y-131000000D01*
X253489500Y-131002088D01*
X253491964Y-131008036D01*
X253500000Y-131011365D01*
X253502088Y-131010500D01*
X267497912Y-131010500D01*
X267500000Y-131011365D01*
X267508036Y-131008036D01*
X267510500Y-131002088D01*
X267511365Y-131000000D01*
X271488635Y-131000000D01*
X271489500Y-131002088D01*
X271491964Y-131008036D01*
X271500000Y-131011365D01*
X271502088Y-131010500D01*
X285497912Y-131010500D01*
X285500000Y-131011365D01*
X285508036Y-131008036D01*
X285510500Y-131002088D01*
X285511365Y-131000000D01*
X296238635Y-131000000D01*
X296239500Y-131002088D01*
X296241964Y-131008036D01*
X296250000Y-131011365D01*
X296252088Y-131010500D01*
X310247912Y-131010500D01*
X310250000Y-131011365D01*
X310258036Y-131008036D01*
X310260500Y-131002088D01*
X310261365Y-131000000D01*
X310260500Y-130997912D01*
X310260500Y-117002088D01*
X310261365Y-117000000D01*
X310258036Y-116991964D01*
X310252088Y-116989500D01*
X310250000Y-116988635D01*
X310247912Y-116989500D01*
X296252088Y-116989500D01*
X296250000Y-116988635D01*
X296247912Y-116989500D01*
X296241964Y-116991964D01*
X296238635Y-117000000D01*
X296239500Y-117002088D01*
X296239500Y-130997912D01*
X296238635Y-131000000D01*
X285511365Y-131000000D01*
X285510500Y-130997912D01*
X285510500Y-117002088D01*
X285511365Y-117000000D01*
X285508036Y-116991964D01*
X285502088Y-116989500D01*
X285500000Y-116988635D01*
X285497912Y-116989500D01*
X271502088Y-116989500D01*
X271500000Y-116988635D01*
X271497912Y-116989500D01*
X271491964Y-116991964D01*
X271488635Y-117000000D01*
X271489500Y-117002088D01*
X271489500Y-130997912D01*
X271488635Y-131000000D01*
X267511365Y-131000000D01*
X267510500Y-130997912D01*
X267510500Y-117002088D01*
X267511365Y-117000000D01*
X267508036Y-116991964D01*
X267502088Y-116989500D01*
X267500000Y-116988635D01*
X267497912Y-116989500D01*
X253502088Y-116989500D01*
X253500000Y-116988635D01*
X253497912Y-116989500D01*
X253491964Y-116991964D01*
X253488635Y-117000000D01*
X253489500Y-117002088D01*
X253489500Y-130997912D01*
X253488635Y-131000000D01*
X249511365Y-131000000D01*
X249510500Y-130997912D01*
X249510500Y-117002088D01*
X249511365Y-117000000D01*
X249508036Y-116991964D01*
X249502088Y-116989500D01*
X249500000Y-116988635D01*
X249497912Y-116989500D01*
X235502088Y-116989500D01*
X235500000Y-116988635D01*
X235497912Y-116989500D01*
X235491964Y-116991964D01*
X235488635Y-117000000D01*
X235489500Y-117002088D01*
X235489500Y-130997912D01*
X235488635Y-131000000D01*
X231511365Y-131000000D01*
X231510500Y-130997912D01*
X231510500Y-117002088D01*
X231511365Y-117000000D01*
X231508036Y-116991964D01*
X231502088Y-116989500D01*
X231500000Y-116988635D01*
X231497912Y-116989500D01*
X217502088Y-116989500D01*
X217500000Y-116988635D01*
X217497912Y-116989500D01*
X217491964Y-116991964D01*
X217488635Y-117000000D01*
X217489500Y-117002088D01*
X217489500Y-130997912D01*
X217488635Y-131000000D01*
X213511365Y-131000000D01*
X213510500Y-130997912D01*
X213510500Y-117002088D01*
X213511365Y-117000000D01*
X213508036Y-116991964D01*
X213502088Y-116989500D01*
X213500000Y-116988635D01*
X213497912Y-116989500D01*
X199502088Y-116989500D01*
X199500000Y-116988635D01*
X199497912Y-116989500D01*
X199491964Y-116991964D01*
X199488635Y-117000000D01*
X199489500Y-117002088D01*
X199489500Y-130997912D01*
X199488635Y-131000000D01*
X195511365Y-131000000D01*
X195510500Y-130997912D01*
X195510500Y-117002088D01*
X195511365Y-117000000D01*
X195508036Y-116991964D01*
X195502088Y-116989500D01*
X195500000Y-116988635D01*
X195497912Y-116989500D01*
X181502088Y-116989500D01*
X181500000Y-116988635D01*
X181497912Y-116989500D01*
X181491964Y-116991964D01*
X181488635Y-117000000D01*
X181489500Y-117002088D01*
X181489500Y-130997912D01*
X181488635Y-131000000D01*
X177511365Y-131000000D01*
X177510500Y-130997912D01*
X177510500Y-117002088D01*
X177511365Y-117000000D01*
X177508036Y-116991964D01*
X177502088Y-116989500D01*
X177500000Y-116988635D01*
X177497912Y-116989500D01*
X163502088Y-116989500D01*
X163500000Y-116988635D01*
X163497912Y-116989500D01*
X163491964Y-116991964D01*
X163488635Y-117000000D01*
X163489500Y-117002088D01*
X163489500Y-130997912D01*
X163488635Y-131000000D01*
X159511365Y-131000000D01*
X159510500Y-130997912D01*
X159510500Y-117002088D01*
X159511365Y-117000000D01*
X159508036Y-116991964D01*
X159502088Y-116989500D01*
X159500000Y-116988635D01*
X159497912Y-116989500D01*
X145502088Y-116989500D01*
X145500000Y-116988635D01*
X145497912Y-116989500D01*
X145491964Y-116991964D01*
X145488635Y-117000000D01*
X145489500Y-117002088D01*
X145489500Y-130997912D01*
X145488635Y-131000000D01*
X141511365Y-131000000D01*
X141510500Y-130997912D01*
X141510500Y-117002088D01*
X141511365Y-117000000D01*
X141508036Y-116991964D01*
X141502088Y-116989500D01*
X141500000Y-116988635D01*
X141497912Y-116989500D01*
X127502088Y-116989500D01*
X127500000Y-116988635D01*
X127497912Y-116989500D01*
X127491964Y-116991964D01*
X127488635Y-117000000D01*
X127489500Y-117002088D01*
X127489500Y-130997912D01*
X127488635Y-131000000D01*
X123511365Y-131000000D01*
X123510500Y-130997912D01*
X123510500Y-117002088D01*
X123511365Y-117000000D01*
X123508036Y-116991964D01*
X123502088Y-116989500D01*
X123500000Y-116988635D01*
X123497912Y-116989500D01*
X109502088Y-116989500D01*
X109500000Y-116988635D01*
X109497912Y-116989500D01*
X109491964Y-116991964D01*
X109488635Y-117000000D01*
X109489500Y-117002088D01*
X109489500Y-130997912D01*
X109488635Y-131000000D01*
X105511365Y-131000000D01*
X105510500Y-130997912D01*
X105510500Y-117002088D01*
X105511365Y-117000000D01*
X105508036Y-116991964D01*
X105502088Y-116989500D01*
X105500000Y-116988635D01*
X105497912Y-116989500D01*
X91502088Y-116989500D01*
X91500000Y-116988635D01*
X91497912Y-116989500D01*
X91491964Y-116991964D01*
X91488635Y-117000000D01*
X91489500Y-117002088D01*
X91489500Y-130997912D01*
X91488635Y-131000000D01*
X80761365Y-131000000D01*
X80760500Y-130997912D01*
X80760500Y-117002088D01*
X80761365Y-117000000D01*
X80758036Y-116991964D01*
X80752088Y-116989500D01*
X80750000Y-116988635D01*
X80747912Y-116989500D01*
X66752088Y-116989500D01*
X66750000Y-116988635D01*
X66747912Y-116989500D01*
X66741964Y-116991964D01*
X66738635Y-117000000D01*
X66739500Y-117002088D01*
X66739500Y-130997912D01*
X66738635Y-131000000D01*
X55010500Y-131000000D01*
X55010500Y-114000000D01*
X64488635Y-114000000D01*
X64489500Y-114002088D01*
X64491964Y-114008036D01*
X64500000Y-114011365D01*
X64502088Y-114010500D01*
X78497912Y-114010500D01*
X78500000Y-114011365D01*
X78508036Y-114008036D01*
X78510500Y-114002088D01*
X78511365Y-114000000D01*
X86988635Y-114000000D01*
X86989500Y-114002088D01*
X86991964Y-114008036D01*
X87000000Y-114011365D01*
X87002088Y-114010500D01*
X100997912Y-114010500D01*
X101000000Y-114011365D01*
X101008036Y-114008036D01*
X101010500Y-114002088D01*
X101011365Y-114000000D01*
X104988635Y-114000000D01*
X104989500Y-114002088D01*
X104991964Y-114008036D01*
X105000000Y-114011365D01*
X105002088Y-114010500D01*
X118997912Y-114010500D01*
X119000000Y-114011365D01*
X119008036Y-114008036D01*
X119010500Y-114002088D01*
X119011365Y-114000000D01*
X122988635Y-114000000D01*
X122989500Y-114002088D01*
X122991964Y-114008036D01*
X123000000Y-114011365D01*
X123002088Y-114010500D01*
X136997912Y-114010500D01*
X137000000Y-114011365D01*
X137008036Y-114008036D01*
X137010500Y-114002088D01*
X137011365Y-114000000D01*
X140988635Y-114000000D01*
X140989500Y-114002088D01*
X140991964Y-114008036D01*
X141000000Y-114011365D01*
X141002088Y-114010500D01*
X154997912Y-114010500D01*
X155000000Y-114011365D01*
X155008036Y-114008036D01*
X155010500Y-114002088D01*
X155011365Y-114000000D01*
X158988635Y-114000000D01*
X158989500Y-114002088D01*
X158991964Y-114008036D01*
X159000000Y-114011365D01*
X159002088Y-114010500D01*
X172997912Y-114010500D01*
X173000000Y-114011365D01*
X173008036Y-114008036D01*
X173010500Y-114002088D01*
X173011365Y-114000000D01*
X176988635Y-114000000D01*
X176989500Y-114002088D01*
X176991964Y-114008036D01*
X177000000Y-114011365D01*
X177002088Y-114010500D01*
X190997912Y-114010500D01*
X191000000Y-114011365D01*
X191008036Y-114008036D01*
X191010500Y-114002088D01*
X191011365Y-114000000D01*
X194988635Y-114000000D01*
X194989500Y-114002088D01*
X194991964Y-114008036D01*
X195000000Y-114011365D01*
X195002088Y-114010500D01*
X208997912Y-114010500D01*
X209000000Y-114011365D01*
X209008036Y-114008036D01*
X209010500Y-114002088D01*
X209011365Y-114000000D01*
X212988635Y-114000000D01*
X212989500Y-114002088D01*
X212991964Y-114008036D01*
X213000000Y-114011365D01*
X213002088Y-114010500D01*
X226997912Y-114010500D01*
X227000000Y-114011365D01*
X227008036Y-114008036D01*
X227010500Y-114002088D01*
X227011365Y-114000000D01*
X230988635Y-114000000D01*
X230989500Y-114002088D01*
X230991964Y-114008036D01*
X231000000Y-114011365D01*
X231002088Y-114010500D01*
X244997912Y-114010500D01*
X245000000Y-114011365D01*
X245008036Y-114008036D01*
X245010500Y-114002088D01*
X245011365Y-114000000D01*
X248988635Y-114000000D01*
X248989500Y-114002088D01*
X248991964Y-114008036D01*
X249000000Y-114011365D01*
X249002088Y-114010500D01*
X262997912Y-114010500D01*
X263000000Y-114011365D01*
X263008036Y-114008036D01*
X263010500Y-114002088D01*
X263011365Y-114000000D01*
X266988635Y-114000000D01*
X266989500Y-114002088D01*
X266991964Y-114008036D01*
X267000000Y-114011365D01*
X267002088Y-114010500D01*
X280997912Y-114010500D01*
X281000000Y-114011365D01*
X281008036Y-114008036D01*
X281010500Y-114002088D01*
X281011365Y-114000000D01*
X284988635Y-114000000D01*
X284989500Y-114002088D01*
X284991964Y-114008036D01*
X285000000Y-114011365D01*
X285002088Y-114010500D01*
X298997912Y-114010500D01*
X299000000Y-114011365D01*
X299008036Y-114008036D01*
X299010500Y-114002088D01*
X299011365Y-114000000D01*
X302988635Y-114000000D01*
X302989500Y-114002088D01*
X302991964Y-114008036D01*
X303000000Y-114011365D01*
X303002088Y-114010500D01*
X316997912Y-114010500D01*
X317000000Y-114011365D01*
X317008036Y-114008036D01*
X317010500Y-114002088D01*
X317011365Y-114000000D01*
X317010500Y-113997912D01*
X317010500Y-107047901D01*
X325614889Y-107047901D01*
X325615754Y-107049989D01*
X325618218Y-107055937D01*
X325626254Y-107059266D01*
X325628342Y-107058401D01*
X330374166Y-107058401D01*
X330376254Y-107059266D01*
X330384290Y-107055937D01*
X330386754Y-107049989D01*
X330387619Y-107047901D01*
X330386754Y-107045813D01*
X330386754Y-92549989D01*
X330387619Y-92547901D01*
X330384290Y-92539865D01*
X330378342Y-92537401D01*
X330376254Y-92536536D01*
X330374166Y-92537401D01*
X325628342Y-92537401D01*
X325626254Y-92536536D01*
X325624166Y-92537401D01*
X325618218Y-92539865D01*
X325614889Y-92547901D01*
X325615754Y-92549989D01*
X325615754Y-107045813D01*
X325614889Y-107047901D01*
X317010500Y-107047901D01*
X317010500Y-100002088D01*
X317011365Y-100000000D01*
X317008036Y-99991964D01*
X317002088Y-99989500D01*
X317000000Y-99988635D01*
X316997912Y-99989500D01*
X303002088Y-99989500D01*
X303000000Y-99988635D01*
X302997912Y-99989500D01*
X302991964Y-99991964D01*
X302988635Y-100000000D01*
X302989500Y-100002088D01*
X302989500Y-113997912D01*
X302988635Y-114000000D01*
X299011365Y-114000000D01*
X299010500Y-113997912D01*
X299010500Y-100002088D01*
X299011365Y-100000000D01*
X299008036Y-99991964D01*
X299002088Y-99989500D01*
X299000000Y-99988635D01*
X298997912Y-99989500D01*
X285002088Y-99989500D01*
X285000000Y-99988635D01*
X284997912Y-99989500D01*
X284991964Y-99991964D01*
X284988635Y-100000000D01*
X284989500Y-100002088D01*
X284989500Y-113997912D01*
X284988635Y-114000000D01*
X281011365Y-114000000D01*
X281010500Y-113997912D01*
X281010500Y-100002088D01*
X281011365Y-100000000D01*
X281008036Y-99991964D01*
X281002088Y-99989500D01*
X281000000Y-99988635D01*
X280997912Y-99989500D01*
X267002088Y-99989500D01*
X267000000Y-99988635D01*
X266997912Y-99989500D01*
X266991964Y-99991964D01*
X266988635Y-100000000D01*
X266989500Y-100002088D01*
X266989500Y-113997912D01*
X266988635Y-114000000D01*
X263011365Y-114000000D01*
X263010500Y-113997912D01*
X263010500Y-100002088D01*
X263011365Y-100000000D01*
X263008036Y-99991964D01*
X263002088Y-99989500D01*
X263000000Y-99988635D01*
X262997912Y-99989500D01*
X249002088Y-99989500D01*
X249000000Y-99988635D01*
X248997912Y-99989500D01*
X248991964Y-99991964D01*
X248988635Y-100000000D01*
X248989500Y-100002088D01*
X248989500Y-113997912D01*
X248988635Y-114000000D01*
X245011365Y-114000000D01*
X245010500Y-113997912D01*
X245010500Y-100002088D01*
X245011365Y-100000000D01*
X245008036Y-99991964D01*
X245002088Y-99989500D01*
X245000000Y-99988635D01*
X244997912Y-99989500D01*
X231002088Y-99989500D01*
X231000000Y-99988635D01*
X230997912Y-99989500D01*
X230991964Y-99991964D01*
X230988635Y-100000000D01*
X230989500Y-100002088D01*
X230989500Y-113997912D01*
X230988635Y-114000000D01*
X227011365Y-114000000D01*
X227010500Y-113997912D01*
X227010500Y-100002088D01*
X227011365Y-100000000D01*
X227008036Y-99991964D01*
X227002088Y-99989500D01*
X227000000Y-99988635D01*
X226997912Y-99989500D01*
X213002088Y-99989500D01*
X213000000Y-99988635D01*
X212997912Y-99989500D01*
X212991964Y-99991964D01*
X212988635Y-100000000D01*
X212989500Y-100002088D01*
X212989500Y-113997912D01*
X212988635Y-114000000D01*
X209011365Y-114000000D01*
X209010500Y-113997912D01*
X209010500Y-100002088D01*
X209011365Y-100000000D01*
X209008036Y-99991964D01*
X209002088Y-99989500D01*
X209000000Y-99988635D01*
X208997912Y-99989500D01*
X195002088Y-99989500D01*
X195000000Y-99988635D01*
X194997912Y-99989500D01*
X194991964Y-99991964D01*
X194988635Y-100000000D01*
X194989500Y-100002088D01*
X194989500Y-113997912D01*
X194988635Y-114000000D01*
X191011365Y-114000000D01*
X191010500Y-113997912D01*
X191010500Y-100002088D01*
X191011365Y-100000000D01*
X191008036Y-99991964D01*
X191002088Y-99989500D01*
X191000000Y-99988635D01*
X190997912Y-99989500D01*
X177002088Y-99989500D01*
X177000000Y-99988635D01*
X176997912Y-99989500D01*
X176991964Y-99991964D01*
X176988635Y-100000000D01*
X176989500Y-100002088D01*
X176989500Y-113997912D01*
X176988635Y-114000000D01*
X173011365Y-114000000D01*
X173010500Y-113997912D01*
X173010500Y-100002088D01*
X173011365Y-100000000D01*
X173008036Y-99991964D01*
X173002088Y-99989500D01*
X173000000Y-99988635D01*
X172997912Y-99989500D01*
X159002088Y-99989500D01*
X159000000Y-99988635D01*
X158997912Y-99989500D01*
X158991964Y-99991964D01*
X158988635Y-100000000D01*
X158989500Y-100002088D01*
X158989500Y-113997912D01*
X158988635Y-114000000D01*
X155011365Y-114000000D01*
X155010500Y-113997912D01*
X155010500Y-100002088D01*
X155011365Y-100000000D01*
X155008036Y-99991964D01*
X155002088Y-99989500D01*
X155000000Y-99988635D01*
X154997912Y-99989500D01*
X141002088Y-99989500D01*
X141000000Y-99988635D01*
X140997912Y-99989500D01*
X140991964Y-99991964D01*
X140988635Y-100000000D01*
X140989500Y-100002088D01*
X140989500Y-113997912D01*
X140988635Y-114000000D01*
X137011365Y-114000000D01*
X137010500Y-113997912D01*
X137010500Y-100002088D01*
X137011365Y-100000000D01*
X137008036Y-99991964D01*
X137002088Y-99989500D01*
X137000000Y-99988635D01*
X136997912Y-99989500D01*
X123002088Y-99989500D01*
X123000000Y-99988635D01*
X122997912Y-99989500D01*
X122991964Y-99991964D01*
X122988635Y-100000000D01*
X122989500Y-100002088D01*
X122989500Y-113997912D01*
X122988635Y-114000000D01*
X119011365Y-114000000D01*
X119010500Y-113997912D01*
X119010500Y-100002088D01*
X119011365Y-100000000D01*
X119008036Y-99991964D01*
X119002088Y-99989500D01*
X119000000Y-99988635D01*
X118997912Y-99989500D01*
X105002088Y-99989500D01*
X105000000Y-99988635D01*
X104997912Y-99989500D01*
X104991964Y-99991964D01*
X104988635Y-100000000D01*
X104989500Y-100002088D01*
X104989500Y-113997912D01*
X104988635Y-114000000D01*
X101011365Y-114000000D01*
X101010500Y-113997912D01*
X101010500Y-100002088D01*
X101011365Y-100000000D01*
X101008036Y-99991964D01*
X101002088Y-99989500D01*
X101000000Y-99988635D01*
X100997912Y-99989500D01*
X87002088Y-99989500D01*
X87000000Y-99988635D01*
X86997912Y-99989500D01*
X86991964Y-99991964D01*
X86988635Y-100000000D01*
X86989500Y-100002088D01*
X86989500Y-113997912D01*
X86988635Y-114000000D01*
X78511365Y-114000000D01*
X78510500Y-113997912D01*
X78510500Y-102500000D01*
X80044564Y-102500000D01*
X80044790Y-102503736D01*
X80064063Y-102822362D01*
X80064064Y-102822372D01*
X80064290Y-102826104D01*
X80064963Y-102829778D01*
X80064965Y-102829792D01*
X80122502Y-103143762D01*
X80122504Y-103143771D01*
X80123179Y-103147453D01*
X80220373Y-103459361D01*
X80354455Y-103757279D01*
X80356388Y-103760477D01*
X80356392Y-103760484D01*
X80521532Y-104033658D01*
X80521536Y-104033663D01*
X80523470Y-104036863D01*
X80724952Y-104294036D01*
X80955964Y-104525048D01*
X81213137Y-104726530D01*
X81492721Y-104895545D01*
X81790639Y-105029627D01*
X82102547Y-105126821D01*
X82423896Y-105185710D01*
X82750000Y-105205436D01*
X83076104Y-105185710D01*
X83397453Y-105126821D01*
X83709361Y-105029627D01*
X84007279Y-104895545D01*
X84286863Y-104726530D01*
X84544036Y-104525048D01*
X84775048Y-104294036D01*
X84976530Y-104036863D01*
X85145545Y-103757279D01*
X85279627Y-103459361D01*
X85376821Y-103147453D01*
X85435710Y-102826104D01*
X85455436Y-102500000D01*
X85435710Y-102173896D01*
X85376821Y-101852547D01*
X85279627Y-101540639D01*
X85145545Y-101242721D01*
X84976530Y-100963137D01*
X84775048Y-100705964D01*
X84544036Y-100474952D01*
X84286863Y-100273470D01*
X84283663Y-100271536D01*
X84283658Y-100271532D01*
X84010484Y-100106392D01*
X84010477Y-100106388D01*
X84007279Y-100104455D01*
X83709361Y-99970373D01*
X83397453Y-99873179D01*
X83393771Y-99872504D01*
X83393762Y-99872502D01*
X83079792Y-99814965D01*
X83079778Y-99814963D01*
X83076104Y-99814290D01*
X83072372Y-99814064D01*
X83072362Y-99814063D01*
X82753736Y-99794790D01*
X82750000Y-99794564D01*
X82746264Y-99794790D01*
X82427637Y-99814063D01*
X82427625Y-99814064D01*
X82423896Y-99814290D01*
X82420223Y-99814962D01*
X82420207Y-99814965D01*
X82106237Y-99872502D01*
X82106224Y-99872505D01*
X82102547Y-99873179D01*
X82098967Y-99874294D01*
X82098961Y-99874296D01*
X81794216Y-99969258D01*
X81794210Y-99969260D01*
X81790639Y-99970373D01*
X81787230Y-99971907D01*
X81787228Y-99971908D01*
X81496135Y-100102918D01*
X81496128Y-100102921D01*
X81492721Y-100104455D01*
X81489528Y-100106384D01*
X81489515Y-100106392D01*
X81216341Y-100271532D01*
X81216328Y-100271540D01*
X81213137Y-100273470D01*
X81210195Y-100275774D01*
X81210189Y-100275779D01*
X80958915Y-100472640D01*
X80955964Y-100474952D01*
X80953318Y-100477597D01*
X80953310Y-100477605D01*
X80727605Y-100703310D01*
X80727597Y-100703318D01*
X80724952Y-100705964D01*
X80722640Y-100708914D01*
X80722640Y-100708915D01*
X80525779Y-100960189D01*
X80525774Y-100960195D01*
X80523470Y-100963137D01*
X80521540Y-100966328D01*
X80521532Y-100966341D01*
X80356392Y-101239515D01*
X80356384Y-101239528D01*
X80354455Y-101242721D01*
X80220373Y-101540639D01*
X80123179Y-101852547D01*
X80122505Y-101856224D01*
X80122502Y-101856237D01*
X80064965Y-102170207D01*
X80064962Y-102170223D01*
X80064290Y-102173896D01*
X80064064Y-102177625D01*
X80064063Y-102177637D01*
X80045051Y-102491946D01*
X80044564Y-102500000D01*
X78510500Y-102500000D01*
X78510500Y-100002088D01*
X78511365Y-100000000D01*
X78508036Y-99991964D01*
X78502088Y-99989500D01*
X78500000Y-99988635D01*
X78497912Y-99989500D01*
X64502088Y-99989500D01*
X64500000Y-99988635D01*
X64497912Y-99989500D01*
X64491964Y-99991964D01*
X64488635Y-100000000D01*
X64489500Y-100002088D01*
X64489500Y-113997912D01*
X64488635Y-114000000D01*
X55010500Y-114000000D01*
X55010500Y-97000000D01*
X59988635Y-97000000D01*
X59989500Y-97002088D01*
X59991964Y-97008036D01*
X60000000Y-97011365D01*
X60002088Y-97010500D01*
X73997912Y-97010500D01*
X74000000Y-97011365D01*
X74008036Y-97008036D01*
X74010500Y-97002088D01*
X74011365Y-97000000D01*
X77988635Y-97000000D01*
X77989500Y-97002088D01*
X77991964Y-97008036D01*
X78000000Y-97011365D01*
X78002088Y-97010500D01*
X91997912Y-97010500D01*
X92000000Y-97011365D01*
X92008036Y-97008036D01*
X92010500Y-97002088D01*
X92011365Y-97000000D01*
X95988635Y-97000000D01*
X95989500Y-97002088D01*
X95991964Y-97008036D01*
X96000000Y-97011365D01*
X96002088Y-97010500D01*
X109997912Y-97010500D01*
X110000000Y-97011365D01*
X110008036Y-97008036D01*
X110010500Y-97002088D01*
X110011365Y-97000000D01*
X113988635Y-97000000D01*
X113989500Y-97002088D01*
X113991964Y-97008036D01*
X114000000Y-97011365D01*
X114002088Y-97010500D01*
X127997912Y-97010500D01*
X128000000Y-97011365D01*
X128008036Y-97008036D01*
X128010500Y-97002088D01*
X128011365Y-97000000D01*
X131988635Y-97000000D01*
X131989500Y-97002088D01*
X131991964Y-97008036D01*
X132000000Y-97011365D01*
X132002088Y-97010500D01*
X145997912Y-97010500D01*
X146000000Y-97011365D01*
X146008036Y-97008036D01*
X146010500Y-97002088D01*
X146011365Y-97000000D01*
X149988635Y-97000000D01*
X149989500Y-97002088D01*
X149991964Y-97008036D01*
X150000000Y-97011365D01*
X150002088Y-97010500D01*
X163997912Y-97010500D01*
X164000000Y-97011365D01*
X164008036Y-97008036D01*
X164010500Y-97002088D01*
X164011365Y-97000000D01*
X167988635Y-97000000D01*
X167989500Y-97002088D01*
X167991964Y-97008036D01*
X168000000Y-97011365D01*
X168002088Y-97010500D01*
X181997912Y-97010500D01*
X182000000Y-97011365D01*
X182008036Y-97008036D01*
X182010500Y-97002088D01*
X182011365Y-97000000D01*
X185988635Y-97000000D01*
X185989500Y-97002088D01*
X185991964Y-97008036D01*
X186000000Y-97011365D01*
X186002088Y-97010500D01*
X199997912Y-97010500D01*
X200000000Y-97011365D01*
X200008036Y-97008036D01*
X200010500Y-97002088D01*
X200011365Y-97000000D01*
X203988635Y-97000000D01*
X203989500Y-97002088D01*
X203991964Y-97008036D01*
X204000000Y-97011365D01*
X204002088Y-97010500D01*
X217997912Y-97010500D01*
X218000000Y-97011365D01*
X218008036Y-97008036D01*
X218010500Y-97002088D01*
X218011365Y-97000000D01*
X221988635Y-97000000D01*
X221989500Y-97002088D01*
X221991964Y-97008036D01*
X222000000Y-97011365D01*
X222002088Y-97010500D01*
X235997912Y-97010500D01*
X236000000Y-97011365D01*
X236008036Y-97008036D01*
X236010500Y-97002088D01*
X236011365Y-97000000D01*
X239988635Y-97000000D01*
X239989500Y-97002088D01*
X239991964Y-97008036D01*
X240000000Y-97011365D01*
X240002088Y-97010500D01*
X253997912Y-97010500D01*
X254000000Y-97011365D01*
X254008036Y-97008036D01*
X254010500Y-97002088D01*
X254011365Y-97000000D01*
X257988635Y-97000000D01*
X257989500Y-97002088D01*
X257991964Y-97008036D01*
X258000000Y-97011365D01*
X258002088Y-97010500D01*
X271997912Y-97010500D01*
X272000000Y-97011365D01*
X272008036Y-97008036D01*
X272010500Y-97002088D01*
X272011365Y-97000000D01*
X275988635Y-97000000D01*
X275989500Y-97002088D01*
X275991964Y-97008036D01*
X276000000Y-97011365D01*
X276002088Y-97010500D01*
X289997912Y-97010500D01*
X290000000Y-97011365D01*
X290008036Y-97008036D01*
X290010500Y-97002088D01*
X290011365Y-97000000D01*
X298488635Y-97000000D01*
X298489500Y-97002088D01*
X298491964Y-97008036D01*
X298500000Y-97011365D01*
X298502088Y-97010500D01*
X312497912Y-97010500D01*
X312500000Y-97011365D01*
X312508036Y-97008036D01*
X312510500Y-97002088D01*
X312511365Y-97000000D01*
X312510500Y-96997912D01*
X312510500Y-91250000D01*
X331794564Y-91250000D01*
X331794790Y-91253736D01*
X331814063Y-91572362D01*
X331814064Y-91572372D01*
X331814290Y-91576104D01*
X331814963Y-91579778D01*
X331814965Y-91579792D01*
X331872502Y-91893762D01*
X331872504Y-91893771D01*
X331873179Y-91897453D01*
X331970373Y-92209361D01*
X332104455Y-92507279D01*
X332106388Y-92510477D01*
X332106392Y-92510484D01*
X332271532Y-92783658D01*
X332271536Y-92783663D01*
X332273470Y-92786863D01*
X332474952Y-93044036D01*
X332705964Y-93275048D01*
X332963137Y-93476530D01*
X333242721Y-93645545D01*
X333540639Y-93779627D01*
X333852547Y-93876821D01*
X334173896Y-93935710D01*
X334500000Y-93955436D01*
X334826104Y-93935710D01*
X335147453Y-93876821D01*
X335459361Y-93779627D01*
X335474632Y-93772754D01*
X344643179Y-93772754D01*
X344644044Y-93774842D01*
X344646508Y-93780790D01*
X344654544Y-93784119D01*
X344656632Y-93783254D01*
X352492006Y-93783254D01*
X352554006Y-93799867D01*
X352599393Y-93845254D01*
X352616006Y-93907254D01*
X352616006Y-107045714D01*
X352615141Y-107047802D01*
X352616006Y-107049890D01*
X352618470Y-107055838D01*
X352626506Y-107059167D01*
X352628594Y-107058302D01*
X357374418Y-107058302D01*
X357376506Y-107059167D01*
X357384542Y-107055838D01*
X357387006Y-107049890D01*
X357387871Y-107047802D01*
X357387006Y-107045714D01*
X357387006Y-92549890D01*
X357387871Y-92547802D01*
X357384542Y-92539766D01*
X357378594Y-92537302D01*
X357376506Y-92536437D01*
X357374418Y-92537302D01*
X353389043Y-92537302D01*
X353327043Y-92520689D01*
X353281656Y-92475302D01*
X353265043Y-92413302D01*
X353265043Y-87530623D01*
X353265043Y-87524843D01*
X353265908Y-87522755D01*
X353262579Y-87514719D01*
X353256631Y-87512255D01*
X353254543Y-87511390D01*
X353252455Y-87512255D01*
X344656632Y-87512255D01*
X344654544Y-87511390D01*
X344652456Y-87512255D01*
X344646508Y-87514719D01*
X344643179Y-87522755D01*
X344644044Y-87524843D01*
X344644044Y-93770666D01*
X344643179Y-93772754D01*
X335474632Y-93772754D01*
X335757279Y-93645545D01*
X336036863Y-93476530D01*
X336294036Y-93275048D01*
X336525048Y-93044036D01*
X336726530Y-92786863D01*
X336895545Y-92507279D01*
X337029627Y-92209361D01*
X337126821Y-91897453D01*
X337185710Y-91576104D01*
X337205436Y-91250000D01*
X337185710Y-90923896D01*
X337126821Y-90602547D01*
X337029627Y-90290639D01*
X336895545Y-89992721D01*
X336726530Y-89713137D01*
X336525048Y-89455964D01*
X336294036Y-89224952D01*
X336036863Y-89023470D01*
X336033663Y-89021536D01*
X336033658Y-89021532D01*
X335760484Y-88856392D01*
X335760477Y-88856388D01*
X335757279Y-88854455D01*
X335459361Y-88720373D01*
X335147453Y-88623179D01*
X335143771Y-88622504D01*
X335143762Y-88622502D01*
X334829792Y-88564965D01*
X334829778Y-88564963D01*
X334826104Y-88564290D01*
X334822372Y-88564064D01*
X334822362Y-88564063D01*
X334503736Y-88544790D01*
X334500000Y-88544564D01*
X334496264Y-88544790D01*
X334177637Y-88564063D01*
X334177625Y-88564064D01*
X334173896Y-88564290D01*
X334170223Y-88564962D01*
X334170207Y-88564965D01*
X333856237Y-88622502D01*
X333856224Y-88622505D01*
X333852547Y-88623179D01*
X333848967Y-88624294D01*
X333848961Y-88624296D01*
X333544216Y-88719258D01*
X333544210Y-88719260D01*
X333540639Y-88720373D01*
X333537230Y-88721907D01*
X333537228Y-88721908D01*
X333246135Y-88852918D01*
X333246128Y-88852921D01*
X333242721Y-88854455D01*
X333239528Y-88856384D01*
X333239515Y-88856392D01*
X332966341Y-89021532D01*
X332966328Y-89021540D01*
X332963137Y-89023470D01*
X332960195Y-89025774D01*
X332960189Y-89025779D01*
X332708915Y-89222640D01*
X332705964Y-89224952D01*
X332703318Y-89227597D01*
X332703310Y-89227605D01*
X332477605Y-89453310D01*
X332477597Y-89453318D01*
X332474952Y-89455964D01*
X332472640Y-89458914D01*
X332472640Y-89458915D01*
X332275779Y-89710189D01*
X332275774Y-89710195D01*
X332273470Y-89713137D01*
X332271540Y-89716328D01*
X332271532Y-89716341D01*
X332106392Y-89989515D01*
X332106384Y-89989528D01*
X332104455Y-89992721D01*
X331970373Y-90290639D01*
X331873179Y-90602547D01*
X331872505Y-90606224D01*
X331872502Y-90606237D01*
X331814965Y-90920207D01*
X331814962Y-90920223D01*
X331814290Y-90923896D01*
X331814064Y-90927625D01*
X331814063Y-90927637D01*
X331795051Y-91241946D01*
X331794564Y-91250000D01*
X312510500Y-91250000D01*
X312510500Y-83002088D01*
X312511365Y-83000000D01*
X312508036Y-82991964D01*
X312502088Y-82989500D01*
X312500000Y-82988635D01*
X312497912Y-82989500D01*
X298502088Y-82989500D01*
X298500000Y-82988635D01*
X298497912Y-82989500D01*
X298491964Y-82991964D01*
X298488635Y-83000000D01*
X298489500Y-83002088D01*
X298489500Y-96997912D01*
X298488635Y-97000000D01*
X290011365Y-97000000D01*
X290010500Y-96997912D01*
X290010500Y-83002088D01*
X290011365Y-83000000D01*
X290008036Y-82991964D01*
X290002088Y-82989500D01*
X290000000Y-82988635D01*
X289997912Y-82989500D01*
X276002088Y-82989500D01*
X276000000Y-82988635D01*
X275997912Y-82989500D01*
X275991964Y-82991964D01*
X275988635Y-83000000D01*
X275989500Y-83002088D01*
X275989500Y-96997912D01*
X275988635Y-97000000D01*
X272011365Y-97000000D01*
X272010500Y-96997912D01*
X272010500Y-83002088D01*
X272011365Y-83000000D01*
X272008036Y-82991964D01*
X272002088Y-82989500D01*
X272000000Y-82988635D01*
X271997912Y-82989500D01*
X258002088Y-82989500D01*
X258000000Y-82988635D01*
X257997912Y-82989500D01*
X257991964Y-82991964D01*
X257988635Y-83000000D01*
X257989500Y-83002088D01*
X257989500Y-96997912D01*
X257988635Y-97000000D01*
X254011365Y-97000000D01*
X254010500Y-96997912D01*
X254010500Y-83002088D01*
X254011365Y-83000000D01*
X254008036Y-82991964D01*
X254002088Y-82989500D01*
X254000000Y-82988635D01*
X253997912Y-82989500D01*
X240002088Y-82989500D01*
X240000000Y-82988635D01*
X239997912Y-82989500D01*
X239991964Y-82991964D01*
X239988635Y-83000000D01*
X239989500Y-83002088D01*
X239989500Y-96997912D01*
X239988635Y-97000000D01*
X236011365Y-97000000D01*
X236010500Y-96997912D01*
X236010500Y-83002088D01*
X236011365Y-83000000D01*
X236008036Y-82991964D01*
X236002088Y-82989500D01*
X236000000Y-82988635D01*
X235997912Y-82989500D01*
X222002088Y-82989500D01*
X222000000Y-82988635D01*
X221997912Y-82989500D01*
X221991964Y-82991964D01*
X221988635Y-83000000D01*
X221989500Y-83002088D01*
X221989500Y-96997912D01*
X221988635Y-97000000D01*
X218011365Y-97000000D01*
X218010500Y-96997912D01*
X218010500Y-83002088D01*
X218011365Y-83000000D01*
X218008036Y-82991964D01*
X218002088Y-82989500D01*
X218000000Y-82988635D01*
X217997912Y-82989500D01*
X204002088Y-82989500D01*
X204000000Y-82988635D01*
X203997912Y-82989500D01*
X203991964Y-82991964D01*
X203988635Y-83000000D01*
X203989500Y-83002088D01*
X203989500Y-96997912D01*
X203988635Y-97000000D01*
X200011365Y-97000000D01*
X200010500Y-96997912D01*
X200010500Y-83002088D01*
X200011365Y-83000000D01*
X200008036Y-82991964D01*
X200002088Y-82989500D01*
X200000000Y-82988635D01*
X199997912Y-82989500D01*
X186002088Y-82989500D01*
X186000000Y-82988635D01*
X185997912Y-82989500D01*
X185991964Y-82991964D01*
X185988635Y-83000000D01*
X185989500Y-83002088D01*
X185989500Y-96997912D01*
X185988635Y-97000000D01*
X182011365Y-97000000D01*
X182010500Y-96997912D01*
X182010500Y-83002088D01*
X182011365Y-83000000D01*
X182008036Y-82991964D01*
X182002088Y-82989500D01*
X182000000Y-82988635D01*
X181997912Y-82989500D01*
X168002088Y-82989500D01*
X168000000Y-82988635D01*
X167997912Y-82989500D01*
X167991964Y-82991964D01*
X167988635Y-83000000D01*
X167989500Y-83002088D01*
X167989500Y-96997912D01*
X167988635Y-97000000D01*
X164011365Y-97000000D01*
X164010500Y-96997912D01*
X164010500Y-83002088D01*
X164011365Y-83000000D01*
X164008036Y-82991964D01*
X164002088Y-82989500D01*
X164000000Y-82988635D01*
X163997912Y-82989500D01*
X150002088Y-82989500D01*
X150000000Y-82988635D01*
X149997912Y-82989500D01*
X149991964Y-82991964D01*
X149988635Y-83000000D01*
X149989500Y-83002088D01*
X149989500Y-96997912D01*
X149988635Y-97000000D01*
X146011365Y-97000000D01*
X146010500Y-96997912D01*
X146010500Y-83002088D01*
X146011365Y-83000000D01*
X146008036Y-82991964D01*
X146002088Y-82989500D01*
X146000000Y-82988635D01*
X145997912Y-82989500D01*
X132002088Y-82989500D01*
X132000000Y-82988635D01*
X131997912Y-82989500D01*
X131991964Y-82991964D01*
X131988635Y-83000000D01*
X131989500Y-83002088D01*
X131989500Y-96997912D01*
X131988635Y-97000000D01*
X128011365Y-97000000D01*
X128010500Y-96997912D01*
X128010500Y-83002088D01*
X128011365Y-83000000D01*
X128008036Y-82991964D01*
X128002088Y-82989500D01*
X128000000Y-82988635D01*
X127997912Y-82989500D01*
X114002088Y-82989500D01*
X114000000Y-82988635D01*
X113997912Y-82989500D01*
X113991964Y-82991964D01*
X113988635Y-83000000D01*
X113989500Y-83002088D01*
X113989500Y-96997912D01*
X113988635Y-97000000D01*
X110011365Y-97000000D01*
X110010500Y-96997912D01*
X110010500Y-83002088D01*
X110011365Y-83000000D01*
X110008036Y-82991964D01*
X110002088Y-82989500D01*
X110000000Y-82988635D01*
X109997912Y-82989500D01*
X96002088Y-82989500D01*
X96000000Y-82988635D01*
X95997912Y-82989500D01*
X95991964Y-82991964D01*
X95988635Y-83000000D01*
X95989500Y-83002088D01*
X95989500Y-96997912D01*
X95988635Y-97000000D01*
X92011365Y-97000000D01*
X92010500Y-96997912D01*
X92010500Y-83002088D01*
X92011365Y-83000000D01*
X92008036Y-82991964D01*
X92002088Y-82989500D01*
X92000000Y-82988635D01*
X91997912Y-82989500D01*
X78002088Y-82989500D01*
X78000000Y-82988635D01*
X77997912Y-82989500D01*
X77991964Y-82991964D01*
X77988635Y-83000000D01*
X77989500Y-83002088D01*
X77989500Y-96997912D01*
X77988635Y-97000000D01*
X74011365Y-97000000D01*
X74010500Y-96997912D01*
X74010500Y-83002088D01*
X74011365Y-83000000D01*
X74008036Y-82991964D01*
X74002088Y-82989500D01*
X74000000Y-82988635D01*
X73997912Y-82989500D01*
X60002088Y-82989500D01*
X60000000Y-82988635D01*
X59997912Y-82989500D01*
X59991964Y-82991964D01*
X59988635Y-83000000D01*
X59989500Y-83002088D01*
X59989500Y-96997912D01*
X59988635Y-97000000D01*
X55010500Y-97000000D01*
X55010500Y-82502872D01*
X55010632Y-82497145D01*
X55010700Y-82495658D01*
X55027254Y-82137609D01*
X55028311Y-82126214D01*
X55053543Y-81945332D01*
X55077639Y-81772594D01*
X55079739Y-81761358D01*
X55161488Y-81413787D01*
X55164611Y-81402807D01*
X55278088Y-81064235D01*
X55282211Y-81053596D01*
X55426438Y-80726952D01*
X55431521Y-80716743D01*
X55605270Y-80404805D01*
X55611296Y-80395073D01*
X55813083Y-80100498D01*
X55819965Y-80091386D01*
X56048071Y-79816688D01*
X56055766Y-79808248D01*
X56308248Y-79555766D01*
X56316688Y-79548071D01*
X56591386Y-79319965D01*
X56600498Y-79313083D01*
X56895078Y-79111292D01*
X56904805Y-79105270D01*
X57216743Y-78931521D01*
X57226952Y-78926438D01*
X57553596Y-78782211D01*
X57564235Y-78778088D01*
X57902807Y-78664611D01*
X57913787Y-78661488D01*
X58261358Y-78579739D01*
X58272594Y-78577639D01*
X58626223Y-78528310D01*
X58637609Y-78527254D01*
X58997144Y-78510632D01*
X59002872Y-78510500D01*
X59003412Y-78510500D01*
X358496588Y-78510500D01*
X358497128Y-78510500D01*
X358502855Y-78510632D01*
G37*
%TD.AperFunction*%
M02*
