%TF.GenerationSoftware,KiCad,Pcbnew,(7.0.0-0)*%
%TF.CreationDate,2023-02-20T17:42:32-08:00*%
%TF.ProjectId,mt-choc-top,6d742d63-686f-4632-9d74-6f702e6b6963,v1.0*%
%TF.SameCoordinates,Original*%
%TF.FileFunction,Profile,NP*%
%FSLAX46Y46*%
G04 Gerber Fmt 4.6, Leading zero omitted, Abs format (unit mm)*
G04 Created by KiCad (PCBNEW (7.0.0-0)) date 2023-02-20 17:42:32*
%MOMM*%
%LPD*%
G01*
G04 APERTURE LIST*
%TA.AperFunction,Profile*%
%ADD10C,0.038100*%
%TD*%
%TA.AperFunction,Profile*%
%ADD11C,0.120000*%
%TD*%
G04 APERTURE END LIST*
D10*
X362500000Y-82500000D02*
G75*
G03*
X358500000Y-78500000I-4000000J0D01*
G01*
X358500000Y-169500000D02*
G75*
G03*
X362500000Y-165500000I0J4000000D01*
G01*
X362500000Y-165500000D02*
X362500000Y-82500000D01*
X55000000Y-165500000D02*
X55000000Y-82500000D01*
X59000000Y-169500000D02*
X358500000Y-169500000D01*
X59000000Y-78500000D02*
X358500000Y-78500000D01*
X55000000Y-165500000D02*
G75*
G03*
X59000000Y-169500000I4000000J0D01*
G01*
X59000000Y-78500000D02*
G75*
G03*
X55000000Y-82500000I0J-4000000D01*
G01*
D11*
%TO.C,SW10*%
X84750000Y-151000000D02*
X84750000Y-165000000D01*
X84750000Y-165000000D02*
X98750000Y-165000000D01*
X98750000Y-151000000D02*
X84750000Y-151000000D01*
X98750000Y-165000000D02*
X98750000Y-151000000D01*
%TO.C,SW39*%
X217500000Y-117000000D02*
X217500000Y-131000000D01*
X217500000Y-131000000D02*
X231500000Y-131000000D01*
X231500000Y-117000000D02*
X217500000Y-117000000D01*
X231500000Y-131000000D02*
X231500000Y-117000000D01*
%TO.C,SW33*%
X186000000Y-83000000D02*
X186000000Y-97000000D01*
X186000000Y-97000000D02*
X200000000Y-97000000D01*
X200000000Y-83000000D02*
X186000000Y-83000000D01*
X200000000Y-97000000D02*
X200000000Y-83000000D01*
%TO.C,SW40*%
X226500000Y-134000000D02*
X226500000Y-148000000D01*
X226500000Y-148000000D02*
X240500000Y-148000000D01*
X240500000Y-134000000D02*
X226500000Y-134000000D01*
X240500000Y-148000000D02*
X240500000Y-134000000D01*
%TO.C,SW56*%
X307500000Y-151000000D02*
X307500000Y-165000000D01*
X307500000Y-165000000D02*
X321500000Y-165000000D01*
X321500000Y-151000000D02*
X307500000Y-151000000D01*
X321500000Y-165000000D02*
X321500000Y-151000000D01*
%TO.C,SW18*%
X127500000Y-117000000D02*
X127500000Y-131000000D01*
X127500000Y-131000000D02*
X141500000Y-131000000D01*
X141500000Y-117000000D02*
X127500000Y-117000000D01*
X141500000Y-131000000D02*
X141500000Y-117000000D01*
%TO.C,SW44*%
X235500000Y-117000000D02*
X235500000Y-131000000D01*
X235500000Y-131000000D02*
X249500000Y-131000000D01*
X249500000Y-117000000D02*
X235500000Y-117000000D01*
X249500000Y-131000000D02*
X249500000Y-117000000D01*
%TO.C,SW36*%
X208500000Y-134000000D02*
X208500000Y-148000000D01*
X208500000Y-148000000D02*
X222500000Y-148000000D01*
X222500000Y-134000000D02*
X208500000Y-134000000D01*
X222500000Y-148000000D02*
X222500000Y-134000000D01*
%TO.C,SW63*%
X303000000Y-100000000D02*
X303000000Y-114000000D01*
X303000000Y-114000000D02*
X317000000Y-114000000D01*
X317000000Y-100000000D02*
X303000000Y-100000000D01*
X317000000Y-114000000D02*
X317000000Y-100000000D01*
%TO.C,SW25*%
X150000000Y-83000000D02*
X150000000Y-97000000D01*
X150000000Y-97000000D02*
X164000000Y-97000000D01*
X164000000Y-83000000D02*
X150000000Y-83000000D01*
X164000000Y-97000000D02*
X164000000Y-83000000D01*
%TO.C,SW16*%
X114000000Y-83000000D02*
X114000000Y-97000000D01*
X114000000Y-97000000D02*
X128000000Y-97000000D01*
X128000000Y-83000000D02*
X114000000Y-83000000D01*
X128000000Y-97000000D02*
X128000000Y-83000000D01*
%TO.C,SW41*%
X242250000Y-151000000D02*
X242250000Y-165000000D01*
X242250000Y-165000000D02*
X256250000Y-165000000D01*
X256250000Y-151000000D02*
X242250000Y-151000000D01*
X256250000Y-165000000D02*
X256250000Y-151000000D01*
%TO.C,SW38*%
X213000000Y-100000000D02*
X213000000Y-114000000D01*
X213000000Y-114000000D02*
X227000000Y-114000000D01*
X227000000Y-100000000D02*
X213000000Y-100000000D01*
X227000000Y-114000000D02*
X227000000Y-100000000D01*
%TO.C,SW62*%
X298500000Y-83000000D02*
X298500000Y-97000000D01*
X298500000Y-97000000D02*
X312500000Y-97000000D01*
X312500000Y-83000000D02*
X298500000Y-83000000D01*
X312500000Y-97000000D02*
X312500000Y-83000000D01*
%TO.C,SW26*%
X159000000Y-100000000D02*
X159000000Y-114000000D01*
X159000000Y-114000000D02*
X173000000Y-114000000D01*
X173000000Y-100000000D02*
X159000000Y-100000000D01*
X173000000Y-114000000D02*
X173000000Y-100000000D01*
%TO.C,SW48*%
X249000000Y-100000000D02*
X249000000Y-114000000D01*
X249000000Y-114000000D02*
X263000000Y-114000000D01*
X263000000Y-100000000D02*
X249000000Y-100000000D01*
X263000000Y-114000000D02*
X263000000Y-100000000D01*
%TO.C,SW11*%
X96000000Y-83000000D02*
X96000000Y-97000000D01*
X96000000Y-97000000D02*
X110000000Y-97000000D01*
X110000000Y-83000000D02*
X96000000Y-83000000D01*
X110000000Y-97000000D02*
X110000000Y-83000000D01*
%TO.C,SW21*%
X141000000Y-100000000D02*
X141000000Y-114000000D01*
X141000000Y-114000000D02*
X155000000Y-114000000D01*
X155000000Y-100000000D02*
X141000000Y-100000000D01*
X155000000Y-114000000D02*
X155000000Y-100000000D01*
%TO.C,SW54*%
X271500000Y-117000000D02*
X271500000Y-131000000D01*
X271500000Y-131000000D02*
X285500000Y-131000000D01*
X285500000Y-117000000D02*
X271500000Y-117000000D01*
X285500000Y-131000000D02*
X285500000Y-117000000D01*
%TO.C,SW57*%
X276000000Y-83000000D02*
X276000000Y-97000000D01*
X276000000Y-97000000D02*
X290000000Y-97000000D01*
X290000000Y-83000000D02*
X276000000Y-83000000D01*
X290000000Y-97000000D02*
X290000000Y-83000000D01*
%TO.C,SW24*%
X128600000Y-154200000D02*
X129950000Y-154200000D01*
X128600000Y-161050000D02*
X128600000Y-154200000D01*
X128600000Y-161050000D02*
X134900000Y-161050000D01*
X129950000Y-149550000D02*
X129950000Y-154200000D01*
X129950000Y-149550000D02*
X133550000Y-149550000D01*
X133550000Y-149550000D02*
X133550000Y-154200000D01*
X133550000Y-154200000D02*
X134900000Y-154200000D01*
X134900000Y-161050000D02*
X134900000Y-154200000D01*
X136750000Y-151000000D02*
X136750000Y-165000000D01*
X136750000Y-165000000D02*
X150750000Y-165000000D01*
X150750000Y-151000000D02*
X136750000Y-151000000D01*
X150750000Y-165000000D02*
X150750000Y-151000000D01*
X152600000Y-154200000D02*
X153950000Y-154200000D01*
X152600000Y-161050000D02*
X152600000Y-154200000D01*
X152600000Y-161050000D02*
X158900000Y-161050000D01*
X153950000Y-149550000D02*
X153950000Y-154200000D01*
X153950000Y-149550000D02*
X157550000Y-149550000D01*
X157550000Y-149550000D02*
X157550000Y-154200000D01*
X157550000Y-154200000D02*
X158900000Y-154200000D01*
X158900000Y-161050000D02*
X158900000Y-154200000D01*
X166600000Y-154200000D02*
X167950000Y-154200000D01*
X166600000Y-161050000D02*
X166600000Y-154200000D01*
X166600000Y-161050000D02*
X172900000Y-161050000D01*
X167950000Y-149550000D02*
X167950000Y-154200000D01*
X167950000Y-149550000D02*
X171550000Y-149550000D01*
X171550000Y-149550000D02*
X171550000Y-154200000D01*
X171550000Y-154200000D02*
X172900000Y-154200000D01*
X172900000Y-161050000D02*
X172900000Y-154200000D01*
X174750000Y-151000000D02*
X174750000Y-165000000D01*
X174750000Y-165000000D02*
X188750000Y-165000000D01*
X188750000Y-151000000D02*
X174750000Y-151000000D01*
X188750000Y-165000000D02*
X188750000Y-151000000D01*
X190600000Y-154200000D02*
X191950000Y-154200000D01*
X190600000Y-161050000D02*
X190600000Y-154200000D01*
X190600000Y-161050000D02*
X196900000Y-161050000D01*
X191950000Y-149550000D02*
X191950000Y-154200000D01*
X191950000Y-149550000D02*
X195550000Y-149550000D01*
X195550000Y-149550000D02*
X195550000Y-154200000D01*
X195550000Y-154200000D02*
X196900000Y-154200000D01*
X196900000Y-161050000D02*
X196900000Y-154200000D01*
X204600000Y-154200000D02*
X205950000Y-154200000D01*
X204600000Y-161050000D02*
X204600000Y-154200000D01*
X204600000Y-161050000D02*
X210900000Y-161050000D01*
X205950000Y-149550000D02*
X205950000Y-154200000D01*
X205950000Y-149550000D02*
X209550000Y-149550000D01*
X209550000Y-149550000D02*
X209550000Y-154200000D01*
X209550000Y-154200000D02*
X210900000Y-154200000D01*
X210900000Y-161050000D02*
X210900000Y-154200000D01*
X212750000Y-151000000D02*
X212750000Y-165000000D01*
X212750000Y-165000000D02*
X226750000Y-165000000D01*
X226750000Y-151000000D02*
X212750000Y-151000000D01*
X226750000Y-165000000D02*
X226750000Y-151000000D01*
X228600000Y-154200000D02*
X229950000Y-154200000D01*
X228600000Y-161050000D02*
X228600000Y-154200000D01*
X228600000Y-161050000D02*
X234900000Y-161050000D01*
X229950000Y-149550000D02*
X229950000Y-154200000D01*
X229950000Y-149550000D02*
X233550000Y-149550000D01*
X233550000Y-149550000D02*
X233550000Y-154200000D01*
X233550000Y-154200000D02*
X234900000Y-154200000D01*
X234900000Y-161050000D02*
X234900000Y-154200000D01*
%TO.C,SW8*%
X91500000Y-117000000D02*
X91500000Y-131000000D01*
X91500000Y-131000000D02*
X105500000Y-131000000D01*
X105500000Y-117000000D02*
X91500000Y-117000000D01*
X105500000Y-131000000D02*
X105500000Y-117000000D01*
%TO.C,SW3*%
X66750000Y-117000000D02*
X66750000Y-131000000D01*
X66750000Y-131000000D02*
X80750000Y-131000000D01*
X80750000Y-117000000D02*
X66750000Y-117000000D01*
X80750000Y-131000000D02*
X80750000Y-117000000D01*
%TO.C,SW35*%
X199500000Y-117000000D02*
X199500000Y-131000000D01*
X199500000Y-131000000D02*
X213500000Y-131000000D01*
X213500000Y-117000000D02*
X199500000Y-117000000D01*
X213500000Y-131000000D02*
X213500000Y-117000000D01*
%TO.C,SW9*%
X100500000Y-134000000D02*
X100500000Y-148000000D01*
X100500000Y-148000000D02*
X114500000Y-148000000D01*
X114500000Y-134000000D02*
X100500000Y-134000000D01*
X114500000Y-148000000D02*
X114500000Y-134000000D01*
%TO.C,SW15*%
X107250000Y-151000000D02*
X107250000Y-165000000D01*
X107250000Y-165000000D02*
X121250000Y-165000000D01*
X121250000Y-151000000D02*
X107250000Y-151000000D01*
X121250000Y-165000000D02*
X121250000Y-151000000D01*
%TO.C,SW4*%
X63100000Y-137200000D02*
X64450000Y-137200000D01*
X63100000Y-144050000D02*
X63100000Y-137200000D01*
X63100000Y-144050000D02*
X69400000Y-144050000D01*
X64450000Y-132550000D02*
X64450000Y-137200000D01*
X64450000Y-132550000D02*
X68050000Y-132550000D01*
X68050000Y-132550000D02*
X68050000Y-137200000D01*
X68050000Y-137200000D02*
X69400000Y-137200000D01*
X69400000Y-144050000D02*
X69400000Y-137200000D01*
X71250000Y-134000000D02*
X71250000Y-148000000D01*
X71250000Y-148000000D02*
X85250000Y-148000000D01*
X85250000Y-134000000D02*
X71250000Y-134000000D01*
X85250000Y-148000000D02*
X85250000Y-134000000D01*
X87100000Y-137200000D02*
X88450000Y-137200000D01*
X87100000Y-144050000D02*
X87100000Y-137200000D01*
X87100000Y-144050000D02*
X93400000Y-144050000D01*
X88450000Y-132550000D02*
X88450000Y-137200000D01*
X88450000Y-132550000D02*
X92050000Y-132550000D01*
X92050000Y-132550000D02*
X92050000Y-137200000D01*
X92050000Y-137200000D02*
X93400000Y-137200000D01*
X93400000Y-144050000D02*
X93400000Y-137200000D01*
%TO.C,SW49*%
X253500000Y-117000000D02*
X253500000Y-131000000D01*
X253500000Y-131000000D02*
X267500000Y-131000000D01*
X267500000Y-117000000D02*
X253500000Y-117000000D01*
X267500000Y-131000000D02*
X267500000Y-117000000D01*
%TO.C,SW42*%
X222000000Y-83000000D02*
X222000000Y-97000000D01*
X222000000Y-97000000D02*
X236000000Y-97000000D01*
X236000000Y-83000000D02*
X222000000Y-83000000D01*
X236000000Y-97000000D02*
X236000000Y-83000000D01*
%TO.C,SW53*%
X267000000Y-100000000D02*
X267000000Y-114000000D01*
X267000000Y-114000000D02*
X281000000Y-114000000D01*
X281000000Y-100000000D02*
X267000000Y-100000000D01*
X281000000Y-114000000D02*
X281000000Y-100000000D01*
%TO.C,SW1*%
X60000000Y-83000000D02*
X60000000Y-97000000D01*
X60000000Y-97000000D02*
X74000000Y-97000000D01*
X74000000Y-83000000D02*
X60000000Y-83000000D01*
X74000000Y-97000000D02*
X74000000Y-83000000D01*
%TO.C,SW43*%
X231000000Y-100000000D02*
X231000000Y-114000000D01*
X231000000Y-114000000D02*
X245000000Y-114000000D01*
X245000000Y-100000000D02*
X231000000Y-100000000D01*
X245000000Y-114000000D02*
X245000000Y-100000000D01*
%TO.C,SW58*%
X285000000Y-100000000D02*
X285000000Y-114000000D01*
X285000000Y-114000000D02*
X299000000Y-114000000D01*
X299000000Y-100000000D02*
X285000000Y-100000000D01*
X299000000Y-114000000D02*
X299000000Y-100000000D01*
%TO.C,SW59*%
X296250000Y-117000000D02*
X296250000Y-131000000D01*
X296250000Y-131000000D02*
X310250000Y-131000000D01*
X310250000Y-117000000D02*
X296250000Y-117000000D01*
X310250000Y-131000000D02*
X310250000Y-117000000D01*
%TO.C,SW29*%
X168000000Y-83000000D02*
X168000000Y-97000000D01*
X168000000Y-97000000D02*
X182000000Y-97000000D01*
X182000000Y-83000000D02*
X168000000Y-83000000D01*
X182000000Y-97000000D02*
X182000000Y-83000000D01*
%TO.C,SW7*%
X87000000Y-100000000D02*
X87000000Y-114000000D01*
X87000000Y-114000000D02*
X101000000Y-114000000D01*
X101000000Y-100000000D02*
X87000000Y-100000000D01*
X101000000Y-114000000D02*
X101000000Y-100000000D01*
%TO.C,SW34*%
X195000000Y-100000000D02*
X195000000Y-114000000D01*
X195000000Y-114000000D02*
X209000000Y-114000000D01*
X209000000Y-100000000D02*
X195000000Y-100000000D01*
X209000000Y-114000000D02*
X209000000Y-100000000D01*
%TO.C,SW22*%
X145500000Y-117000000D02*
X145500000Y-131000000D01*
X145500000Y-131000000D02*
X159500000Y-131000000D01*
X159500000Y-117000000D02*
X145500000Y-117000000D01*
X159500000Y-131000000D02*
X159500000Y-117000000D01*
%TO.C,SW6*%
X78000000Y-83000000D02*
X78000000Y-97000000D01*
X78000000Y-97000000D02*
X92000000Y-97000000D01*
X92000000Y-83000000D02*
X78000000Y-83000000D01*
X92000000Y-97000000D02*
X92000000Y-83000000D01*
%TO.C,SW30*%
X177000000Y-100000000D02*
X177000000Y-114000000D01*
X177000000Y-114000000D02*
X191000000Y-114000000D01*
X191000000Y-100000000D02*
X177000000Y-100000000D01*
X191000000Y-114000000D02*
X191000000Y-100000000D01*
%TO.C,SW37*%
X204000000Y-83000000D02*
X204000000Y-97000000D01*
X204000000Y-97000000D02*
X218000000Y-97000000D01*
X218000000Y-83000000D02*
X204000000Y-83000000D01*
X218000000Y-97000000D02*
X218000000Y-83000000D01*
%TO.C,SW61*%
X325500000Y-151000000D02*
X325500000Y-165000000D01*
X325500000Y-165000000D02*
X339500000Y-165000000D01*
X339500000Y-151000000D02*
X325500000Y-151000000D01*
X339500000Y-165000000D02*
X339500000Y-151000000D01*
%TO.C,SW23*%
X154500000Y-134000000D02*
X154500000Y-148000000D01*
X154500000Y-148000000D02*
X168500000Y-148000000D01*
X168500000Y-134000000D02*
X154500000Y-134000000D01*
X168500000Y-148000000D02*
X168500000Y-134000000D01*
%TO.C,SW31*%
X181500000Y-117000000D02*
X181500000Y-131000000D01*
X181500000Y-131000000D02*
X195500000Y-131000000D01*
X195500000Y-117000000D02*
X181500000Y-117000000D01*
X195500000Y-131000000D02*
X195500000Y-117000000D01*
%TO.C,SW46*%
X264750000Y-151000000D02*
X264750000Y-165000000D01*
X264750000Y-165000000D02*
X278750000Y-165000000D01*
X278750000Y-151000000D02*
X264750000Y-151000000D01*
X278750000Y-165000000D02*
X278750000Y-151000000D01*
%TO.C,SW14*%
X118500000Y-134000000D02*
X118500000Y-148000000D01*
X118500000Y-148000000D02*
X132500000Y-148000000D01*
X132500000Y-134000000D02*
X118500000Y-134000000D01*
X132500000Y-148000000D02*
X132500000Y-134000000D01*
%TO.C,U1*%
X344654544Y-87522755D02*
X344654544Y-93772754D01*
X344654544Y-93772754D02*
X352626506Y-93772754D01*
X352626506Y-93772754D02*
X352626506Y-107047802D01*
X352626506Y-107047802D02*
X357376506Y-107047802D01*
X353254543Y-87522755D02*
X344654544Y-87522755D01*
X353254543Y-92547802D02*
X353254543Y-87522755D01*
X357376506Y-92547802D02*
X353254543Y-92547802D01*
X357376506Y-107047802D02*
X357376506Y-92547802D01*
X325626254Y-92547901D02*
X330376254Y-92547901D01*
X330376254Y-92547901D02*
X330376254Y-107047901D01*
X330376254Y-107047901D02*
X325626254Y-107047901D01*
X325626254Y-107047901D02*
X325626254Y-92547901D01*
%TO.C,SW50*%
X262500000Y-134000000D02*
X262500000Y-148000000D01*
X262500000Y-148000000D02*
X276500000Y-148000000D01*
X276500000Y-134000000D02*
X262500000Y-134000000D01*
X276500000Y-148000000D02*
X276500000Y-134000000D01*
%TO.C,SW27*%
X163500000Y-117000000D02*
X163500000Y-131000000D01*
X163500000Y-131000000D02*
X177500000Y-131000000D01*
X177500000Y-117000000D02*
X163500000Y-117000000D01*
X177500000Y-131000000D02*
X177500000Y-117000000D01*
%TO.C,SW13*%
X109500000Y-117000000D02*
X109500000Y-131000000D01*
X109500000Y-131000000D02*
X123500000Y-131000000D01*
X123500000Y-117000000D02*
X109500000Y-117000000D01*
X123500000Y-131000000D02*
X123500000Y-117000000D01*
%TO.C,SW17*%
X123000000Y-100000000D02*
X123000000Y-114000000D01*
X123000000Y-114000000D02*
X137000000Y-114000000D01*
X137000000Y-100000000D02*
X123000000Y-100000000D01*
X137000000Y-114000000D02*
X137000000Y-100000000D01*
%TO.C,SW45*%
X244500000Y-134000000D02*
X244500000Y-148000000D01*
X244500000Y-148000000D02*
X258500000Y-148000000D01*
X258500000Y-134000000D02*
X244500000Y-134000000D01*
X258500000Y-148000000D02*
X258500000Y-134000000D01*
%TO.C,SW2*%
X64500000Y-100000000D02*
X64500000Y-114000000D01*
X64500000Y-114000000D02*
X78500000Y-114000000D01*
X78500000Y-100000000D02*
X64500000Y-100000000D01*
X78500000Y-114000000D02*
X78500000Y-100000000D01*
%TO.C,SW5*%
X62250000Y-151000000D02*
X62250000Y-165000000D01*
X62250000Y-165000000D02*
X76250000Y-165000000D01*
X76250000Y-151000000D02*
X62250000Y-151000000D01*
X76250000Y-165000000D02*
X76250000Y-151000000D01*
%TO.C,SW64*%
X343500000Y-151000000D02*
X343500000Y-165000000D01*
X343500000Y-165000000D02*
X357500000Y-165000000D01*
X357500000Y-151000000D02*
X343500000Y-151000000D01*
X357500000Y-165000000D02*
X357500000Y-151000000D01*
%TO.C,SW12*%
X105000000Y-100000000D02*
X105000000Y-114000000D01*
X105000000Y-114000000D02*
X119000000Y-114000000D01*
X119000000Y-100000000D02*
X105000000Y-100000000D01*
X119000000Y-114000000D02*
X119000000Y-100000000D01*
%TO.C,SW60*%
X325500000Y-134000000D02*
X325500000Y-148000000D01*
X325500000Y-148000000D02*
X339500000Y-148000000D01*
X339500000Y-134000000D02*
X325500000Y-134000000D01*
X339500000Y-148000000D02*
X339500000Y-134000000D01*
%TO.C,SW32*%
X190500000Y-134000000D02*
X190500000Y-148000000D01*
X190500000Y-148000000D02*
X204500000Y-148000000D01*
X204500000Y-134000000D02*
X190500000Y-134000000D01*
X204500000Y-148000000D02*
X204500000Y-134000000D01*
%TO.C,SW55*%
X283600000Y-137200000D02*
X284950000Y-137200000D01*
X283600000Y-144050000D02*
X283600000Y-137200000D01*
X283600000Y-144050000D02*
X289900000Y-144050000D01*
X284950000Y-132550000D02*
X284950000Y-137200000D01*
X284950000Y-132550000D02*
X288550000Y-132550000D01*
X288550000Y-132550000D02*
X288550000Y-137200000D01*
X288550000Y-137200000D02*
X289900000Y-137200000D01*
X289900000Y-144050000D02*
X289900000Y-137200000D01*
X291750000Y-134000000D02*
X291750000Y-148000000D01*
X291750000Y-148000000D02*
X305750000Y-148000000D01*
X305750000Y-134000000D02*
X291750000Y-134000000D01*
X305750000Y-148000000D02*
X305750000Y-134000000D01*
X307600000Y-137200000D02*
X308950000Y-137200000D01*
X307600000Y-144050000D02*
X307600000Y-137200000D01*
X307600000Y-144050000D02*
X313900000Y-144050000D01*
X308950000Y-132550000D02*
X308950000Y-137200000D01*
X308950000Y-132550000D02*
X312550000Y-132550000D01*
X312550000Y-132550000D02*
X312550000Y-137200000D01*
X312550000Y-137200000D02*
X313900000Y-137200000D01*
X313900000Y-144050000D02*
X313900000Y-137200000D01*
%TO.C,SW47*%
X240000000Y-83000000D02*
X240000000Y-97000000D01*
X240000000Y-97000000D02*
X254000000Y-97000000D01*
X254000000Y-83000000D02*
X240000000Y-83000000D01*
X254000000Y-97000000D02*
X254000000Y-83000000D01*
%TO.C,SW28*%
X172500000Y-134000000D02*
X172500000Y-148000000D01*
X172500000Y-148000000D02*
X186500000Y-148000000D01*
X186500000Y-134000000D02*
X172500000Y-134000000D01*
X186500000Y-148000000D02*
X186500000Y-134000000D01*
%TO.C,SW20*%
X132000000Y-83000000D02*
X132000000Y-97000000D01*
X132000000Y-97000000D02*
X146000000Y-97000000D01*
X146000000Y-83000000D02*
X132000000Y-83000000D01*
X146000000Y-97000000D02*
X146000000Y-83000000D01*
%TO.C,SW52*%
X258000000Y-83000000D02*
X258000000Y-97000000D01*
X258000000Y-97000000D02*
X272000000Y-97000000D01*
X272000000Y-83000000D02*
X258000000Y-83000000D01*
X272000000Y-97000000D02*
X272000000Y-83000000D01*
%TO.C,SW51*%
X285000000Y-151000000D02*
X285000000Y-165000000D01*
X285000000Y-165000000D02*
X299000000Y-165000000D01*
X299000000Y-151000000D02*
X285000000Y-151000000D01*
X299000000Y-165000000D02*
X299000000Y-151000000D01*
%TO.C,SW19*%
X136500000Y-134000000D02*
X136500000Y-148000000D01*
X136500000Y-148000000D02*
X150500000Y-148000000D01*
X150500000Y-134000000D02*
X136500000Y-134000000D01*
X150500000Y-148000000D02*
X150500000Y-134000000D01*
%TD*%
M02*
