0
SECTION
2
HEADER
9
$INSUNITS
70
4
9
$ACADVER
1
AC1014
9
$HANDSEED
5
FFFF
0
ENDSEC
0
SECTION
2
TABLES
0
TABLE
2
VPORT
5
8
100
AcDbSymbolTable
0
ENDTAB
0
TABLE
2
LTYPE
5
5
100
AcDbSymbolTable
0
LTYPE
5
14
100
AcDbSymbolTableRecord
100
AcDbLinetypeTableRecord
2
BYBLOCK
70
0
0
LTYPE
5
15
100
AcDbSymbolTableRecord
100
AcDbLinetypeTableRecord
2
BYLAYER
70
0
0
ENDTAB
0
TABLE
2
LAYER
5
2
100
AcDbSymbolTable
70
2
0
LAYER
5
50
100
AcDbSymbolTableRecord
100
AcDbLayerTableRecord
2
0
70
0
6
CONTINUOUS
0
ENDTAB
0
TABLE
2
STYLE
5
3
100
AcDbSymbolTable
70
1
0
STYLE
5
11
100
AcDbSymbolTableRecord
100
AcDbTextStyleTableRecord
2
STANDARD
70
0
0
ENDTAB
0
TABLE
2
VIEW
5
6
100
AcDbSymbolTable
70
0
0
ENDTAB
0
TABLE
2
UCS
5
7
100
AcDbSymbolTable
70
0
0
ENDTAB
0
TABLE
2
APPID
5
9
100
AcDbSymbolTable
70
2
0
APPID
5
12
100
AcDbSymbolTableRecord
100
AcDbRegAppTableRecord
2
ACAD
70
0
0
ENDTAB
0
TABLE
2
DIMSTYLE
5
A
100
AcDbSymbolTable
70
1
0
ENDTAB
0
TABLE
2
BLOCK_RECORD
5
1
100
AcDbSymbolTable
70
1
0
BLOCK_RECORD
5
1F
100
AcDbSymbolTableRecord
100
AcDbBlockTableRecord
2
*MODEL_SPACE
0
BLOCK_RECORD
5
1B
100
AcDbSymbolTableRecord
100
AcDbBlockTableRecord
2
*PAPER_SPACE
0
ENDTAB
0
ENDSEC
0
SECTION
2
BLOCKS
0
BLOCK
5
20
100
AcDbEntity
100
AcDbBlockBegin
2
*MODEL_SPACE
0
ENDBLK
5
21
100
AcDbEntity
100
AcDbBlockEnd
0
BLOCK
5
1C
100
AcDbEntity
100
AcDbBlockBegin
2
*PAPER_SPACE
0
ENDBLK
5
1D
100
AcDbEntity
100
AcDbBlockEnd
0
ENDSEC
0
SECTION
2
ENTITIES
0
LWPOLYLINE
5
100
100
AcDbEntity
8
0
100
AcDbPolyline
90
4
70
1
43
0.0
10
-196.51804472876393
20
40.042104367115726
10
-196.5180447287639
20
54.042104367115726
10
-182.51804472876387
20
54.042104367115726
10
-182.5180447287639
20
40.042104367115726
0
LWPOLYLINE
5
101
100
AcDbEntity
8
0
100
AcDbPolyline
90
4
70
1
43
0.0
10
-41.418044728763888
20
71.134207914667599
10
-9.11804472876387
20
71.134207914667599
10
-9.11804472876387
20
55.092104367115738
10
-41.418044728763888
20
55.092104367115738
0
LWPOLYLINE
5
102
100
AcDbEntity
8
0
100
AcDbPolyline
90
4
70
1
43
0.0
10
-106.91804472876387
20
88.042104367115712
10
-74.618044728763877
20
88.042104367115712
10
-74.618044728763877
20
72.092104367115738
10
-106.91804472876387
20
72.092104367115738
0
LWPOLYLINE
5
103
100
AcDbEntity
8
0
100
AcDbPolyline
90
4
70
1
43
0.0
10
-144.9180447287639
20
88.042104367115712
10
-112.61804472876389
20
88.042104367115712
10
-112.61804472876389
20
72.092104367115738
10
-144.9180447287639
20
72.092104367115738
0
LWPOLYLINE
5
104
100
AcDbEntity
8
0
100
AcDbPolyline
90
4
70
1
43
0.0
10
-151.0180447287639
20
20.042104367115723
10
-151.01804472876387
20
6.0421043671157193
10
-165.01804472876387
20
6.0421043671157193
10
-165.01804472876387
20
20.042104367115723
0
LWPOLYLINE
5
105
100
AcDbEntity
8
0
100
AcDbPolyline
90
4
70
1
43
0.0
10
-106.5180447287639
20
40.042104367115726
10
-106.5180447287639
20
54.042104367115726
10
-92.518044728763883
20
54.042104367115726
10
-92.518044728763883
20
40.042104367115726
0
LWPOLYLINE
5
106
100
AcDbEntity
8
0
100
AcDbPolyline
90
4
70
1
43
0.0
10
-45.768044728763883
20
74.042104367115726
10
-45.768044728763883
20
88.042104367115712
10
-31.768044728763876
20
88.042104367115712
10
-31.768044728763876
20
74.042104367115726
0
LWPOLYLINE
5
107
100
AcDbEntity
8
0
100
AcDbPolyline
90
4
70
1
43
0.0
10
-74.518044728763883
20
40.042104367115726
10
-88.518044728763883
20
40.042104367115726
10
-88.518044728763883
20
54.042104367115726
10
-74.518044728763883
20
54.042104367115726
0
LWPOLYLINE
5
108
100
AcDbEntity
8
0
100
AcDbPolyline
90
4
70
1
43
0.0
10
-133.0180447287639
20
6.0421043671157193
10
-147.01804472876387
20
6.0421043671157193
10
-147.01804472876387
20
20.042104367115723
10
-133.0180447287639
20
20.042104367115723
0
LWPOLYLINE
5
109
100
AcDbEntity
8
0
100
AcDbPolyline
90
4
70
1
43
0.0
10
-23.268044728763897
20
74.042104367115726
10
-23.268044728763897
20
88.042104367115712
10
-9.2680447287638756
20
88.042104367115712
10
-9.2680447287638756
20
74.042104367115726
0
LWPOLYLINE
5
110
100
AcDbEntity
8
0
100
AcDbPolyline
90
4
70
1
43
0.0
10
-272.51804472876393
20
57.042104367115712
10
-286.51804472876393
20
57.042104367115712
10
-286.51804472876393
20
71.042104367115712
10
-272.51804472876393
20
71.042104367115712
0
LWPOLYLINE
5
111
100
AcDbEntity
8
0
100
AcDbPolyline
90
4
70
1
43
0.0
10
-137.5180447287639
20
57.042104367115712
10
-151.5180447287639
20
57.042104367115712
10
-151.5180447287639
20
71.042104367115712
10
-137.5180447287639
20
71.042104367115712
0
LWPOLYLINE
5
112
100
AcDbEntity
8
0
100
AcDbPolyline
90
4
70
1
43
0.0
10
-156.0180447287639
20
37.042104367115712
10
-142.01804472876387
20
37.042104367115712
10
-142.01804472876387
20
23.042104367115712
10
-156.0180447287639
20
23.042104367115712
0
LWPOLYLINE
5
113
100
AcDbEntity
8
0
100
AcDbPolyline
90
4
70
1
43
0.0
10
-246.01804472876387
20
23.042104367115712
10
-246.01804472876393
20
37.042104367115712
10
-232.0180447287639
20
37.042104367115712
10
-232.0180447287639
20
23.042104367115712
0
LWPOLYLINE
5
114
100
AcDbEntity
8
0
100
AcDbPolyline
90
4
70
1
43
0.0
10
-13.768044728763869
20
40.042104367115726
10
-27.76804472876389
20
40.042104367115726
10
-27.76804472876389
20
54.042104367115726
10
-13.768044728763869
20
54.042104367115726
0
LWPOLYLINE
5
115
100
AcDbEntity
8
0
100
AcDbPolyline
90
4
70
1
43
0.0
10
-272.64404472876384
20
15.590004367115711
10
-277.3940447287639
20
15.590004367115711
10
-277.3940447287639
20
30.0901043671157
10
-272.64404472876384
20
30.0901043671157
0
LWPOLYLINE
5
116
100
AcDbEntity
8
0
100
AcDbPolyline
90
4
70
1
43
0.0
10
-191.51804472876393
20
71.042104367115712
10
-191.51804472876393
20
57.042104367115712
10
-205.51804472876393
20
57.042104367115712
10
-205.51804472876393
20
71.042104367115712
0
LWPOLYLINE
5
117
100
AcDbEntity
8
0
100
AcDbPolyline
90
4
70
1
43
0.0
10
-272.51804472876393
20
88.042104367115712
10
-272.51804472876393
20
74.042104367115726
10
-286.51804472876393
20
74.042104367115726
10
-286.51804472876393
20
88.042104367115712
0
LWPOLYLINE
5
118
100
AcDbEntity
8
0
100
AcDbPolyline
90
4
70
1
43
0.0
10
-138.0180447287639
20
37.042104367115712
10
-124.01804472876387
20
37.042104367115712
10
-124.01804472876387
20
23.042104367115712
10
-138.0180447287639
20
23.042104367115712
0
LWPOLYLINE
5
119
100
AcDbEntity
8
0
100
AcDbPolyline
90
4
70
1
43
0.0
10
-232.0180447287639
20
88.042104367115712
10
-232.01804472876387
20
74.042104367115726
10
-246.01804472876387
20
74.042104367115726
10
-246.01804472876387
20
88.042104367115712
0
LWPOLYLINE
5
120
100
AcDbEntity
8
0
100
AcDbPolyline
90
4
70
1
43
0.0
10
-183.01804472876393
20
20.042104367115723
10
-169.01804472876393
20
20.042104367115723
10
-169.01804472876393
20
6.0421043671157193
10
-183.01804472876393
20
6.0421043671157193
0
LWPOLYLINE
5
121
100
AcDbEntity
8
0
100
AcDbPolyline
90
4
70
1
43
0.0
10
-70.018044728763883
20
37.042104367115712
10
-70.018044728763883
20
23.042104367115712
10
-84.018044728763897
20
23.042104367115712
10
-84.018044728763897
20
37.042104367115712
0
LWPOLYLINE
5
122
100
AcDbEntity
8
0
100
AcDbPolyline
90
4
70
1
43
0.0
10
-56.51804472876389
20
54.042104367115726
10
-56.51804472876389
20
40.042104367115726
10
-70.518044728763897
20
40.042104367115726
10
-70.518044728763897
20
54.042104367115726
0
LWPOLYLINE
5
123
100
AcDbEntity
8
0
100
AcDbPolyline
90
4
70
1
43
0.0
10
-211.76804472876393
20
88.042104367115712
10
-211.76804472876393
20
74.042104367115726
10
-225.7680447287639
20
74.042104367115726
10
-225.7680447287639
20
88.042104367115712
0
LWPOLYLINE
5
124
100
AcDbEntity
8
0
100
AcDbPolyline
90
4
70
1
43
0.0
10
-290.51804472876393
20
74.042104367115726
10
-304.51804472876393
20
74.042104367115726
10
-304.51804472876393
20
88.042104367115712
10
-290.51804472876393
20
88.042104367115712
0
LWPOLYLINE
5
125
100
AcDbEntity
8
0
100
AcDbPolyline
90
4
70
1
43
0.0
10
-223.51804472876387
20
71.042104367115712
10
-209.5180447287639
20
71.042104367115712
10
-209.51804472876387
20
57.042104367115712
10
-223.51804472876387
20
57.042104367115712
0
LWPOLYLINE
5
126
100
AcDbEntity
8
0
100
AcDbPolyline
90
4
70
1
43
0.0
10
-160.01804472876387
20
23.042104367115712
10
-174.01804472876393
20
23.042104367115712
10
-174.0180447287639
20
37.042104367115712
10
-160.01804472876387
20
37.042104367115712
0
LWPOLYLINE
5
127
100
AcDbEntity
8
0
100
AcDbPolyline
90
4
70
1
43
0.0
10
-119.51804472876388
20
57.042104367115712
10
-133.5180447287639
20
57.042104367115712
10
-133.5180447287639
20
71.042104367115712
10
-119.51804472876388
20
71.042104367115712
0
LWPOLYLINE
5
128
100
AcDbEntity
8
0
100
AcDbPolyline
90
4
70
1
43
0.0
10
-200.51804472876393
20
54.042104367115726
10
-200.51804472876393
20
40.042104367115726
10
-214.5180447287639
20
40.042104367115726
10
-214.5180447287639
20
54.042104367115726
0
LWPOLYLINE
5
129
100
AcDbEntity
8
0
100
AcDbPolyline
90
4
70
1
43
0.0
10
-228.01804472876393
20
37.042104367115712
10
-214.01804472876393
20
37.042104367115712
10
-214.01804472876393
20
23.042104367115712
10
-228.01804472876393
20
23.042104367115712
0
LWPOLYLINE
5
130
100
AcDbEntity
8
0
100
AcDbPolyline
90
4
70
1
43
0.0
10
-160.51804472876393
20
54.042104367115726
10
-146.5180447287639
20
54.042104367115726
10
-146.5180447287639
20
40.042104367115726
10
-160.51804472876393
20
40.042104367115726
0
LWPOLYLINE
5
131
100
AcDbEntity
8
0
100
AcDbPolyline
90
4
70
1
43
0.0
10
-110.5180447287639
20
40.042104367115726
10
-124.51804472876388
20
40.042104367115726
10
-124.51804472876388
20
54.042104367115726
10
-110.5180447287639
20
54.042104367115726
0
LWPOLYLINE
5
132
100
AcDbEntity
8
0
100
AcDbPolyline
90
4
70
1
43
0.0
10
-65.518044728763897
20
71.042104367115712
10
-65.518044728763897
20
57.042104367115712
10
-79.518044728763883
20
57.042104367115712
10
-79.518044728763883
20
71.042104367115712
0
LWPOLYLINE
5
133
100
AcDbEntity
8
0
100
AcDbPolyline
90
4
70
1
43
0.0
10
-205.01804472876387
20
20.042104367115723
10
-205.0180447287639
20
6.0421043671157193
10
-219.01804472876393
20
6.0421043671157193
10
-219.0180447287639
20
20.042104367115723
0
LWPOLYLINE
5
134
100
AcDbEntity
8
0
100
AcDbPolyline
90
4
70
1
43
0.0
10
-11.51804472876389
20
37.042104367115712
10
-11.51804472876389
20
23.042104367115712
10
-25.518044728763876
20
23.042104367115712
10
-25.518044728763876
20
37.042104367115712
0
LWPOLYLINE
5
135
100
AcDbEntity
8
0
100
AcDbPolyline
90
4
70
1
43
0.0
10
-39.01804472876389
20
20.042104367115723
10
-25.018044728763869
20
20.042104367115723
10
-25.018044728763869
20
6.0421043671157193
10
-39.01804472876389
20
6.0421043671157193
0
LWPOLYLINE
5
136
100
AcDbEntity
8
0
100
AcDbPolyline
90
4
70
1
43
0.0
10
-66.018044728763883
20
23.042104367115712
10
-66.018044728763883
20
37.042104367115712
10
-52.018044728763883
20
37.042104367115712
10
-52.018044728763883
20
23.042104367115712
0
LWPOLYLINE
5
137
100
AcDbEntity
8
0
100
AcDbPolyline
90
4
70
1
43
0.0
10
-83.518044728763883
20
71.042104367115712
10
-83.518044728763883
20
57.042104367115712
10
-97.518044728763883
20
57.042104367115712
10
-97.518044728763883
20
71.042104367115712
0
LWPOLYLINE
5
138
100
AcDbEntity
8
0
100
AcDbPolyline
90
4
70
1
43
0.0
10
-34.01804472876389
20
23.042104367115712
10
-48.018044728763897
20
23.042104367115712
10
-48.018044728763897
20
37.042104367115712
10
-34.01804472876389
20
37.042104367115712
0
LWPOLYLINE
5
139
100
AcDbEntity
8
0
100
AcDbPolyline
90
4
70
1
43
0.0
10
-101.5180447287639
20
57.042104367115712
10
-115.5180447287639
20
57.042104367115712
10
-115.5180447287639
20
71.042104367115712
10
-101.5180447287639
20
71.042104367115712
0
LWPOLYLINE
5
140
100
AcDbEntity
8
0
100
AcDbPolyline
90
4
70
1
43
0.0
10
-142.5180447287639
20
54.042104367115726
10
-128.5180447287639
20
54.042104367115726
10
-128.5180447287639
20
40.042104367115726
10
-142.5180447287639
20
40.042104367115726
0
LWPOLYLINE
5
141
100
AcDbEntity
8
0
100
AcDbPolyline
90
4
70
1
43
0.0
10
-111.0180447287639
20
6.0421043671157193
10
-111.0180447287639
20
20.042104367115723
10
-97.018044728763883
20
20.042104367115723
10
-97.018044728763883
20
6.0421043671157193
0
LWPOLYLINE
5
142
100
AcDbEntity
8
0
100
AcDbPolyline
90
4
70
1
43
0.0
10
-299.64504472876388
20
30.0901043671157
10
-299.64504472876388
20
15.589904367115714
10
-304.39504472876388
20
15.589904367115714
10
-304.39504472876388
20
30.0901043671157
0
LWPOLYLINE
5
143
100
AcDbEntity
8
0
100
AcDbPolyline
90
4
70
1
43
0.0
10
-79.018044728763897
20
20.042104367115723
10
-79.018044728763897
20
6.0421043671157193
10
-93.018044728763897
20
6.0421043671157193
10
-93.018044728763897
20
20.042104367115723
0
LWPOLYLINE
5
144
100
AcDbEntity
8
0
100
AcDbPolyline
90
4
70
1
43
0.0
10
-254.5180447287639
20
88.042104367115712
10
-254.5180447287639
20
74.042104367115726
10
-268.51804472876387
20
74.042104367115726
10
-268.51804472876387
20
88.042104367115712
0
LWPOLYLINE
5
145
100
AcDbEntity
8
0
100
AcDbPolyline
90
4
70
1
43
0.0
10
-232.51804472876387
20
54.042104367115726
10
-218.51804472876387
20
54.042104367115726
10
-218.51804472876387
20
40.042104367115726
10
-232.51804472876387
20
40.042104367115726
0
LWPOLYLINE
5
146
100
AcDbEntity
8
0
100
AcDbPolyline
90
4
70
1
43
0.0
10
-155.5180447287639
20
71.042104367115712
10
-155.51804472876393
20
57.042104367115712
10
-169.5180447287639
20
57.042104367115712
10
-169.5180447287639
20
71.042104367115712
0
LWPOLYLINE
5
147
100
AcDbEntity
8
0
100
AcDbPolyline
90
4
70
1
43
0.0
10
-102.01804472876388
20
23.042104367115712
10
-102.01804472876388
20
37.042104367115712
10
-88.018044728763897
20
37.042104367115712
10
-88.018044728763897
20
23.042104367115712
0
LWPOLYLINE
5
148
100
AcDbEntity
8
0
100
AcDbPolyline
90
4
70
1
43
0.0
10
-196.01804472876387
20
23.042104367115712
10
-210.01804472876387
20
23.042104367115712
10
-210.01804472876387
20
37.042104367115712
10
-196.01804472876387
20
37.042104367115712
0
LWPOLYLINE
5
149
100
AcDbEntity
8
0
100
AcDbPolyline
90
4
70
1
43
0.0
10
-115.01804472876388
20
6.0421043671157193
10
-129.01804472876387
20
6.0421043671157193
10
-129.01804472876387
20
20.042104367115723
10
-115.01804472876388
20
20.042104367115723
0
LWPOLYLINE
5
150
100
AcDbEntity
8
0
100
AcDbPolyline
90
4
70
1
43
0.0
10
-173.51804472876387
20
71.042104367115712
10
-173.51804472876387
20
57.042104367115712
10
-187.51804472876387
20
57.042104367115712
10
-187.51804472876387
20
71.042104367115712
0
LWPOLYLINE
5
151
100
AcDbEntity
8
0
100
AcDbPolyline
90
4
70
1
43
0.0
10
-164.5180447287639
20
40.042104367115726
10
-178.51804472876387
20
40.042104367115726
10
-178.51804472876387
20
54.042104367115726
10
-164.5180447287639
20
54.042104367115726
0
LWPOLYLINE
5
152
100
AcDbEntity
8
0
100
AcDbPolyline
90
4
70
1
43
0.0
10
-201.01804472876387
20
20.042104367115723
10
-187.0180447287639
20
20.042104367115723
10
-187.01804472876387
20
6.0421043671157193
10
-201.01804472876387
20
6.0421043671157193
0
LWPOLYLINE
5
153
100
AcDbEntity
8
0
100
AcDbPolyline
90
4
70
1
43
0.0
10
-75.018044728763883
20
20.042104367115723
10
-61.018044728763883
20
20.042104367115723
10
-61.018044728763883
20
6.0421043671157193
10
-75.018044728763883
20
6.0421043671157193
0
LWPOLYLINE
5
154
100
AcDbEntity
8
0
100
AcDbPolyline
90
4
70
1
43
0.0
10
-47.518044728763883
20
71.042104367115712
10
-47.518044728763883
20
57.042104367115712
10
-61.51804472876389
20
57.042104367115712
10
-61.51804472876389
20
71.042104367115712
0
LWPOLYLINE
5
155
100
AcDbEntity
8
0
100
AcDbPolyline
90
4
70
1
43
0.0
10
-120.01804472876388
20
23.042104367115712
10
-120.01804472876388
20
37.042104367115712
10
-106.01804472876388
20
37.042104367115712
10
-106.01804472876388
20
23.042104367115712
0
LWPOLYLINE
5
156
100
AcDbEntity
8
0
100
AcDbPolyline
90
4
70
1
43
0.0
10
-57.018044728763883
20
20.042104367115723
10
-43.018044728763897
20
20.042104367115723
10
-43.018044728763897
20
6.0421043671157193
10
-57.018044728763883
20
6.0421043671157193
0
LWPOLYLINE
5
157
100
AcDbEntity
8
0
100
AcDbPolyline
90
4
70
1
43
0.0
10
-237.0180447287639
20
6.0421043671157193
10
-237.0180447287639
20
20.042104367115723
10
-223.01804472876393
20
20.042104367115723
10
-223.01804472876393
20
6.0421043671157193
0
LWPOLYLINE
5
158
100
AcDbEntity
8
0
100
AcDbPolyline
90
4
70
1
43
0.0
10
-38.518044728763883
20
40.042104367115726
10
-52.518044728763883
20
40.042104367115726
10
-52.518044728763883
20
54.042104367115726
10
-38.518044728763883
20
54.042104367115726
0
LWPOLYLINE
5
159
100
AcDbEntity
8
0
100
AcDbPolyline
90
4
70
1
43
0.0
10
-21.018044728763883
20
20.042104367115723
10
-7.018044728763897
20
20.042104367115723
10
-7.018044728763897
20
6.0421043671157193
10
-21.018044728763883
20
6.0421043671157193
0
LWPOLYLINE
5
160
100
AcDbEntity
8
0
100
AcDbPolyline
90
4
70
1
43
0.0
10
-54.268044728763897
20
88.042104367115712
10
-54.268044728763897
20
74.042104367115726
10
-68.268044728763883
20
74.042104367115726
10
-68.268044728763883
20
88.042104367115712
0
LWPOLYLINE
5
161
100
AcDbEntity
8
0
100
AcDbPolyline
90
4
70
1
43
0.0
10
-192.0180447287639
20
37.042104367115712
10
-178.01804472876393
20
37.042104367115712
10
-178.01804472876393
20
23.042104367115712
10
-192.0180447287639
20
23.042104367115712
0
LWPOLYLINE
5
162
100
AcDbEntity
8
0
100
AcDbPolyline
90
4
70
1
43
0.0
10
-250.01804472876387
20
23.042104367115712
10
-264.01804472876393
20
23.042104367115712
10
-264.01804472876387
20
37.042104367115712
10
-250.01804472876387
20
37.042104367115712
0
LWPOLYLINE
5
163
100
AcDbEntity
8
0
100
AcDbPolyline
90
4
70
1
43
0.0
10
-189.26804472876393
20
74.042104367115726
10
-203.2680447287639
20
74.042104367115726
10
-203.2680447287639
20
88.042104367115712
10
-189.26804472876393
20
88.042104367115712
0
LWPOLYLINE
5
164
100
AcDbEntity
8
0
100
AcDbPolyline
90
4
70
1
43
0.0
10
-261.9180447287639
20
71.042104367115712
10
-229.61804472876389
20
71.042104367115712
10
-229.61804472876389
20
55.092104367115738
10
-261.9180447287639
20
55.092104367115738
0
LWPOLYLINE
5
165
100
AcDbEntity
8
0
100
AcDbPolyline
90
4
70
1
43
0.0
10
-257.26804472876387
20
54.042104367115726
10
-243.2680447287639
20
54.042104367115726
10
-243.26804472876387
20
40.042104367115726
10
-257.26804472876387
20
40.042104367115726
0
LWPOLYLINE
5
166
100
AcDbEntity
8
0
100
AcDbPolyline
90
4
70
1
43
0.0
10
-245.51804472876393
20
6.0421043671157193
10
-259.51804472876393
20
6.0421043671157193
10
-259.51804472876393
20
20.042104367115723
10
-245.51804472876393
20
20.042104367115723
0
LWPOLYLINE
5
167
100
AcDbEntity
8
0
100
AcDbPolyline
90
4
70
1
43
0.0
10
-182.91804472876393
20
88.042104367115712
10
-150.61804472876389
20
88.042104367115712
10
-150.61804472876389
20
72.092104367115738
10
-182.91804472876393
20
72.092104367115738
0
LWPOLYLINE
5
168
100
AcDbEntity
8
0
100
AcDbPolyline
90
8
70
1
43
0.0
10
-2.0180447287638827
20
88.542104367115712
42
0.41421356237309503
10
-6.0180447287638819
20
92.542104367115726
10
-305.51804472876393
20
92.542104367115726
42
0.41421356237309509
10
-309.51804472876393
20
88.542104367115712
10
-309.51804472876393
20
5.5421043671157122
42
0.41421356237309509
10
-305.51804472876393
20
1.5421043671157264
10
-6.0180447287638827
20
1.5421043671157131
42
0.41421356237309509
10
-2.0180447287638827
20
5.5421043671157122
0
ENDSEC
0
SECTION
2
OBJECTS
0
DICTIONARY
5
C
100
AcDbDictionary
3
ACAD_GROUP
350
D
3
ACAD_MLINESTYLE
350
17
0
DICTIONARY
5
D
100
AcDbDictionary
0
DICTIONARY
5
1A
330
C
100
AcDbDictionary
0
DICTIONARY
5
17
100
AcDbDictionary
0
ENDSEC
0
EOF
